<svg width="660" height="344" viewBox="0 0 660 344" fill="none" xmlns="http://www.w3.org/2000/svg">
<path d="M116.893 328.015C116.893 331.632 115.609 337.045 111.744 339.764H5.86143C2.42921 337.045 0.725098 331.632 0.725098 328.015C0.725098 321.691 4.14532 318.985 9.72569 316.721C23.4426 312.193 26.0227 302.266 26.0227 288.253V148.214C23.0106 146.861 20.4424 145.963 17.8622 144.609C8.00957 139.639 1.14513 135.567 1.14513 130.597C1.14513 126.537 4.58935 123.375 10.1457 120.214C24.7267 111.184 54.7286 103.052 74.0259 103.052C91.175 103.052 91.595 114.788 91.595 121.567V288.253C91.595 302.266 94.6072 312.193 108.324 316.721C113.892 318.985 116.893 321.679 116.893 328.015ZM13.1459 42.0684C13.1459 18.5704 29.0229 4.57031 53.8766 4.57031C78.7302 4.57031 95.0273 18.5704 95.0273 42.0684C95.0273 65.0983 78.7422 80.009 53.8766 80.009C29.0109 80.009 13.1459 65.0983 13.1459 42.0684Z" fill="url(#paint0_linear_157_58)"/>
<path d="M645.167 314.115C645.167 318.175 641.735 320.894 636.167 324.498C621.562 333.541 591.56 341.622 572.275 341.622C555.125 341.622 554.693 329.873 554.693 323.095V311.396C537.976 330.367 516.111 341.673 488.257 341.673C436.354 341.622 395.671 301.468 395.671 220.212C395.671 150.199 435.958 99.1561 494.689 99.1561C520.407 99.1561 539.692 107.731 554.693 122.186V45.331C551.877 44.4029 549.153 43.1917 546.557 41.7139C536.692 37.199 529.408 33.1393 529.408 27.7138C529.408 23.6542 533.26 20.9351 538.408 17.3307C553.409 8.2882 582.991 0.15625 602.276 0.15625C619.426 0.15625 620.278 11.8926 620.278 18.6839V296.498C623.278 297.851 625.846 298.749 628.426 300.103C638.279 304.63 645.167 308.74 645.167 314.115ZM554.693 273.456V179.502C544.409 148.783 524.691 131.165 500.69 131.165C477.972 131.165 459.107 150.136 459.107 196.208C459.107 247.707 478.392 306.439 513.975 306.439C534.976 306.439 547.841 293.337 554.693 273.456Z" fill="#61B3E8"/>
<path d="M358.588 326.307C355.588 334.894 344.872 339.422 332.007 339.422H327.71C314.426 339.422 303.709 335.35 301.141 326.307L262.558 194.4C261.274 191.238 259.126 190.796 258.274 194.4L218.839 326.307C216.271 335.35 205.554 339.422 192.258 339.422H187.937C175.084 339.422 164.368 334.894 161.368 326.307L103.932 148.783C100.08 136.579 95.3633 132.064 85.0786 128.004C79.4982 125.74 76.498 123.034 76.498 116.255C76.498 113.093 77.7821 107.668 81.6464 104.961H184.949C186.668 106.271 188.095 107.96 189.132 109.91C190.168 111.861 190.788 114.026 190.95 116.255C190.95 123.034 187.097 125.74 181.517 128.004C171.664 131.608 171.664 139.74 175.516 155.549L203.814 265.324C204.666 268.486 207.247 268.486 208.099 265.324L248.421 115.8C250.557 106.315 262.558 102.255 275.855 102.255H279.275C292.572 102.255 304.573 106.315 307.141 115.8L343.587 265.324C344.44 268.486 347.44 268.486 348.304 265.324L379.158 153.298C383.442 137.034 381.306 130.71 372.305 128.004C366.725 125.74 363.725 123.034 363.725 116.255C363.725 113.093 365.021 107.668 368.873 104.961H440.458C444.322 107.668 445.606 113.093 445.606 116.255C445.606 123.034 442.606 125.74 437.026 128.004C426.309 132.064 419.024 137.034 414.74 150.591L358.588 326.307Z" fill="url(#paint1_linear_157_58)"/>
<path d="M67.2456 18.001C42.3799 18.001 26.5149 30.357 26.5149 51.0726C26.5149 71.3709 42.3799 84.511 67.2456 84.511C92.1112 84.511 108.384 71.3709 108.384 51.0726C108.384 30.357 92.0992 18.001 67.2456 18.001Z" stroke="#231F20" stroke-width="1.88" stroke-miterlimit="10"/>
<path d="M641.794 302.278C639.214 301.013 636.646 300.103 633.646 298.8V31.8493C633.646 25.3362 632.794 14.0425 615.645 14.0425C596.36 14.0425 566.778 21.8583 551.777 30.5467C546.628 34.0246 542.776 36.6172 542.776 40.5251C542.776 45.7356 550.061 49.6435 559.937 53.9814C562.54 55.4076 565.264 56.572 568.074 57.4593V131.241C553.073 117.33 533.787 109.122 508.07 109.122C490.729 108.917 473.659 113.654 458.663 122.831C458.132 119.584 456.407 116.689 453.862 114.775H382.242C378.377 117.38 377.093 122.603 377.093 125.626C377.093 132.152 380.093 134.744 385.662 136.932C394.674 139.525 396.811 145.595 392.526 161.227L361.66 268.89C360.808 271.913 357.808 271.913 356.956 268.89L320.51 125.171C317.929 116.052 305.941 112.144 292.644 112.144H289.224C275.927 112.144 263.926 116.052 261.778 125.171L221.539 268.865C220.687 271.887 218.119 271.887 217.255 268.865L188.969 163.364C185.117 148.188 185.117 140.36 194.969 136.907C200.538 134.719 204.402 132.127 204.402 125.601C204.224 123.437 203.594 121.342 202.556 119.466C201.519 117.59 200.1 115.979 198.402 114.75H97.283C94.1422 113.427 90.7747 112.807 87.3944 112.929C68.1091 112.929 38.0832 120.732 23.5142 129.37C17.9459 132.417 14.5137 135.453 14.5137 139.348C14.5137 144.128 21.3661 148.036 31.2307 152.817C33.7989 154.082 36.3671 154.979 39.3793 156.282V290.845C39.3793 304.314 36.8111 313.85 23.0822 318.2C17.5138 320.376 14.0936 322.968 14.0936 329.064C14.0936 332.517 15.7977 337.727 19.23 340.345H125.113C128.965 337.727 130.249 332.517 130.249 329.064C130.249 322.968 127.249 320.376 121.693 318.2C107.964 313.85 104.964 304.289 104.964 290.845V139.879C110.964 143.306 114.384 147.948 117.312 156.864L174.736 327.458C177.736 335.704 188.465 340.105 201.318 340.105H205.602C218.887 340.105 229.604 336.197 232.172 327.458L271.618 200.698C272.47 197.233 274.619 197.675 275.903 200.698L314.497 327.458C317.077 336.146 327.794 340.105 341.091 340.105H345.375C358.228 340.105 368.945 335.754 371.945 327.458L409.375 214.9C409.147 218.366 409.039 221.894 409.039 225.461C409.039 303.606 449.746 342.242 501.613 342.242C529.479 342.242 551.345 331.391 568.062 313.154V324.448C568.062 330.948 568.482 342.242 585.643 342.242C604.928 342.242 634.93 334.426 649.511 325.801C655.079 322.323 658.512 319.731 658.512 315.81C658.512 310.536 651.647 306.628 641.794 302.278ZM568.062 276.668C561.197 295.765 548.344 308.361 527.331 308.361C491.761 308.361 472.463 251.931 472.463 202.443C472.463 158.179 491.329 139.93 514.046 139.93C538.048 139.93 557.765 156.864 568.05 186.382L568.062 276.668Z" stroke="#231F20" stroke-width="1.96" stroke-miterlimit="10"/>
<defs>
<linearGradient id="paint0_linear_157_58" x1="58.8089" y1="4.57031" x2="58.8089" y2="339.764" gradientUnits="userSpaceOnUse">
<stop stop-color="#758BE8"/>
<stop offset="1" stop-color="#6087E5"/>
</linearGradient>
<linearGradient id="paint1_linear_157_58" x1="128.533" y1="131.684" x2="399.997" y2="192.935" gradientUnits="userSpaceOnUse">
<stop stop-color="#6B89E7"/>
<stop offset="0.765586" stop-color="#5483E2"/>
<stop offset="1" stop-color="#61B3E8"/>
</linearGradient>
</defs>
</svg>
