<svg width="458" height="233" viewBox="0 0 458 233" fill="none" xmlns="http://www.w3.org/2000/svg">
<path d="M459 185.65C393.86 224.422 395 222.919 334.171 230.41C259.837 239.563 176.002 210.565 140.591 141.256C134.249 128.853 129.558 113.969 134.273 100.698C138.988 87.4268 156.882 79.5632 166.524 89.4113C168.611 91.7732 170.171 94.5959 171.088 97.673C172.006 100.75 172.259 104.004 171.829 107.197C169.613 129.101 144.009 141.479 123.687 136.047C103.365 130.614 88.3238 113.101 75.7815 95.3648C56.3722 67.6057 40.6296 37.2057 28.9838 4.99566C44.2559 0.472656 60.3361 -0.131289 75.8758 3.23444L28.6067 1.20032C24.4934 25.0244 15.028 47.4692 0.999512 66.664" stroke="black" stroke-width="1.31" stroke-miterlimit="10"/>
</svg>
