<svg width="615" height="240" viewBox="0 0 615 240" fill="none" xmlns="http://www.w3.org/2000/svg">
<path d="M-4.8002 239.085C49.5401 171.038 105.94 101.094 182.766 52.7223C259.592 4.35073 362.839 -17.393 430.539 21.0339C442.66 27.9079 454.036 37.756 454.521 51.4135C455.006 65.0709 438.902 81.4379 424.277 78.5045C421.014 77.6774 418.13 76.1767 415.834 74.112C413.539 72.0473 411.891 69.4708 411.01 66.5706C404.168 47.0795 426.734 22.7209 451.088 16.1176C475.441 9.51433 499.163 15.885 520.266 23.8114C553.054 36.3377 582.978 53.0769 609.218 73.5714C594.55 85.7142 577.35 95.0299 559.06 100.737L611.23 76.5316C605.637 54.3986 606.435 30.4838 613.56 6.78018" stroke="black" stroke-width="1.31" stroke-miterlimit="10"/>
</svg>
