<svg width="715" height="380" viewBox="0 0 715 380" fill="none" xmlns="http://www.w3.org/2000/svg">
<g clip-path="url(#clip0_157_50)">
<path d="M520.68 63.0026L520.661 62.9991C518.838 62.6704 516.988 62.5151 515.134 62.5355L515.08 62.5361L515.027 62.5329C514.68 62.5119 514.331 62.5747 514.01 62.717C513.708 62.8511 513.439 63.0521 513.224 63.305C513.01 63.65 512.874 64.293 513.276 65.4915C513.687 66.5833 514.204 67.6316 514.819 68.6215L514.831 68.6408L514.842 68.6604C515.326 69.4946 515.838 70.3175 516.365 71.1622L516.366 71.1625L516.442 71.2844C517.165 72.4445 517.945 73.6942 518.616 74.9727C527.648 92.1002 535.946 107.393 546.347 121.875L546.949 122.713L546.38 123.575C546.052 124.073 545.722 124.566 545.394 125.053C544.466 126.436 543.541 127.818 542.723 129.228C541.445 131.434 540.16 133.637 538.868 135.839C534.783 142.825 530.577 150.02 526.712 157.246C525.44 159.625 525.535 161.337 526.224 162.355C526.963 163.442 528.656 164.202 531.578 163.853L531.745 165.247L531.578 163.853C532.675 163.721 533.84 163.529 535.144 163.262C541.012 162.059 546.879 160.846 552.803 159.621L558.172 158.511L559.373 158.262L559.855 159.388C559.872 159.428 559.906 159.507 559.938 159.601C559.939 159.606 559.941 159.61 559.942 159.614L561.574 164.321L561.574 164.322L561.584 164.348C563.448 169.72 565.377 175.28 567.227 180.768M520.68 63.0026L572.036 200.563L573.491 200.196C572.235 195.214 570.51 190.253 568.867 185.527L568.835 185.435L568.833 185.431C568.289 183.878 567.754 182.324 567.227 180.768M520.68 63.0026L520.7 63.0057C528.45 64.1903 536.2 65.3823 543.951 66.5818L543.952 66.5819C554.365 68.1878 565.135 69.8469 575.731 71.4443L575.731 71.4443C612.443 76.9737 649.226 83.3423 685.061 90.3734M520.68 63.0026L706.49 93.8182M567.227 180.768L565.805 181.247M567.227 180.768C567.227 180.768 567.227 180.767 567.227 180.766L565.805 181.247M565.805 181.247C563.958 175.767 562.031 170.214 560.167 164.842L560.157 164.813L558.517 160.085C558.506 160.05 558.491 160.015 558.476 159.979M565.805 181.247L558.476 159.979M558.476 159.979L553.107 161.09M558.476 159.979L553.107 161.09M553.107 161.09C547.183 162.314 541.315 163.528 535.445 164.731C534.107 165.005 532.9 165.205 531.756 165.341L553.107 161.09ZM515.092 71.9559L515.158 72.0611C515.889 73.2342 516.643 74.4426 517.288 75.6712C526.32 92.7977 534.66 108.174 545.128 122.75C544.803 123.242 544.475 123.731 544.148 124.218C543.225 125.594 542.271 127.017 541.425 128.477C540.147 130.68 538.863 132.883 537.573 135.083L537.567 135.093C533.487 142.072 529.267 149.287 525.389 156.54C523.99 159.156 523.846 161.521 524.982 163.197L515.092 71.9559ZM515.092 71.9559C514.567 71.1138 514.042 70.271 513.544 69.4126L515.092 71.9559ZM706.49 93.8182C707.434 94.0058 708.356 94.2911 709.241 94.6683C709.923 94.9286 710.538 95.3391 711.039 95.8694C711.541 96.4001 711.917 97.0373 712.14 97.7341M706.49 93.8182L706.365 93.7894L706.49 93.8182ZM712.14 97.7341L710.671 98.0387C710.676 98.0643 710.681 98.0899 710.686 98.1156M712.14 97.7341L710.711 98.1912C710.703 98.1659 710.695 98.1407 710.686 98.1156M712.14 97.7341C712.277 98.3955 712.264 99.0804 712.102 99.7381C711.94 100.395 711.633 101.009 711.203 101.533C709.475 103.867 707.546 106.046 705.44 108.044C687.539 125.42 668.684 141.78 648.965 157.045C639.792 164.164 630.618 171.28 621.44 178.394C610.266 187.051 598.709 196.005 587.367 204.84L710.646 99.38M710.686 98.1156C710.529 97.6622 710.278 97.2477 709.949 96.8998L709.948 96.8995C709.602 96.533 709.177 96.2493 708.705 96.0693L708.678 96.059L708.652 96.0476C707.862 95.7109 707.039 95.4563 706.197 95.289L706.175 95.2846L706.153 95.2795L706.027 95.2506L706.02 95.2488C704.028 94.7789 702.041 94.2926 700.061 93.8079L699.773 93.7373L699.772 93.7373C694.941 92.554 689.984 91.3404 685.061 90.3734M710.686 98.1156C710.761 98.5336 710.748 98.9645 710.646 99.38M685.061 90.3734L685.35 88.9023L685.06 90.3733C685.06 90.3733 685.061 90.3733 685.061 90.3734ZM710.646 99.38C710.536 99.8211 710.33 100.232 710.043 100.582L710.019 100.611L709.997 100.641C708.321 102.906 706.45 105.019 704.407 106.957L704.401 106.963L704.394 106.969C686.534 124.306 667.721 140.629 648.046 155.86L648.045 155.861C638.873 162.98 629.698 170.095 620.521 177.208M710.646 99.38L576.47 204.674M710.646 99.38C710.646 99.3794 710.646 99.3789 710.646 99.3783L712.101 99.7376L710.646 99.38ZM620.521 177.208C609.347 185.866 597.789 194.821 586.445 203.657L586.445 203.657C585.06 204.736 583.803 205.372 582.59 205.665C581.388 205.956 580.143 205.931 578.743 205.565L578.733 205.562L578.723 205.56C577.935 205.365 577.178 205.068 576.47 204.674M620.521 177.208L621.433 178.384L620.521 177.209C620.521 177.209 620.521 177.209 620.521 177.208ZM576.47 204.674C576.473 204.676 576.476 204.677 576.479 204.679L575.729 205.978L576.46 204.669C576.463 204.67 576.467 204.672 576.47 204.674ZM648.25 112.517L648.251 112.517C653.676 111.771 659.129 110.556 664.472 109.366L664.613 109.335L664.615 109.334C664.986 109.252 665.359 109.169 665.732 109.086C667.205 108.758 668.686 108.429 670.167 108.113L670.168 108.113C670.923 107.952 671.641 107.785 672.268 107.37C672.719 107.072 673.183 106.602 673.5 105.747C673.295 105.713 673.096 105.679 672.903 105.645L672.89 105.643L672.877 105.64C672.081 105.485 671.275 105.388 670.465 105.349C640.071 104.644 610.39 109.599 581.531 114.423L581.531 114.423C575.047 115.506 568.745 116.85 562.039 118.28C559.19 118.888 556.319 119.491 553.425 120.092L552.39 120.307L551.839 119.405L521.976 70.4996L520.634 68.3019L523.209 68.2193C523.634 68.2057 524.059 68.2276 524.48 68.285L524.5 68.2876L524.519 68.2907C533.062 69.6792 541.609 71.0565 550.158 72.4224L550.159 72.4226C571.088 75.7812 592.742 79.2567 613.988 82.9355C632.892 86.2085 652.054 89.8694 670.572 93.4072L670.639 93.42L670.374 94.8018L670.639 93.4201C676.803 94.5982 682.968 95.7725 689.133 96.9421L648.25 112.517ZM648.25 112.517C630.2 115.008 611.831 117.407 594.055 119.728L593.816 119.759M648.25 112.517L593.816 119.759M696.408 98.6833L696.408 98.6835C697.057 98.8558 697.709 99.0273 698.365 99.1982L701.027 99.8919L699.001 101.753C674.643 124.135 648.233 144.624 622.734 164.406L622.7 164.433C609.289 174.836 595.448 185.575 581.985 196.518L580.379 197.824L579.638 195.892C571.872 175.647 564.938 154.985 558.241 135.029L558.241 135.028C557.338 132.331 556.431 129.631 555.52 126.929L554.963 125.276L556.682 124.973L559.425 124.49L559.963 124.395L559.964 124.396C562.217 123.997 564.395 123.621 566.574 123.333M696.408 98.6833L594.009 121.246L593.815 119.759M696.408 98.6833C693.959 98.0345 691.586 97.406 689.134 96.9423L696.408 98.6833ZM566.574 123.333L566.77 124.82L566.573 123.333C566.574 123.333 566.574 123.333 566.574 123.333ZM566.574 123.333C575.653 122.13 584.734 120.939 593.815 119.759M593.815 119.759C593.815 119.759 593.816 119.759 593.816 119.759M593.815 119.759L593.816 119.759M556.036 152.923L557.693 152.617L557.198 151.007L550.95 130.685L549.877 127.194L548.186 130.432L535.775 154.199L534.351 156.926L537.377 156.367L556.036 152.923Z" fill="#424242" fill-opacity="0.7" stroke="white" stroke-width="3"/>
</g>
<path d="M528.574 160.506C522.306 282.515 510.934 337.57 462.404 366.995" stroke="black" stroke-opacity="0.75" stroke-width="2"/>
<path d="M1.99377 199.632C4.06991 223.586 18.1108 245.591 36.328 259.452C82.099 294.256 138.515 278.321 187.958 263.537C196.983 260.843 206.427 258.896 215.728 260.186C225.028 261.476 234.245 266.421 239.069 274.907C245.778 286.719 230.825 307.789 221.212 293.776C218.812 290.323 218.512 285.694 219.424 281.546C225.508 253.925 260.551 249.853 282.5 253.116C291.957 254.52 308.014 256.91 315.754 270.177C321.167 279.472 319.991 289.539 318.994 297.153C314.062 334.941 282.116 361.045 256.35 369.569C244.086 373.616 240.509 370.935 238.601 369.86C227.309 363.46 232.781 342.821 244.998 338.71C257.214 334.6 270.259 341.821 279.956 350.662C289.653 359.502 298.101 370.403 309.802 375.955C316.246 378.978 327.203 377.637 342.936 366.243" stroke="#231F20" stroke-width="2" stroke-miterlimit="10"/>
<path d="M354.289 294.004C356.775 285.964 362.181 279.288 369.326 275.438C372.086 274.009 382.647 269.115 392.475 274.477C404.344 280.927 405.676 297.026 405.76 301.035C405.68 312.624 402.09 323.884 395.511 333.171C385.563 347.462 370.646 356.96 355.525 364.788C350.724 367.318 344.148 369.303 340.596 365.067C339.185 363.176 338.488 360.802 338.64 358.402C338.772 349.637 345.516 342.707 353.041 340.013C366.865 335.03 380.534 344.958 388.779 355.923C393.927 362.765 398.068 370.075 405.7 374.273C422.585 383.556 447.259 376.714 462.776 367.28" stroke="#231F20" stroke-width="2" stroke-miterlimit="10"/>
<defs>
<clipPath id="clip0_157_50">
<rect width="192.692" height="164.402" fill="white" transform="matrix(0.866187 0.499721 -0.500279 0.865864 547.65 0.69043)"/>
</clipPath>
</defs>
</svg>
