<svg width="175" height="161" viewBox="0 0 175 161" fill="none" xmlns="http://www.w3.org/2000/svg">
<path d="M38.112 124.003C62.302 130.384 85.9721 138.431 110.112 145.022C120.562 147.88 130.822 151.35 141.112 154.577C147.432 156.56 158.232 162.413 164.612 158.331C166.416 157.227 167.791 155.485 168.492 153.413C169.193 151.341 169.175 149.074 168.442 147.015C166.812 142.312 163.442 138.209 160.672 134.254C156.672 128.717 153.582 122.653 149.972 116.885C157.582 114.259 159.582 100.179 161.382 93.3032C165.202 78.6755 168.692 63.9108 172.382 49.241C173.382 45.0225 174.782 40.1923 171.912 36.3218C168.752 32.1033 160.132 30.7534 155.432 28.9394C143.262 24.1092 130.242 21.6203 117.762 17.5917L38.112 124.003ZM6.99205 95.1804C4.36753 96.7089 2.41482 99.2604 1.55205 102.289C0.00205368 108.005 1.71205 111.685 6.73205 113.889C8.54538 114.691 10.3854 115.447 12.2521 116.157L6.99205 95.1804ZM92.6921 9.97728L69.042 2.93239C64.892 1.69848 61.1521 0.0532553 57.3921 3.01675C52.5921 6.80285 51.3921 14.2802 50.0821 19.954C45.8921 37.967 39.3021 55.305 35.5621 73.529C34.7221 77.6103 35.6521 80.5949 37.5621 82.8518C29.9621 85.636 22.2621 88.1249 14.8221 91.3837C12.1127 92.4325 9.48483 93.7019 6.96209 95.1804L92.6921 9.97728ZM43.6921 61.0317C45.5321 53.3856 47.4221 45.7396 49.6921 38.2201C51.8121 31.2807 53.9321 24.51 55.6921 17.4651C56.8321 12.9408 58.4821 7.00324 64.0321 6.8134C67.0321 6.70794 71.1621 8.92266 74.0321 9.78745L113.372 21.5149C121.712 24.4151 130.172 27.1887 138.742 29.2558C145.162 30.8167 168.322 35.3832 168.442 44.1788C168.442 47.3426 166.702 51.1604 165.862 54.166C164.012 60.8524 162.362 67.5703 160.862 74.3304C159.622 79.7301 158.412 85.1298 157.042 90.4873C156.182 93.841 155.272 97.1631 154.282 100.475C152.852 105.22 152.502 109.365 147.742 110.673C142.392 112.16 134.642 108.047 129.352 106.402C123.502 104.577 117.692 102.615 111.802 100.918C100.272 97.5849 88.6121 94.7691 77.0821 91.4259C71.5321 89.8018 66.0821 87.8929 60.4621 86.4481C55.3921 85.1509 46.0921 84.6552 42.1421 80.5106C37.8521 76.0179 42.4721 66.1044 43.6921 61.0317ZM159.862 154.524C155.682 155.22 147.742 151.255 143.692 149.989C123.242 143.661 102.822 136.69 82.302 130.742C60.842 124.531 39.1221 119.426 17.8421 112.392C13.7221 111.031 5.14206 109.534 6.25206 103.723C6.96206 100.021 11.0821 98.7978 14.0021 97.3951C22.9021 93.0501 32.462 90.3502 41.672 86.8489C41.9093 86.759 42.132 86.6309 42.3321 86.4692C46.05 88.1269 49.9206 89.3745 53.8821 90.192C69.0021 93.9148 83.8821 98.7239 98.9621 102.763C106.432 104.767 113.872 106.855 121.252 109.228C128.632 111.601 136.492 115.071 144.062 116.842C144.088 116.897 144.118 116.95 144.152 117.001C150.012 125.817 156.012 135.077 161.402 144.199C163.492 147.68 167.092 153.322 159.872 154.524H159.862Z" stroke="#3C3C3C" stroke-opacity="0.75" stroke-miterlimit="10"/>
<path d="M50.2319 76.2605C65.6419 80.6583 81.0719 85.383 96.5819 89.3695C112.092 93.3559 128.332 97.4057 143.472 103.08C143.941 103.217 144.443 103.155 144.869 102.906C145.296 102.658 145.613 102.243 145.752 101.751C150.372 83.2104 155.312 64.8389 159.672 46.1615C159.8 45.6666 159.739 45.1387 159.504 44.6898C159.269 44.2409 158.877 43.9063 158.412 43.7569C127.492 34.761 96.892 24.5944 65.9719 15.5457C65.6089 15.4367 65.2216 15.4589 64.8719 15.609C64.5847 15.6868 64.323 15.8457 64.1151 16.0687C63.9071 16.2917 63.7608 16.5704 63.6919 16.8746C58.7919 35.8578 53.8886 54.8411 48.9819 73.8243C48.8448 74.3221 48.8991 74.8568 49.1331 75.3128C49.367 75.7687 49.7617 76.1092 50.2319 76.2605V76.2605ZM155.692 46.9946C151.592 64.3221 147.042 81.4703 142.692 98.6713C128.072 93.3349 112.582 89.4433 97.5819 85.5939C82.5819 81.7445 67.8119 77.2518 52.9819 72.9911C57.5619 55.2523 62.1452 37.5136 66.7319 19.7748C96.4819 28.5598 125.942 38.294 155.692 46.9946Z" stroke="#3C3C3C" stroke-opacity="0.75" stroke-miterlimit="10"/>
<path d="M105.632 119.764C105.622 119.343 105.488 118.936 105.25 118.598C105.012 118.26 104.681 118.008 104.302 117.876C94.7723 114.216 84.8523 112.234 75.1123 109.323C74.7255 109.215 74.3162 109.238 73.9427 109.389C73.5692 109.541 73.2506 109.813 73.0323 110.167C70.8964 112.937 69.0334 115.93 67.4723 119.099C67.2995 119.442 67.2265 119.831 67.2623 120.217C67.2494 120.62 67.3686 121.015 67.6 121.336C67.8314 121.657 68.1607 121.884 68.5323 121.978C80.1723 125.522 92.3422 130.247 104.392 131.85C104.881 131.855 105.352 131.657 105.703 131.297C106.053 130.937 106.254 130.446 106.262 129.93C106.042 126.534 105.912 123.16 105.632 119.764ZM71.8323 118.962C72.7263 117.612 73.5379 116.203 74.2623 114.744L75.2623 113.415H75.4223C80.1323 114.469 84.8123 115.872 89.4223 117.159C93.5723 118.308 98.0123 119.268 101.952 121.093H102.022C102.022 121.725 102.132 122.358 102.182 123.001C102.09 124.525 102.14 126.055 102.332 127.568C92.1223 125.954 81.7923 122.105 71.8323 118.962V118.962Z" stroke="#3C3C3C" stroke-opacity="0.75" stroke-miterlimit="10"/>
<path d="M111.992 27.3049C112.447 27.4012 112.919 27.3132 113.314 27.0586C113.709 26.804 113.999 26.4014 114.125 25.9313C114.252 25.4612 114.205 24.9582 113.995 24.5227C113.785 24.0872 113.427 23.7513 112.992 23.582C112.538 23.4857 112.066 23.5737 111.671 23.8283C111.275 24.0829 110.986 24.4855 110.859 24.9556C110.733 25.4257 110.779 25.9287 110.989 26.3642C111.2 26.7997 111.558 27.1356 111.992 27.3049V27.3049Z" stroke="#3C3C3C" stroke-opacity="0.75" stroke-miterlimit="10"/>
<path d="M67.8322 27.1149C68.5622 29.762 69.4021 32.388 70.3321 34.9402C70.4636 35.4324 70.7695 35.8525 71.1864 36.1135C71.6033 36.3746 72.0994 36.4567 72.5721 36.3428C73.0436 36.216 73.4483 35.8973 73.6975 35.4565C73.9468 35.0158 74.0204 34.4888 73.9021 33.991C72.9621 31.4177 72.1288 28.8058 71.4021 26.1552C70.7421 23.7717 67.1622 24.6998 67.8322 27.1149Z" stroke="#3C3C3C" stroke-opacity="0.75" stroke-miterlimit="10"/>
<path d="M77.452 36.6594C78.542 38.8846 81.762 37.0074 80.672 34.7821L76.842 26.9252C75.752 24.6999 72.532 26.5771 73.622 28.7919C74.902 31.4179 76.172 34.0439 77.452 36.6594Z" stroke="#3C3C3C" stroke-opacity="0.75" stroke-miterlimit="10"/>
</svg>
