<svg width="94" height="91" viewBox="0 0 94 91" fill="none" xmlns="http://www.w3.org/2000/svg">
<path d="M1.6547 32.969C-2.47911 49.2164 1.14074 63.5494 12.4213 75.5751C12.7152 75.8858 13.0143 76.1964 13.3138 76.4955C19.3731 82.5553 26.9208 86.2965 32.9015 88.9002C35.468 90.0211 48.6389 91.3823 52.2021 90.8516C73.3795 87.689 87.316 75.7448 92.1698 55.7618C93.0967 51.8474 93.5584 47.8372 93.5451 43.8147C93.5679 34.3383 89.5778 23.3217 81.3497 15.0712C80.5027 14.3708 79.6585 13.6453 78.8423 12.9421C77.0717 11.4203 75.242 9.8445 73.3277 8.50037C58.704 -1.79185 43.51 -1.84935 28.1687 3.60863C14.2794 8.54709 5.36045 18.4272 1.6547 32.969ZM28.2282 8.47356C41.6887 2.88021 55.1942 1.89307 68.3664 10.2705C70.7751 11.8039 77.1959 16.9936 78.207 17.7731L78.2721 17.821L78.3256 17.8801C83.4645 23.3301 89.349 33.2941 89.2192 43.5376C89.1764 47.9174 88.5835 52.2745 87.4546 56.5065C84.1082 68.668 76.1089 77.5314 62.9987 83.594C49.6712 89.9756 30.5578 83.5241 25.4724 80.167C19.8515 76.3242 14.9332 71.5434 10.9326 66.0336C4.65843 57.1502 3.25039 44.3818 6.6199 32.7091C8.19804 27.3194 10.9558 22.3483 14.6932 18.1565C18.4307 13.9647 23.054 10.6571 28.2282 8.47356Z" fill="#231F20"/>
<path d="M90.3148 45.7439C90.3148 69.7119 70.8848 89.1419 46.9168 89.1419C22.9487 89.1419 3.51876 69.7119 3.51876 45.7439C3.51876 21.7758 22.9487 2.34583 46.9168 2.34583C70.8848 2.34583 90.3148 21.7758 90.3148 45.7439Z" fill="#C4CFFC"/>
<path d="M55.5412 24.6819C52.5663 23.0173 49.201 22.193 45.8001 22.2957C42.8432 22.2051 39.8984 22.7157 37.1414 23.7971C34.5862 24.8218 32.7152 26.209 31.4233 28.0376C30.9849 28.6914 30.6849 29.4292 30.5421 30.2051C30.3701 31.0773 30.6833 31.7137 31.402 31.9512C32.2347 32.2262 32.7612 31.6864 33.2067 31.0624L33.3654 30.8395C33.86 30.141 34.3715 29.4189 35.0164 28.9378C36.0111 28.2023 37.0979 27.6026 38.2484 27.1543C40.7118 26.1942 43.4365 25.886 46.8232 26.1858C49.1686 26.3933 51.1495 26.938 52.8787 27.8508C55.35 29.1553 56.9252 30.8105 57.6945 32.9111C58.7836 35.8873 58.1829 38.2753 55.9087 40.0088C54.6111 40.9512 53.2543 41.8079 51.8469 42.5735L51.7811 42.6112C51.101 43.0006 50.3777 43.3486 49.6782 43.6852C49.1868 43.9218 48.6782 44.1668 48.1856 44.4251C44.8011 46.2 42.4741 48.5438 41.0716 51.5901C40.7141 52.3325 40.4602 53.121 40.3174 53.9335C40.2156 54.5547 40.2423 55.1904 40.3957 55.8007C40.5492 56.4108 40.826 56.9825 41.209 57.4799C41.5901 57.9882 41.9824 58.0975 42.2446 58.0992H42.2523C42.4366 58.0918 42.6166 58.0413 42.778 57.9511C42.9394 57.8612 43.0776 57.7343 43.1817 57.5808C43.3839 57.3197 43.5895 57.0606 43.7959 56.8017C44.3396 56.116 44.9016 55.4071 45.3957 54.6637C46.9397 52.3382 49.0394 50.4395 52.0035 48.6882C53.8362 47.6387 55.6144 46.495 57.3311 45.2619C58.5355 44.3752 59.6173 43.3308 60.5477 42.1559C62.4976 39.6622 63.1426 36.8155 62.4644 33.6946C61.6239 29.835 59.2947 26.8033 55.5412 24.6819Z" fill="#231F20"/>
<path d="M41.4587 69.154C41.6688 69.1855 41.8809 69.2013 42.0933 69.2011C43.1221 69.1887 44.1205 68.8483 44.9457 68.2291C45.771 67.6098 46.3808 66.7431 46.6878 65.7532C46.8731 65.0014 46.8846 64.2169 46.7212 63.4599C46.5577 62.7032 46.2238 61.9942 45.7453 61.3883C45.3816 60.8894 44.9031 60.4874 44.3509 60.2169C43.7988 59.9461 43.1895 59.8151 42.5759 59.8347C41.7604 59.8374 41.6268 59.8944 40.2858 60.6848C39.3539 61.2067 38.6257 62.0328 38.2207 63.0269C37.8158 64.0212 37.7581 65.1248 38.0572 66.1565C38.5572 67.882 39.702 68.8905 41.4587 69.154ZM42.0157 62.5649C42.0894 62.664 42.1631 62.7572 42.2343 62.8491C42.4493 63.0918 42.6256 63.3668 42.7569 63.6643C42.9075 64.0807 42.9392 64.5312 42.8483 64.965C42.7692 65.1768 42.613 65.3502 42.4115 65.45C42.1438 65.6244 41.823 65.6967 41.507 65.6536C41.3446 65.6098 40.8506 65.4758 40.8843 64.4998C40.9204 63.4562 41.2514 62.882 42.016 62.5632L42.0157 62.5649Z" fill="#231F20"/>
</svg>
