<svg width="100%" height="100%" viewBox="0 0 317 87" fill="none" xmlns="http://www.w3.org/2000/svg">
<path d="M246.752 8.02496C246.527 8.07891 246.124 8.35685 246.124 8.12533C246.124 7.871 246.254 7.58384 246.045 7.35632C246.01 7.31759 245.955 7.29882 245.902 7.29533C244.871 7.22679 244.307 7.25834 243.994 7.34922C243.009 7.63534 242.535 8.42862 241.534 8.20488C239.983 7.85838 238.679 7.36996 237.409 7.40191C237.394 7.40229 237.38 7.40919 237.369 7.41971C237.32 7.46657 236.794 7.67928 236.727 7.66617C234.307 7.18836 230.288 7.67397 227.679 6.93525C227.486 6.88058 227.264 6.8567 227.109 6.98402C227.073 7.01355 227.047 7.04308 227.026 7.07261C227.185 6.8983 227.297 6.72731 227.372 6.56323C227.568 6.13228 227.133 5.7749 226.663 5.71151C225.853 5.60202 225.166 5.41516 224.711 5.5947C224.58 5.64608 224.791 5.80839 224.928 5.83493C225.109 5.8698 224.872 6.08665 224.691 6.05447L224.364 5.99647C224.309 5.98668 224.25 6.00021 224.205 6.03373C223.849 6.29999 223.943 6.42026 224.231 6.48437C225.348 6.7328 225.242 6.83887 224.109 6.67731C221.989 6.37501 219.82 6.02011 218.221 6.16547C218.108 6.17571 217.98 6.25924 218.036 6.35764C218.171 6.59364 218.921 6.67153 219.635 6.72084C219.876 6.73751 222.264 7.04214 222.505 7.01805C222.719 6.99658 222.716 7.26654 222.689 7.4804C222.652 7.76849 224.843 7.18403 223.315 8.20254C223.229 8.25977 223.122 8.29435 223.019 8.29994C219.172 8.509 218.38 7.96677 214.968 8.06877C214.317 8.08822 213.53 8.01466 213.696 7.38534C213.798 6.99958 213.112 6.88865 212.715 6.84609C207.321 6.26738 208.258 8.93203 204.167 7.9958C204.003 7.9583 203.839 7.90017 203.694 7.81554C202.744 7.26201 202.175 6.43579 199.701 6.74454C199.439 6.77726 199.346 7.10153 199.545 7.27576C199.761 7.46526 199.629 7.81642 199.341 7.80742C197.399 7.74652 197.116 7.25433 196.249 7.02316C195.394 6.79516 196.878 7.36945 196.003 7.5041C193.38 8.2031 193.859 7.1482 192.255 6.97046C191.959 6.9377 191.683 7.10869 191.542 7.37029C191.396 7.63915 191.112 7.80363 190.806 7.79259C186.877 7.65063 182.605 7.15148 178.282 6.94868C177.807 6.92636 177.499 7.51955 177.039 7.64281C176.992 7.65549 176.854 7.68006 176.805 7.67676C171.02 7.28571 164.517 7.71192 158.805 8.17863C157.911 8.25171 157.011 8.15063 156.156 7.87802L155.174 7.56484C155.153 7.55823 155.118 7.55492 155.096 7.55566C154.863 7.56362 153.818 8.18224 153.629 8.04559C153.428 7.89976 154.24 7.4849 153.508 7.28623C153.482 7.27918 153.453 7.27508 153.426 7.27427C152.112 7.23473 151.717 7.70949 152.532 7.93559C148.501 7.3191 141.124 6.60678 136.701 7.31158C136.609 7.32629 136.604 7.45328 136.694 7.47749C136.789 7.50289 136.775 7.63295 136.676 7.63611C133.79 7.72907 133.195 6.19935 130.392 6.72224C130.34 6.73194 130.338 6.80437 130.39 6.81524C130.446 6.82708 130.44 6.90897 130.383 6.91127C123.654 7.17923 116.319 6.6524 110.876 7.43277C110.047 7.5517 109.131 7.34388 108.296 7.27823C107.794 7.23882 107.198 7.24618 106.573 7.26667C103.686 7.36127 99.67 7.23225 96.8193 7.69888C95.962 7.83921 94.7767 7.97761 92.7947 8.13865C91.2982 8.21014 90.5286 7.31936 88.8023 7.0843C88.6106 7.0582 88.4422 7.20439 88.4287 7.39736C88.4131 7.62083 88.1937 7.77176 87.9795 7.70646L86.4576 7.24269C85.9984 7.10278 85.5008 7.17434 85.0997 7.43798L84.3522 7.92927C84.321 7.94976 84.2837 7.95873 84.2466 7.95464L84.041 7.93198C83.8691 7.91302 83.9471 7.37843 83.9286 7.20647C83.9235 7.15848 83.8909 7.17056 83.8429 7.16505C82.2675 6.98421 80.3424 7.16433 78.9078 7.43053C77.6677 7.66064 75.8762 8.02091 74.6208 7.89934L72.3223 7.67675C71.3391 7.58154 71.2496 7.87203 72.2135 8.08788C68.8918 7.3673 71.101 8.64771 68.943 8.32262C68.727 8.29009 68.1835 7.81536 68.0142 7.67747C67.9293 7.6083 67.8224 7.57784 67.7161 7.60436C66.069 8.01541 62.7142 8.02953 60.0647 7.86178C59.9256 7.85297 59.8504 8.02266 59.9504 8.11968C60.0454 8.21176 59.9828 8.37245 59.8506 8.37515C54.8878 8.47643 49.4118 8.11327 43.8834 8.11327C45.7366 7.88194 45.5128 7.08138 44.1897 6.88367C43.9304 6.84492 43.6773 6.96638 43.5151 7.1724C43.2805 7.47041 42.7471 7.43059 43.1093 7.31788C43.4388 7.21533 43.8801 7.14265 42.9905 6.84817C42.7652 6.77357 42.5252 6.74452 42.2892 6.76929C40.6172 6.94469 41.2921 7.69888 42.4271 7.96098L40.0053 7.6992C39.9065 7.68851 39.7954 7.70207 39.8199 7.79844C39.8833 8.04681 39.9001 8.24387 39.6438 8.24993C38.2588 8.28266 35.9232 8.97614 34.6485 8.40028C34.5572 8.35905 34.4463 8.3894 34.3986 8.47746C34.3677 8.53456 34.3066 8.57014 34.2417 8.5701C29.8991 8.5674 27.3735 8.40001 24.3094 8.30192C22.6976 8.25031 20.6941 7.75364 19.1245 7.3837C18.643 7.27021 17.9617 7.1118 17.4684 7.14848C15.9926 7.25819 14.4566 7.42847 12.8605 7.58025C11.9262 7.65639 10.9645 7.73254 9.97527 7.78329C9.72796 7.78329 9.48066 7.80868 9.23335 7.80868H9.041H8.95857H8.93109H8.82118C8.56684 7.80868 8.31176 7.76829 8.0819 7.65944C7.83476 7.5424 7.68208 7.43441 7.58466 7.32642C7.44698 7.19925 7.40511 7.05437 7.09101 6.8918C7.03268 6.86161 6.97547 6.94643 6.9798 7.01196C6.9805 7.02258 6.98282 7.02677 6.98783 7.03615C7.20254 7.43746 7.31116 7.83675 7.41979 8.0625C7.45022 8.13277 7.48065 8.18748 7.51342 8.22771C7.61509 8.35252 7.83196 8.4853 7.83196 8.64629C7.83196 8.68978 7.83196 8.75191 7.81467 8.80074C7.80912 8.81644 7.80448 8.83268 7.80448 8.84933V8.9001V9.05239C7.80448 9.15392 7.80448 9.25545 7.80448 9.38235C7.777 10.22 7.74953 10.9814 7.69457 11.7936C7.62527 13.1379 7.49771 14.5898 7.29557 16.7224C7.26303 17.0656 6.80384 16.7517 6.55783 16.9933C6.51772 17.0327 6.50956 17.0769 6.5052 17.1329C6.44488 17.9083 6.65794 18.8089 6.90409 19.1386C7.01478 19.2868 7.17505 19.1541 7.22744 18.9767C6.18327 25.4237 9.28831 33.8251 7.80448 38.9522C7.81181 38.9274 7.84885 38.9355 7.84513 38.9611L7.12272 43.942C7.11927 43.9658 7.11818 43.9925 7.11932 44.0165C7.13926 44.434 7.16855 44.6564 7.20567 44.7498C7.65031 45.8696 7.93093 44.9437 7.77561 46.1384C7.28478 49.914 7.83672 52.6597 7.70739 55.789C7.6449 57.3009 7.93769 58.8365 8.18922 60.3287C8.90631 64.5828 7.6322 71.4775 8.56608 75.642C8.59705 75.7801 8.44842 75.8923 8.32519 75.8228C8.23949 75.7744 8.13009 75.815 8.10177 75.9093C7.94948 76.416 8.00482 76.754 8.12069 77.0551C8.32908 77.5966 8.15792 76.9635 7.89496 77.4807C7.86182 77.5459 7.82971 77.6711 7.82539 77.7441C7.80027 78.1679 7.777 78.6097 7.777 79.0301V79.2078V79.2585V79.3601L7.74953 79.5631C7.7028 80.0379 8.10906 80.4342 8.58568 80.4139C8.6651 80.4105 8.74378 80.4062 8.82118 80.4007H8.95857H9.01353H9.20587L10.1401 80.3753C10.7721 80.35 11.3767 80.3246 12.0087 80.3246C14.5092 80.2484 17.0097 80.1215 19.5102 79.9946C24.5387 79.7408 29.5673 79.4362 34.5133 79.2585C38.7378 79.1366 37.1527 81.4049 41.9217 80.637C42.1265 80.604 42.1723 80.3326 41.9894 80.2348C41.7751 80.1202 41.8776 79.7874 42.1195 79.8104C50.3588 80.5945 58.8935 79.7547 66.9553 80.4342C67.076 80.4444 67.2386 80.2465 67.1295 80.1938C67.0213 80.1416 66.9091 79.9315 67.0279 79.9134C68.5966 79.6752 71.1019 79.882 72.3548 80.1782C72.8241 80.2892 73.8228 80.7372 73.8817 80.2585C73.8992 80.1168 73.8382 79.9469 74.2744 79.8169C76.1154 79.4616 78.8907 80.6038 79.8525 79.9946C80.0173 79.8931 79.3304 79.7916 79.0006 79.7408C80.177 80.0371 87.1908 80.315 88.4027 80.3679C89.6641 80.4229 90.8661 80.4569 92.002 80.3086C92.1608 80.2878 92.321 80.3127 92.4729 80.3636C93.1052 80.5756 93.955 80.5859 94.8136 80.5569C95.3915 80.5373 101.143 80.1873 101.722 80.1903C102.767 80.1959 103.885 80.2737 104.804 80.3949C104.979 80.4179 106.947 80.188 107.105 80.1114C107.241 80.046 107.475 79.7973 107.625 79.8008C108.319 79.8172 108.98 79.8513 109.543 79.9087C110.184 79.9741 112.496 80.276 113.138 80.218C116.17 79.9443 119.078 80.9845 121.164 80.4636C121.954 80.2662 122.753 79.9833 123.565 80.0523C128.525 80.4739 133.214 80.804 137.775 81.0427C139.923 81.1552 139.711 80.6607 137.562 80.5831C135.901 80.5231 136.564 80.0144 138.215 80.2034C142.53 80.6975 145.724 81.3169 150.609 81.086C150.997 81.0476 151.358 80.5334 151.747 80.5484C156.314 80.7243 160.654 80.4431 164.82 80.7918C165.385 80.839 165.431 80.6815 164.87 80.6038C165.446 80.6178 166.121 80.5624 166.594 80.5991C167.032 80.6331 166.838 80.9082 166.404 80.8431C166.246 80.8194 166.071 80.8293 165.95 80.9338C165.505 81.3182 166.768 81.7091 168.072 82.0485C168.699 82.2116 171.381 81.8834 172.024 81.8062C172.659 81.7299 173.266 81.6429 173.483 81.4353C173.695 81.2318 173.808 80.7191 174.065 80.8617C174.096 80.8786 174.124 80.896 174.149 80.9138C174.284 81.0074 174.657 81.1719 174.817 81.139C175.061 81.0891 175.796 80.618 176.042 80.6541C177.983 80.9378 177.578 81.3163 180.188 81.3153C180.301 81.3153 180.422 81.2841 180.345 81.201C180.192 81.0351 180.144 80.9026 180.363 80.9603C181.587 81.2829 182.928 81.5455 184.759 81.4905C185.097 81.4804 185.295 81.086 184.957 81.086C189.022 81.149 192.073 82.0093 196.05 82.0339C196.942 82.0394 199.337 81.2843 200.197 81.0488C200.303 81.02 200.4 80.9855 200.485 80.9436C200.738 80.8195 201.015 80.6234 201.295 80.6505L203.16 80.831C203.296 80.8442 203.322 81.0313 203.195 81.0816C203.061 81.1347 203.1 81.3449 203.244 81.3506C205.263 81.4293 207.111 81.886 208.892 81.7613C209.011 81.753 209.017 81.5993 208.9 81.5758C208.771 81.5499 208.794 81.3591 208.925 81.364L210.575 81.4257C210.759 81.4326 210.772 81.7007 210.589 81.7248C210.42 81.7471 210.407 82.0339 210.559 82.1106C210.81 82.2364 210.866 82.3637 210.887 82.4758C210.937 82.7484 214.375 82.6486 214.651 82.6219C215.305 82.5585 215.989 82.456 216.477 82.2808C216.565 82.2489 216.661 82.2401 216.753 82.2621C217.893 82.5357 219.072 82.7932 220.692 82.6457C220.919 82.625 221.205 82.5414 221.189 82.314C221.144 81.6866 221.313 81.5722 221.933 81.6778C223.797 81.995 227.174 81.7462 228.455 82.4313C228.361 82.3946 228.283 82.3489 228.219 82.2979C227.855 82.0075 228.32 81.7965 228.718 82.0381L228.84 82.1121C229.017 82.2197 229.227 82.2607 229.431 82.2222C229.694 82.1726 229.889 82.1273 230.03 82.0787C230.338 81.9728 230.636 81.5525 230.961 81.5636C233.055 81.6351 229.729 82.6444 232.955 82.2983C233.018 82.2916 233.139 82.1922 233.084 82.162C233.028 82.1308 232.932 81.974 232.997 81.9708C236.87 81.7807 240.515 82.3508 244.107 82.129C244.364 82.1131 244.796 82.0051 244.679 81.7753C244.583 81.5866 243.989 81.5506 243.406 81.5237C242.349 81.475 243.005 81.0739 244.061 81.132C249.162 81.4129 254.503 82.1809 259.395 81.9744C258.914 82.0225 258.753 82.5062 259.236 82.5439C260.574 82.6486 263.013 81.5596 265.138 82.0505C265.043 82.0359 264.957 82.0102 264.881 81.9774C264.381 81.7634 264.745 81.4197 265.288 81.4029C268.642 81.2992 272.203 81.7732 277.142 82.1659C277.246 82.1742 277.287 82.0338 277.194 81.9858C277.111 81.9429 277.131 81.8202 277.224 81.8093C279.387 81.5566 282.695 81.6605 284.926 81.5225C284.978 81.5193 285.044 81.5376 285.092 81.5586C285.393 81.6905 287.767 81.9542 288.092 81.9001C294.029 80.9112 299.539 82.8171 304.908 82.0411C305.149 82.0062 305.067 81.416 305.312 81.416L308.059 81.5683L309.433 81.6444L310.093 81.6952C310.324 81.7219 310.496 81.9817 310.303 82.1126C310.249 82.1493 310.188 82.1761 310.12 82.2028C309.989 82.2431 309.82 82.2763 309.608 82.3325C309.347 82.4017 309.34 82.7325 309.598 82.812C309.736 82.8374 309.873 82.8881 310.01 82.9135C310.148 82.9389 310.285 82.9643 310.45 83.0151C310.589 83.0384 310.735 83.0603 310.885 83.0803C311.033 83.1 311.325 82.628 311.439 82.5328C311.594 82.4043 311.827 82.2757 312.035 82.1607C312.215 82.0617 312.58 82.1233 312.742 82.2485C312.757 82.2599 312.772 82.2713 312.786 82.2827C312.898 82.3713 313.108 82.3784 313.229 82.3021C313.319 82.2453 313.342 82.1536 313.328 82.0481C313.27 81.5969 313.589 81.8247 313.885 81.8475C314.05 81.8475 314.187 81.7967 314.269 81.5175C314.321 81.2572 314.324 80.7763 314.191 80.0953C314.176 80.0175 314.088 79.9761 314.012 79.999C313.926 80.0249 313.849 79.9459 313.867 79.8578C313.909 79.6411 313.952 79.4244 313.995 79.2078C314.05 78.8778 314.132 78.5478 314.187 78.2179C314.266 77.7455 314.33 77.2602 314.351 76.7618C314.366 76.3805 314.13 75.834 313.954 76.1726C313.577 76.8984 313.457 76.9447 313.65 76.15C313.887 75.1782 314.226 74.227 314.289 73.3023C314.321 72.8367 313.917 72.8525 313.869 73.3167C313.821 73.7769 313.28 73.8361 313.155 73.3905C312.911 72.517 312.993 72.0924 312.896 71.0348L312.923 71.1871L312.625 68.4971C312.617 68.4189 312.73 68.3971 312.751 68.4729C312.765 68.5241 312.832 68.5354 312.863 68.4921C314.666 65.961 313.16 63.3219 314.379 59.9176C314.25 60.2853 314.14 60.5791 314.047 60.811C313.611 61.8954 312.71 57.8745 312.154 58.9023C312.755 57.4216 311.826 56.3838 312.386 54.4626C312.48 54.1371 312.474 53.6975 312.436 53.3607C312.381 52.8769 312.086 51.4497 312.253 51.9072C312.32 52.0936 312.392 52.3541 312.468 52.5532C312.56 52.7934 312.745 52.6968 312.797 52.4448C313.457 49.2143 311.653 44.9608 312.841 40.4497C313.358 36.4247 314.253 35.6659 314.697 31.9708C314.705 31.906 314.675 31.7759 314.647 31.7169C314.448 31.2933 313.494 31.3541 313.468 30.8865C313.425 30.0899 313.455 29.3309 313.54 28.5257C313.569 28.2596 313.117 27.1038 312.998 26.8644C312.979 26.8261 312.952 26.7451 312.955 26.7024C313.052 25.3391 313.813 25.6425 313.595 24.0883C313.573 23.9295 313.426 23.8147 313.32 23.9351C313.171 24.1044 312.659 23.9896 312.701 23.7681C312.942 22.4903 313.24 21.2081 313.423 19.8778C313.437 19.7732 313.443 19.6825 313.348 19.6359C312.986 19.4573 312.594 19.7616 312.635 19.3598C312.796 17.7763 313.014 16.1723 313.432 15.5278C313.489 15.4399 313.608 15.4763 313.629 15.5791C313.661 15.7371 313.262 16.5001 313.185 16.6416C313.143 16.7189 313.109 16.8047 313.088 16.8954C312.713 18.0843 312.93 18.8327 313.204 19.2456C313.36 19.4805 313.645 19.3505 313.679 19.0707C313.72 18.7395 314.093 18.6216 314.218 18.9313C314.859 20.5281 313.738 23.529 313.618 25.8471C313.606 26.0625 313.86 26.1664 314.013 26.0147C314.199 25.8311 314.505 26.0236 314.42 26.2705L313.854 27.9123C313.821 28.0088 313.827 28.1161 313.883 28.2019C314.102 28.542 315.094 29.0848 314.999 29.4782C314.903 29.8785 314.801 30.2285 315.097 31.0436C315.113 31.0863 315.132 31.1301 315.161 31.1651C315.245 31.2658 315.29 31.1881 315.314 31.0331L315.212 31.6211C315.161 31.9145 315.658 32.3686 315.616 32.0737C316.268 35.4355 314.799 37.5327 315.587 38.8063C315.598 38.824 315.625 38.8204 315.631 38.8003C315.639 38.7719 315.68 38.7859 315.678 38.8155C315.306 43.0359 314.852 39.287 313.954 42.3364C313.91 42.4871 313.946 42.653 314.049 42.7719L315.527 44.4835C315.742 44.7318 315.666 45.1178 315.377 45.2729C315.206 45.3646 315.102 45.5897 315.118 45.783C315.155 46.2212 315.221 47.6063 315.004 47.2238C314.951 47.1302 314.885 47.0734 314.771 47.2046C314.659 47.3334 314.659 47.5203 314.702 47.6853C315.131 49.3328 314.777 51.7045 314.959 53.1693C315.051 53.9161 315.412 54.352 314.997 53.7244C314.718 53.3032 315.079 54.8298 315.221 55.3146C315.399 55.9251 315.116 56.8073 314.989 57.7911C314.872 58.7028 315.137 57.583 315.758 58.2612C316.069 58.6013 315.876 59.4055 315.73 59.8428C315.43 60.7427 315.739 61.9875 315.968 63.1725C316.194 64.3416 315.583 65.8268 315.535 67.0165C315.511 67.5861 315.515 68.2519 315.515 68.9577C315.516 70.2706 315.737 74.0152 315.836 75.3244C315.994 77.2543 316.153 79.5605 316.287 81.1339C316.295 81.222 316.387 81.2754 316.468 81.2383C316.078 81.427 315.864 82.0907 315.74 82.9633C315.633 83.7201 314.973 84.3116 314.209 84.2873C313.11 84.2523 312.872 84.9687 313.962 85.1186C314.157 85.1454 314.369 85.1716 314.599 85.1979H312.887C311.948 85.1979 311.015 85.0219 310.093 84.8425C309.777 84.7647 309.396 84.7167 308.926 84.6756C308.753 84.6606 308.648 84.8598 308.757 84.995C308.862 85.1261 308.767 85.3192 308.599 85.3125C306.418 85.2254 304.202 84.7872 301.63 84.8266C300.412 84.8452 301.269 84.1637 300.449 83.2632C300.39 83.1987 300.301 83.137 300.175 83.0787C299.3 82.6747 298.365 83.711 299.321 83.8273C299.111 83.7949 298.687 83.6796 298.23 83.6402C298.001 83.6205 297.969 83.8673 298.184 83.9476C298.408 84.0308 298.365 84.3341 298.132 84.2872C297.721 84.2048 297.746 83.9416 297.282 83.8537C297.017 83.8036 296.756 84.0765 296.508 84.1818C296.315 84.2639 296.081 84.3053 296.001 84.411C295.93 84.5043 296.014 84.5974 296.132 84.5954C296.501 84.5892 296.544 84.6889 296.178 84.7375C295.842 84.782 295.514 84.8336 295.209 84.8916C294.769 84.9752 293.064 84.6348 292.617 84.6141C290.393 84.5945 291.009 84.9669 290.642 85.2549C290.268 85.5481 289.716 85.3608 289.243 85.3133C288.898 85.2787 288.513 85.269 288.182 85.2266C287.607 85.1529 286.766 84.714 286.322 85.0862C286.102 85.2711 285.894 85.2629 285.608 85.2284C283.719 85.0008 279.26 85.1324 280.761 84.4171C280.768 84.4135 280.778 84.4105 280.786 84.4094L280.915 84.3924C280.972 84.3849 280.972 84.3349 280.915 84.3349C280.912 84.3349 280.91 84.3347 280.907 84.3343C276.086 83.6058 270.888 84.7464 266.087 84.4446C266.02 84.4404 265.963 84.4939 265.963 84.5615C265.963 84.6305 265.904 84.6845 265.835 84.6782C263.01 84.4173 259.59 84.5025 257.55 83.9992C257.497 83.9863 257.445 83.9792 257.391 83.9809C257.369 83.9816 257.346 83.9826 257.324 83.9839C256.727 84.0178 254.522 84.5981 253.927 84.5343C253.556 84.4946 253.194 84.468 252.754 84.4699C252.275 84.472 251.992 85.0282 252.471 85.0202C250.539 85.1746 249.612 85.3986 248.264 85.316C247.813 85.2884 244.556 85.6123 244.105 85.6264C243.801 85.636 243.492 85.6352 243.203 85.6244C242.998 85.6167 242.973 85.3641 243.17 85.3036C243.375 85.2404 243.339 84.9546 243.124 84.9502C242.223 84.9319 241.379 84.9632 240.546 84.9964C240.304 85.006 240.182 85.2924 240.342 85.4733C240.491 85.6412 240.397 85.906 240.175 85.9367C235.341 86.6046 231.305 84.8229 227.514 85.35C226.268 85.5233 225.685 85.4637 226.926 85.2509C227.782 85.1039 226.952 84.7149 226.093 84.8458C223.869 85.1848 221.78 86.0355 221.091 86.0355C218.893 86.3062 218.084 85.8194 216.989 85.4464C216.219 85.1841 212.668 83.8041 211.858 83.7257C209.165 83.8273 208.533 84.9948 210.237 85.2233C210.715 85.2417 211.692 85.0873 212.16 85.1846C212.531 85.2616 212.715 85.3643 212.368 85.5178C212.224 85.5815 212.058 85.5494 211.93 85.4569C211.814 85.3729 211.67 85.3436 211.529 85.3682C211.144 85.4355 210.637 85.4853 210.112 85.5302C209.511 85.5816 207.604 85.4967 208.203 85.4263C205.144 85.8076 203.264 85.5348 200.404 85.6589C200.247 85.6657 199.897 85.2233 199.74 85.2233C195.389 85.5406 196.687 84.9235 195.189 84.6357C194.337 84.4721 193.676 84.7235 193.002 85.2686C192.927 85.3287 192.737 85.3555 192.26 85.3307C191.442 85.288 189.568 84.9624 189.992 85.6638C190.127 85.8878 190.926 86.1151 191.442 86.2639C189.072 85.8372 186.922 86.2377 185.207 86.5237C184.999 86.5584 184.996 86.969 185.204 87C184.401 86.8796 183.7 86.8544 183.021 86.8616C182.874 86.8632 182.816 86.6683 182.942 86.5912C183.071 86.5112 183.003 86.3062 182.851 86.3185C182.548 86.3432 182.28 86.365 182.073 86.397C181.833 86.434 181.28 86.5061 181.283 86.2634C181.288 85.9322 181.8 85.5434 180.668 85.1614C180.474 85.096 180.265 85.0981 180.062 85.1225C179.964 85.1342 179.861 85.1428 179.754 85.1489C178.001 85.2487 177.184 86.43 178.939 86.4924C178.256 86.3914 177.41 86.3908 176.427 86.5157C176.417 86.517 176.407 86.52 176.398 86.5262C176.327 86.5773 176.353 86.7976 176.266 86.8098C173.088 87.2599 174.668 85.8974 171.133 85.8344C171.01 85.8322 170.902 85.9263 170.886 86.049C170.864 86.2141 169.574 85.8947 169.422 85.8271C169.153 85.7074 168.81 85.5954 168.423 85.5103C168.4 85.5051 168.374 85.5042 168.35 85.5073C165.692 85.8522 165.468 85.2488 164.073 85.274C164.663 85.2177 164.728 84.7756 164.137 84.7291C163.737 84.6976 163.276 84.6775 162.764 84.6478C162.246 84.6176 162.122 84.8182 162.639 84.8713C162.696 84.8772 162.752 84.8825 162.803 84.8877C163.091 84.9166 162.777 84.9311 162.496 84.8671C160.75 84.4698 158.634 85.4619 156.327 85.3805C155.669 85.3572 154.659 85.1788 154.614 85.836C154.604 85.97 154.603 86.0978 154.414 86.1975C154.17 86.3258 153.876 86.2869 153.604 86.2475C150.905 85.8564 150.401 86.7863 147.618 86.5057C147.44 86.4878 147.391 86.2655 147.544 86.173C147.744 86.0516 147.954 85.5625 148.187 85.5805L149.261 85.6631C149.485 85.6803 149.537 85.3576 149.319 85.3039C149.11 85.2522 149.146 85.0005 149.361 85.0191C150.275 85.0982 151.153 85.2145 151.839 85.2367C151.967 85.2409 151.539 84.969 151.417 84.93C151.28 84.8864 150.394 84.6849 150.25 84.6914C148.559 84.7677 146.834 84.0895 144.917 84.3793C144.664 84.4176 144.492 84.6487 144.506 84.9042L144.521 85.1873C144.545 85.6265 144.235 86.0165 143.797 86.0621C140.139 86.4433 137.083 85.2225 132.199 85.5786C132.853 85.4795 132.896 85.0273 132.234 85.0295C131.51 85.032 130.664 85.0874 129.881 85.0673C129.454 85.0564 128.948 85.3415 128.563 85.526C128.142 85.7275 126.749 85.8062 126.283 85.7809C125.67 85.7477 124.895 85.7174 124.251 85.6033C123.467 85.464 122.487 85.1789 121.72 85.3955L120.918 85.6223C120.781 85.6607 120.639 85.6855 120.498 85.6929C116.72 85.8889 115.921 84.4457 112.501 84.4024C112.339 84.4003 112.23 84.621 112.288 84.7725C112.355 84.9492 112.058 85.7128 111.87 85.6939C111.716 85.6785 111.59 85.6544 111.5 85.6177C111.388 85.5721 111.228 85.4897 111.108 85.5018C110.344 85.5784 108.723 85.1604 107.471 85.1174C106.736 85.0921 106.028 84.9582 105.336 84.7063C105.052 84.6026 104.67 84.5307 104.094 84.5375C104.073 84.5377 104.033 84.5563 104.019 84.5721C103.949 84.6487 103.936 84.6895 103.837 84.6597C103.276 84.4905 101.931 84.3538 103.017 83.9034C99.076 85.3882 92.2001 83.9809 88.3893 84.9255C87.9533 85.0336 87.5078 85.1075 87.0594 85.0818C84.4917 84.9349 81.5534 84.8117 79.1833 84.7743C78.9635 84.7709 78.8643 84.9907 79.0831 84.9695C75.5292 85.4072 76.6915 83.6783 73.0986 84.0011C72.7679 84.0308 72.4255 84.0904 72.142 84.2633C71.6692 84.5515 72.442 84.6032 73.0733 84.6321C73.6752 84.6596 73.3736 85.2228 72.7953 85.3919C71.3504 85.8145 68.1759 84.8363 65.8934 85.437C65.8158 85.4574 65.8243 85.5623 65.9036 85.574C65.9862 85.5862 65.9903 85.6932 65.908 85.7067C63.8135 86.0507 60.9492 85.0526 57.702 85.115C57.6122 85.1168 57.5653 85.234 57.5325 85.3175C57.5204 85.3484 57.4673 85.3693 57.4359 85.3587C55.3875 84.6639 51.8341 84.3579 48.7579 84.143C48.3421 84.114 48.4338 84.5329 48.1623 84.8492C48.086 84.9382 47.9351 85.0179 47.8192 85.0012C46.7303 84.8444 48.1214 84.0705 45.8897 83.8178C45.5834 83.7832 45.2733 83.8322 44.9764 83.9151C44.2492 84.1181 43.2526 84.3242 42.5926 84.6226C42.2191 84.7915 42.3836 85.1511 42.7936 85.1548C43.3707 85.1599 43.4408 85.5945 42.8641 85.5733C41.8054 85.5345 40.6836 85.2506 39.7773 85.2852C39.6755 85.2891 39.6152 85.3961 39.6588 85.4882C39.7059 85.5876 39.6284 85.7016 39.5184 85.6975C35.4761 85.5461 35.2322 84.6416 30.9575 84.6376C30.8529 84.6375 30.8116 84.4993 30.9007 84.4444C30.9735 84.3996 30.9619 84.2907 30.8813 84.2621C28.7438 83.5056 28.8024 84.6153 26.9793 84.3083C26.5789 84.2409 26.1616 84.3672 25.9125 84.6878C25.6919 84.9715 25.3363 85.1145 24.9811 85.0597C23.6202 84.8501 21.3997 84.4982 19.2403 84.2417C18.7039 84.178 18.6156 84.6169 19.145 84.7241C19.3647 84.7685 19.5883 84.8115 19.8143 84.8531C20.3115 84.9447 20.2607 85.4708 19.7568 85.43C19.4291 85.4035 19.1167 85.3724 18.8314 85.3362C18.5541 85.301 18.6025 85.2139 18.8811 85.2362C19.1278 85.2559 19.1344 85.0036 18.898 84.9304C17.5007 84.4978 15.8366 84.2241 13.926 84.1029C12.727 84.0269 10.8242 84.9298 9.62948 85.0561C9.58054 85.0613 9.53093 85.0662 9.48066 85.071C9.39822 85.071 9.31579 85.0964 9.23335 85.0964C9.15092 85.0964 9.06848 85.1217 8.93109 85.1217C8.65631 85.1217 8.38153 85.1471 8.10674 85.1471C7.5297 85.1725 6.92518 85.1725 6.32066 85.1979C4.15633 85.2404 2.43631 83.5256 2.11368 81.385C2.06007 81.0293 1.99804 80.6937 1.92611 80.3827C1.75995 79.6642 1.64174 78.9245 1.73179 78.1925C1.75927 77.8372 1.78674 77.5072 1.81422 77.1518C1.86918 76.4665 1.86918 75.7812 1.89666 75.0959C1.89666 73.7253 1.8417 72.3293 1.75927 70.9079C1.62246 68.9041 1.45786 66.8233 1.39397 64.638C1.36859 63.7696 2.09493 61.7879 2.32189 60.9493C2.46768 60.4107 3.14748 59.9442 3.16748 59.3865C3.18104 59.0083 3.17737 58.7415 3.15941 58.5577C3.13831 58.3418 3.05366 58.1332 3.00603 57.9216L2.12275 53.9965C2.08205 53.8156 2.0515 53.6119 1.91377 53.4878C1.73808 53.3296 1.67853 53.8329 1.60546 54.3049C1.52966 54.7946 1.3128 54.6891 1.26707 54.1957C1.09514 52.3411 0.685067 53.1296 0.319692 52.0575C0.249335 51.8511 0.551423 51.486 0.647928 51.2904C0.737743 51.1084 0.802113 50.8341 0.839233 50.4959C0.862105 50.2875 1.31135 50.2163 1.37053 50.4174C1.421 50.5889 1.6601 50.5732 1.68555 50.3962C2.19601 46.8478 0.496228 46.8563 0.905365 43.4184C0.915644 43.3321 0.770212 43.292 0.740687 43.3738C0.712063 43.4532 0.578344 43.4253 0.584625 43.3412C0.771646 40.8374 0.652184 35.9053 1.60619 33.488C1.74701 33.1312 1.82846 32.6544 1.50039 32.4557C1.32889 32.3518 1.16027 32.4402 1.09979 33.0128C0.910955 27.4561 2.47001 20.7007 1.74708 16.301C1.72989 16.1964 1.60269 16.1575 1.52704 16.2318C1.43844 16.3187 1.29709 16.2478 1.32317 16.1264C1.47903 15.401 1.82187 14.7813 1.74483 13.9444C1.71492 13.6194 1.27304 13.727 1.20007 13.4089C1.18815 13.3569 1.18846 13.2404 1.20128 13.1887C1.34314 12.6161 1.75078 10.9659 1.70696 9.66418C1.70132 9.49664 1.49538 9.47098 1.43426 9.62707C1.37065 9.78952 1.1331 9.75613 1.12857 9.58173C1.12772 9.54908 1.12727 9.51648 1.12727 9.48388C1.12727 9.35697 1.09979 9.23006 1.09979 9.10316V8.92548C1.09979 8.84933 1.09979 8.7478 1.09979 8.67166C1.09979 7.78329 1.09979 6.92032 1.09979 6.1081C1.18243 3.66535 3.33052 1.88012 5.76259 2.12279C6.63885 2.21022 7.4816 2.29749 8.29909 2.37697C8.5464 2.40235 8.82118 2.42773 9.06848 2.45311C9.23335 2.47849 9.39822 2.50388 9.56309 2.52926C9.89283 2.58002 10.25 2.63079 10.5798 2.68156C11.7529 2.81158 13.4027 2.13409 14.5533 1.87094C16.0951 1.51831 18.2837 1.34781 19.7029 1.24097C19.7422 1.23801 19.7638 1.19567 19.7451 1.16104C19.7257 1.12523 19.7519 1.0816 19.7926 1.08092C26.0154 0.976044 30.547 1.80548 36.0687 2.30326C37.2916 2.41351 38.5199 2.24673 39.7348 2.06878C44.3291 1.39583 52.275 1.85648 57.8699 1.26017C57.0475 1.42897 57.7063 1.91348 58.5992 2.14507C58.9668 2.24042 59.3517 2.21184 59.7315 2.21567C61.1729 2.23021 63.078 2.84689 63.1034 2.12505C63.106 2.05112 63.0365 1.99875 62.9626 2.00216C62.821 2.00871 62.7617 1.84887 62.886 1.78076C64.0954 1.11826 66.505 1.24997 68.5902 1.26118C68.9466 1.26311 69.2626 1.49406 69.367 1.83481C69.4973 2.26007 69.9466 2.49716 70.3789 2.39265C76.2042 0.984413 84.7421 2.87657 88.6619 1.90383C89.2956 1.74657 89.955 1.64786 90.6021 1.73495C91.7566 1.89032 93.022 1.95066 94.1291 2.14667C94.3243 2.18122 94.5021 2.01979 94.4793 1.82287C94.4599 1.65607 94.5873 1.50794 94.7551 1.50089C98.6118 1.33861 100.736 1.24715 105.381 1.39189C105.523 1.39629 105.571 1.2037 105.443 1.14317C105.319 1.08421 105.36 0.910934 105.497 0.922218C107.756 1.10798 108.658 2.65279 110.696 2.95908C111.117 3.02232 111.523 2.81374 111.783 2.47702C112.042 2.14198 112.443 1.94792 112.866 1.94353C117.371 1.89693 121.913 1.20612 126.38 1.79887C126.875 1.86445 127.036 1.51925 126.538 1.4886C127.379 1.47978 128.768 1.3881 130.185 1.33414C131.572 1.28133 138.88 1.93569 140.255 2.12534C141.146 2.24825 142.021 2.38514 142.762 2.50073C142.898 2.52203 142.995 2.37337 142.923 2.25599C142.841 2.12394 142.975 1.965 143.119 2.02281C144.987 2.77204 145.297 2.99369 148.155 3.2241C148.287 3.23473 148.423 3.23613 148.551 3.20242C149.101 3.05763 148.944 2.69836 147.999 2.85922C150.419 2.50252 150.065 3.39348 152.587 3.21511C152.73 3.20496 152.757 3.01332 152.623 2.96039C152.483 2.90484 152.521 2.69985 152.672 2.70005C154.586 2.70255 154.569 2.92716 155.815 3.39166C155.86 3.40881 155.908 3.4217 155.957 3.42898C156.709 3.54195 157.775 3.51594 158.761 3.39752C160.123 3.23396 162.527 3.33303 163.898 3.37406C164.14 3.38132 164.39 3.37389 164.644 3.34811C164.683 3.34408 164.721 3.3288 164.739 3.2933C164.818 3.13548 164.752 2.8203 164.928 2.80939C168.772 2.57181 170.848 3.63515 173.66 3.02446C173.695 3.01674 173.722 2.99018 173.735 2.95623C173.775 2.85363 173.7 2.58393 173.59 2.58475C171.114 2.60305 169.083 2.62217 168.383 2.6515C168.237 2.65765 168.116 2.62204 168.21 2.50876C168.392 2.28713 171.085 1.53403 171.366 1.59425C173.418 2.03416 175.802 2.451 177.671 2.25345C177.692 2.25122 177.713 2.24647 177.732 2.23864C177.837 2.19714 177.939 2.14088 178.015 2.06989C178.037 2.04852 178.026 2.0123 177.996 2.00397C177.95 1.9913 177.956 1.92815 178.003 1.9249C178.532 1.88865 179.023 1.95261 179.494 2.03785C179.527 2.04386 179.561 2.04502 179.594 2.04114C179.877 2.00843 180.128 1.97845 180.369 1.9521C181.292 1.85097 182.339 1.54928 183.267 1.51255C183.654 1.49722 184.086 1.49887 184.52 1.50631C185.581 1.5245 187.556 2.39338 186.551 2.73232C186.77 2.68155 186.276 2.65617 185.342 2.60541C185.176 2.58634 184.996 2.5816 184.858 2.55891C184.831 2.55452 184.82 2.58002 184.847 2.58002C184.255 2.56394 184.206 2.99502 184.789 2.89046C184.845 2.88046 184.901 2.86961 184.957 2.85786C185.098 2.8287 185.245 2.85088 185.368 2.92595C185.608 3.0732 185.85 3.22037 186.08 3.35743C186.747 3.75378 187.556 3.73746 188.288 3.48005C188.87 3.27505 189.507 3.09108 190.128 2.9203C192.209 2.34775 194.653 1.90933 196.808 2.02368C200.382 2.21326 204.164 2.37617 206.25 3.35142C206.307 3.37836 206.367 3.39732 206.43 3.40478C207.036 3.47629 207.377 3.36229 207.626 3.20938C207.81 3.09612 207.632 2.73331 207.417 2.71375C207.169 2.69132 207.275 2.61396 207.523 2.63174C209.771 2.79317 212.764 2.78098 213.831 3.3043C214.069 3.42105 214.339 3.5493 214.6 3.50061C216.701 3.1078 212.914 2.74113 216.305 2.84621C216.393 2.84895 216.424 2.72854 216.344 2.68998C216.273 2.65543 216.29 2.54976 216.368 2.53671C224.631 1.15955 229.894 4.94663 239.116 3.0369C238.706 3.11593 238.758 3.31131 239.175 3.28526C249.467 2.64306 260.298 4.10497 270.414 2.80846C273.131 2.55518 273.632 3.03299 275.076 3.46497C275.367 3.55178 275.678 3.45107 275.876 3.22206C276.081 2.98528 276.405 2.88895 276.706 2.97511L279.317 3.72221C283.65 4.36849 286.823 1.9475 292.191 2.99149C292.323 3.01701 292.359 3.1865 292.25 3.26393C292.125 3.35313 292.193 3.55642 292.346 3.55448C293.656 3.53798 295.522 3.64304 296.711 3.606C297.087 3.59428 298.668 3.69225 299.038 3.62769C299.063 3.62329 299.089 3.61816 299.115 3.61224C299.209 3.59088 299.275 3.50941 299.287 3.41405C299.306 3.27601 299.433 3.17943 299.571 3.19865L303.77 3.78362C304.082 3.82716 304.404 3.84151 304.718 3.80405C307.672 3.45078 303.893 2.24655 309.213 2.17392C310.899 2.29846 313.779 3.00013 314.336 3.4044C314.503 3.52527 314.22 3.62179 314.014 3.63814C313.724 3.6613 313.404 3.70458 313.112 3.76718C312.491 3.90001 312.647 4.33639 313.278 4.40394C313.729 4.45224 314.122 4.76134 314.302 5.17748C314.668 6.0211 314.877 6.82935 312.284 7.4722C311.552 7.65368 310.785 7.62405 310.049 7.46258L308.029 7.01992C307.96 7.00481 307.888 7.01548 307.826 7.04992L307.815 7.05637C307.56 7.19904 307.659 7.58753 307.951 7.59026C308.271 7.59325 308.298 7.85761 307.979 7.83467C307.387 7.79216 306.865 7.61974 306.334 7.45821C306.114 7.39136 305.881 7.47486 305.688 7.6007C305.519 7.71188 305.307 7.80383 305.059 7.87888C304.779 7.96375 304.479 7.93523 304.202 7.83836L302.932 7.39315C302.032 7.07796 302.49 7.28667 301.692 7.80719C301.394 8.00135 300.404 8.07708 300.287 7.74107C300.17 7.40355 301.141 7.08891 300.496 6.83924C299.983 6.64114 299.399 6.74127 298.91 6.99256C298.535 7.18539 298.353 7.32838 298.034 7.36012C297.253 7.43771 296.845 7.67142 297.618 7.80868C296.482 7.55969 294.833 7.58486 293.655 7.40393C292.889 7.28638 292.033 7.20272 291.261 7.26813C290.263 7.35277 289.08 7.28397 288.244 7.35558C287.677 7.40411 286.8 7.79121 286.253 7.63514C285.542 7.43241 281.834 7.75738 281.095 7.77176C280.869 7.77617 280.638 7.78096 280.41 7.78786C279.567 7.81335 276.054 7.96927 275.215 7.89112C273.079 7.69227 270.348 7.79208 268.082 7.51873C267.918 7.49895 267.888 7.633 268.051 7.60563C265.852 7.71693 262.798 7.37218 260.651 6.88243C260.217 6.78345 259.797 6.68105 259.426 6.56573C259.228 6.5041 259.008 6.50315 258.821 6.59263C257.965 7.00146 258.326 7.26633 258.856 7.52653C259.266 7.72771 258.889 7.95788 258.441 7.86594C258.352 7.84772 258.262 7.82997 258.172 7.81255C257.735 7.7283 254.679 7.51314 254.32 7.77515C254.081 7.94923 253.723 7.82349 253.471 7.66871C252.979 7.36667 252.103 7.67402 251.113 7.44396C250.697 7.34734 250.262 7.26601 249.854 7.39108C248.107 7.92661 249.493 8.35382 246.844 8.01608C246.823 8.01334 246.773 8.01994 246.752 8.02496ZM176.961 6.61574C177.565 6.64112 178.087 6.6665 178.417 6.6665C178.115 6.64111 177.703 6.64112 176.961 6.61574ZM172.877 6.21555C172.71 6.27962 172.379 6.56673 172.558 6.5661C172.846 6.56509 173.144 6.56499 173.448 6.56497C173.515 6.56497 173.583 6.53821 173.611 6.47754C173.664 6.3596 173.617 6.24883 173.48 6.1745C173.346 6.10197 173.019 6.16106 172.877 6.21555ZM183.647 1.6705C183.641 1.66767 183.634 1.6659 183.628 1.6652C183.602 1.66241 183.576 1.65982 183.551 1.65742C183.069 1.61131 183.112 1.8668 183.595 1.89948C183.686 1.9057 183.781 1.91243 183.88 1.91969C183.883 1.91995 183.886 1.92093 183.889 1.92329C183.903 1.93557 183.932 1.90696 183.92 1.89227C183.85 1.80542 183.762 1.72555 183.647 1.6705Z" fill="#424242"/>
</svg>
