<svg width="1154" height="120" viewBox="0 0 1154 120" fill="none" xmlns="http://www.w3.org/2000/svg">
<mask id="mask0_7_2403" style="mask-type:alpha" maskUnits="userSpaceOnUse" x="0" y="-1" width="1154" height="121">
<rect width="1154" height="120" transform="matrix(-1 0 0 1 1154 -0.000488281)" fill="#D9D9D9"/>
</mask>
<g mask="url(#mask0_7_2403)">
<g filter="url(#filter0_f_7_2403)">
<path d="M5.00012 15.1904H35.5378C53.5576 15.1904 65.8231 23.6811 65.8231 40.649V40.8486C65.8231 58.1493 53.3178 67.3319 34.9952 67.3319H27.6762V86.7485H5.00012V15.1904ZM33.7838 50.2575C39.6011 50.2575 43.4877 47.5027 43.4877 42.3791V42.1794C43.4877 36.9626 39.8913 34.3143 33.8847 34.3143H27.6762V50.2841L33.7838 50.2575Z" fill="url(#paint0_linear_7_2403)" fill-opacity="0.79"/>
<path d="M70.1256 30.9336H92.133V42.179C95.1363 34.62 99.9819 29.7092 108.714 30.1218V54.7552H106.38C97.0796 54.7552 92.133 60.1716 92.133 72.5349V86.748H70.1256V30.9336Z" fill="url(#paint1_linear_7_2403)" fill-opacity="0.79"/>
<path d="M110.368 59.0406V58.841C110.368 43.0974 122.772 29.563 140.224 29.563C157.676 29.563 169.878 42.8712 169.878 58.6014V58.8011C169.878 74.5446 157.474 88.079 140.022 88.079C122.57 88.079 110.368 74.7842 110.368 59.0406ZM148.754 59.0406V58.841C148.802 57.5844 148.613 56.3304 148.199 55.1511C147.785 53.9717 147.154 52.8903 146.343 51.9689C145.531 51.0475 144.555 50.3044 143.47 49.7822C142.386 49.2601 141.214 48.9692 140.022 48.9264C135.088 48.9264 131.492 53.3181 131.492 58.6414V58.841C131.444 60.0975 131.633 61.3515 132.047 62.5309C132.461 63.7102 133.092 64.7917 133.903 65.7131C134.715 66.6344 135.691 67.3776 136.776 67.8997C137.86 68.4218 139.032 68.7127 140.224 68.7556C145.158 68.7556 148.742 64.3639 148.742 59.0406H148.754Z" fill="url(#paint2_linear_7_2403)" fill-opacity="0.79"/>
<path d="M173.639 96.3568L180.428 82.3566C186.261 85.809 192.831 87.6408 199.52 87.6799C207.76 87.6799 212.139 83.1817 212.139 75.4097V73.7728C210.265 76.1456 207.925 78.0601 205.279 79.3838C202.634 80.7074 199.748 81.4085 196.82 81.4383C183.154 81.4383 173.273 71.2176 173.273 55.7802V55.5672C173.273 39.9301 183.368 29.603 195.558 29.603C198.596 29.4898 201.621 30.082 204.419 31.3376C207.217 32.5932 209.719 34.4816 211.748 36.8693V30.9338H233.755V72.6416C233.755 82.9688 231.724 90.0221 226.865 95.1324C222.007 100.243 214.852 103.304 203.028 103.304C192.843 103.534 182.757 101.15 173.639 96.3568ZM212.227 55.6737V55.4741C212.227 50.6698 208.732 46.7838 203.394 46.7838C198.056 46.7838 194.561 50.7763 194.561 55.6737V55.8733C194.561 60.6776 198.044 64.4704 203.394 64.4704C208.745 64.4704 212.227 60.5844 212.227 55.6737Z" fill="url(#paint3_linear_7_2403)" fill-opacity="0.79"/>
<path d="M240.342 30.9336H262.337V42.179C265.353 34.62 270.199 29.7092 278.918 30.1218V54.7552H276.596C267.284 54.7552 262.337 60.1716 262.337 72.5349V86.748H240.342V30.9336Z" fill="url(#paint4_linear_7_2403)" fill-opacity="0.79"/>
<path d="M280.546 59.147V58.9474C280.546 42.2856 291.903 29.6694 307.79 29.6694C326.592 29.6694 335.312 43.47 335.312 60.4379C335.312 61.6756 335.312 63.0996 335.223 64.3239H301.152C301.783 66.5699 303.112 68.527 304.924 69.881C306.737 71.235 308.928 71.9072 311.146 71.7898C315.121 71.7898 318.415 69.8468 321.898 66.0673L333.722 75.9553C328.497 83.1151 321.027 88.119 309.594 88.119C292.281 88.079 280.546 76.5275 280.546 59.147ZM315.248 54.0367C314.768 48.7134 311.765 45.6526 307.878 45.6526C304.206 45.6526 301.569 48.9264 300.9 54.0367H315.248Z" fill="url(#paint5_linear_7_2403)" fill-opacity="0.79"/>
<path d="M336.372 79.9481L343.817 66.8129C349.685 70.7243 356.449 72.8816 363.389 73.0544C365.522 73.0544 366.594 72.5354 366.594 71.2179V71.005C366.594 69.8871 365.622 69.1684 360.285 67.7311C346.947 64.2577 338.77 60.4782 338.77 48.9267V48.7271C338.77 36.4569 348.07 29.6032 361.837 29.6032C370.131 29.5054 378.303 31.723 385.522 36.031L378.544 49.8316C372.916 46.5578 366.127 44.6148 361.673 44.6148C359.54 44.6148 358.569 45.2403 358.569 46.3582V46.5578C358.569 47.689 359.742 48.4077 365.067 49.8316C378.443 53.3051 386.519 57.1911 386.519 68.6494V68.849C386.519 81.0127 377.888 88.0661 363.54 88.0661C353.92 88.2687 344.461 85.4423 336.372 79.9481Z" fill="url(#paint6_linear_7_2403)" fill-opacity="0.79"/>
<path d="M386.292 79.948L393.75 66.7596C399.622 70.6709 406.391 72.828 413.334 73.0011C415.467 73.0011 416.527 72.4821 416.527 71.1646V70.9516C416.527 69.8337 415.568 69.1151 410.217 67.6778C396.816 64.2576 388.614 60.4781 388.614 48.9266V48.727C388.614 36.4568 397.927 29.6031 411.681 29.6031C419.997 29.4917 428.192 31.7098 435.43 36.031L428.452 49.8316C422.836 46.5577 416.047 44.6147 411.593 44.6147C409.46 44.6147 408.489 45.2402 408.489 46.3581V46.5577C408.489 47.6889 409.65 48.4076 414.987 49.8316C428.363 53.305 436.439 57.191 436.439 68.6493V68.8489C436.439 81.0126 427.821 88.0659 413.473 88.0659C403.849 88.2728 394.384 85.4463 386.292 79.948Z" fill="url(#paint7_linear_7_2403)" fill-opacity="0.79"/>
<path d="M441.537 15.1904H462.762L486.902 46.7841V15.1904H509.389V86.7485H489.199L463.961 53.7309V86.7485H441.537V15.1904Z" fill="url(#paint8_linear_7_2403)" fill-opacity="0.79"/>
<path d="M514.904 59.0406V58.841C514.904 43.0974 527.308 29.563 544.76 29.563C562.212 29.563 574.414 42.8712 574.414 58.6014V58.8011C574.414 74.5446 562.01 88.079 544.571 88.079C527.131 88.079 514.904 74.7842 514.904 59.0406ZM553.29 59.0406V58.841C553.339 57.5851 553.152 56.3314 552.74 55.1521C552.327 53.9728 551.698 52.8912 550.887 51.9697C550.077 51.0481 549.101 50.3048 548.017 49.7825C546.933 49.2602 545.762 48.9692 544.571 48.9264C539.624 48.9264 536.04 53.3181 536.04 58.6414V58.841C535.991 60.0969 536.178 61.3506 536.591 62.5298C537.003 63.7091 537.633 64.7907 538.443 65.7123C539.254 66.6338 540.229 67.3772 541.313 67.8995C542.397 68.4218 543.569 68.7127 544.76 68.7556C549.706 68.7556 553.29 64.3639 553.29 59.0406Z" fill="url(#paint9_linear_7_2403)" fill-opacity="0.79"/>
<path d="M582.465 68.037V48.82H576.256V30.9338H582.465V16.9336H604.459V30.9338H616.674V48.82H604.459V62.9267C604.459 67.1188 606.302 68.6625 609.797 68.6625C612.117 68.5789 614.395 67.9851 616.485 66.9191V84.8054C612.088 86.9674 607.279 88.0373 602.428 87.9328C589.443 87.9328 582.465 81.638 582.465 68.037Z" fill="url(#paint10_linear_7_2403)" fill-opacity="0.79"/>
<path d="M622.202 15.1904H652.727C670.759 15.1904 683.075 23.6811 683.075 40.649V40.8486C683.075 58.1493 670.57 67.3319 652.248 67.3319H644.878V86.7485H622.164L622.202 15.1904ZM650.986 50.2575C656.803 50.2575 660.677 47.5027 660.677 42.3791V42.1794C660.677 36.9626 657.093 34.3143 651.087 34.3143H644.878V50.2841L650.986 50.2575Z" fill="url(#paint11_linear_7_2403)" fill-opacity="0.79"/>
<path d="M685.195 59.147V58.9474C685.195 42.2856 696.552 29.6694 712.439 29.6694C731.242 29.6694 739.961 43.47 739.961 60.4379C739.961 61.6756 739.961 63.0996 739.86 64.3239H705.789C706.42 66.5699 707.749 68.527 709.561 69.881C711.374 71.235 713.565 71.9072 715.784 71.7898C719.746 71.7898 723.052 69.8468 726.535 66.0673L738.409 75.9553C733.172 83.1151 725.715 88.119 714.282 88.119C696.931 88.079 685.195 76.5275 685.195 59.147ZM719.859 54.0367C719.38 48.7134 716.377 45.6526 712.49 45.6526C708.805 45.6526 706.181 48.9264 705.512 54.0367H719.859Z" fill="url(#paint12_linear_7_2403)" fill-opacity="0.79"/>
<path d="M744.807 30.9336H766.801V42.179C769.817 34.62 774.663 29.7092 783.383 30.1218V54.7552H781.061C771.748 54.7552 766.801 60.1716 766.801 72.5349V86.748H744.807V30.9336Z" fill="url(#paint13_linear_7_2403)" fill-opacity="0.79"/>
<path d="M791.232 48.82H785.023V30.9338H791.232C791.333 25.0116 792.683 20.2074 795.976 16.7206C799.56 12.9411 804.217 11.3974 811.485 11.3974C816.023 11.2319 820.561 11.7472 824.962 12.9278V27.4603C822.64 26.9008 820.264 26.6284 817.883 26.6485C814.488 26.6485 812.747 28.0725 812.747 31.1467V31.546H824.962V48.8466H813.239V86.7749H791.232V48.82Z" fill="url(#paint14_linear_7_2403)" fill-opacity="0.79"/>
<path d="M825.858 59.147V58.9474C825.858 42.2856 837.215 29.6694 853.09 29.6694C871.892 29.6694 880.624 43.47 880.624 60.4379C880.624 61.6756 880.624 63.0995 880.523 64.3239H846.452C847.083 66.5675 848.409 68.5229 850.219 69.8767C852.029 71.2304 854.218 71.9041 856.434 71.7898C860.409 71.7898 863.702 69.8468 867.198 66.0673L879.047 75.9552C873.81 83.0751 866.352 88.079 854.882 88.079C837.556 88.079 825.858 76.5275 825.858 59.147ZM860.56 54.0367C860.068 48.7134 857.065 45.6525 853.191 45.6525C849.506 45.6525 846.881 48.9263 846.212 54.0367H860.56Z" fill="url(#paint15_linear_7_2403)" fill-opacity="0.79"/>
<path d="M883.791 59.147V58.9474C883.791 43.3103 895.426 29.6694 912.676 29.6694C924.31 29.6694 932.55 36.0041 936.652 45.1069L920.853 54.5158C919.01 50.9359 916.689 48.8864 913.105 48.8864C908.448 48.8864 904.953 53.185 904.953 58.6946V58.9075C904.953 64.7365 908.448 68.9285 912.815 68.9285C916.689 68.9285 918.922 66.8791 921.055 63.2992L937.043 72.9077C932.298 82.2234 924.247 88.1455 911.654 88.1455C908.011 88.2021 904.394 87.4934 901.013 86.0609C897.632 84.6285 894.556 82.5008 891.962 79.8018C889.369 77.1029 887.311 73.8867 885.908 70.3406C884.505 66.7945 883.786 62.9894 883.791 59.147Z" fill="url(#paint16_linear_7_2403)" fill-opacity="0.79"/>
<path d="M944.476 68.037V48.82H938.267V30.9338H944.476V16.9336H966.483V30.9338H978.685V48.82H966.483V62.9266C966.483 67.1187 968.313 68.6625 971.808 68.6625C974.128 68.5804 976.407 67.9865 978.496 66.9191V84.8053C974.095 86.9706 969.281 88.0406 964.426 87.9327C951.441 87.9327 944.476 81.6379 944.476 68.037Z" fill="url(#paint17_linear_7_2403)" fill-opacity="0.79"/>
<path d="M983.43 12.0762H1006.14V26.9547H983.43V12.0762ZM983.809 30.8806H1005.82V86.7484H983.809V30.8806Z" fill="url(#paint18_linear_7_2403)" fill-opacity="0.79"/>
<path d="M1010.95 59.0406V58.841C1010.95 43.0974 1023.36 29.563 1040.81 29.563C1058.26 29.563 1070.46 42.8712 1070.46 58.6014V58.8011C1070.46 74.5446 1058.06 88.079 1040.61 88.079C1023.15 88.079 1010.95 74.7842 1010.95 59.0406ZM1049.34 59.0406V58.841C1049.39 57.5844 1049.2 56.3304 1048.78 55.1511C1048.37 53.9717 1047.74 52.8903 1046.93 51.9689C1046.12 51.0475 1045.14 50.3044 1044.05 49.7822C1042.97 49.2601 1041.8 48.9692 1040.61 48.9264C1035.67 48.9264 1032.08 53.3181 1032.08 58.6414V58.841C1032.03 60.0975 1032.22 61.3515 1032.63 62.5309C1033.04 63.7102 1033.68 64.7917 1034.49 65.7131C1035.3 66.6344 1036.27 67.3776 1037.36 67.8997C1038.44 68.4218 1039.62 68.7127 1040.81 68.7556C1045.74 68.7556 1049.34 64.3639 1049.34 59.0406Z" fill="url(#paint19_linear_7_2403)" fill-opacity="0.79"/>
<path d="M1075.4 30.934H1097.4V38.6926C1100.8 34.088 1106.12 29.5898 1113.59 29.5898C1124.74 29.5898 1131.71 37.3618 1131.71 49.938V86.7484H1109.78V57.4705C1109.78 52.6662 1107.07 49.8981 1103.76 49.8981C1100.46 49.8981 1097.45 52.6662 1097.45 57.4705V86.7484H1075.4V30.934Z" fill="url(#paint20_linear_7_2403)" fill-opacity="0.79"/>
</g>
<path d="M616.321 90.2589C616.357 90.2379 616.384 90.2057 616.401 90.1668C616.418 90.128 616.422 90.0846 616.414 90.0429C616.405 90.0013 616.384 89.9635 616.354 89.9353C616.324 89.907 616.286 89.8896 616.246 89.8857L615.93 90.2189L616.321 90.2589Z" fill="#202020"/>
<path d="M615.085 88.8477C614.757 88.9275 614.315 89.1537 614.34 89.5929C614.757 89.3134 614.757 89.5131 615.211 89.1671C615.463 89.1671 615.564 89.4731 615.463 89.6062C615.577 89.5264 615.779 89.8458 615.993 89.6062C615.917 89.3995 615.769 89.2311 615.579 89.1348C615.389 89.0385 615.172 89.0215 614.971 89.0872C614.921 88.994 615.047 88.9142 615.085 88.8477Z" fill="#202020"/>
<path d="M593.444 78.3877L593.557 78.5077C593.529 78.4584 593.49 78.4171 593.444 78.3877Z" fill="#202020"/>
<path d="M580.029 71.8929C580.143 71.8929 580.193 71.8929 580.219 71.8929C580.244 71.8929 580.029 71.8526 580.029 71.8929Z" fill="#202020"/>
<path d="M577.897 70.3759L578.023 70.4558C578.023 70.4558 577.96 70.3492 577.897 70.3759Z" fill="#202020"/>
<path d="M593.443 78.3879L593.128 78.0947C593.04 78.2147 593.279 78.2813 593.443 78.3879Z" fill="#202020"/>
<path d="M611.665 88.5547C611.744 88.5754 611.826 88.5754 611.905 88.5547H611.703H611.665Z" fill="#202020"/>
<path d="M599.539 80.7968H599.64C599.7 80.766 599.755 80.7255 599.804 80.6768L599.539 80.7968Z" fill="#202020"/>
<path d="M604.144 82.8188C604.043 82.8188 603.867 83.0854 603.766 83.2186C603.806 83.1701 603.857 83.1326 603.914 83.1093C603.971 83.0861 604.033 83.0779 604.094 83.0854C604.12 82.9989 604.137 82.9095 604.144 82.8188Z" fill="#202020"/>
<path d="M596.295 79.2394C596.308 79.1915 596.308 79.1407 596.295 79.0928C596.282 79.1407 596.282 79.1915 596.295 79.2394Z" fill="#202020"/>
<path d="M573.897 67.9536C574.034 67.9787 573.972 67.9536 573.897 67.9536V67.9536Z" fill="#202020"/>
<path d="M611.564 88.4217L611.375 88.3418C611.431 88.3846 611.496 88.412 611.564 88.4217Z" fill="#202020"/>
<path d="M564.117 63.5752C564.104 63.6411 564.104 63.7092 564.117 63.7751C564.117 63.7751 564.155 63.6818 564.117 63.5752Z" fill="#202020"/>
<path d="M571.133 67.4749L570.969 67.355L571.133 67.4749Z" fill="#202020"/>
<path d="M560.231 62.2847C560.142 62.2847 560.13 62.1515 559.978 62.1382C560.004 62.1648 560.079 62.1781 560.231 62.2847Z" fill="#202020"/>
<path d="M556.269 60.4346V60.5413H556.407L556.269 60.4346Z" fill="#202020"/>
<path d="M611.741 88.3286C611.723 88.3609 611.697 88.3871 611.666 88.4037C611.634 88.4203 611.599 88.4266 611.564 88.4218H611.703C611.725 88.3965 611.739 88.3634 611.741 88.3286Z" fill="#202020"/>
<path d="M558.855 64.9066L558.262 64.5601C558.454 64.6867 558.651 64.8024 558.855 64.9066Z" fill="#202020"/>
<path d="M556.445 63.7355C556.399 63.5827 556.316 63.445 556.205 63.3357C556.168 63.3256 556.129 63.3256 556.092 63.3357L556.445 63.7355Z" fill="#202020"/>
<path d="M475.444 25.0218C476.025 25.3146 475.911 24.729 476.151 24.5294C476.908 24.7423 476.328 25.0085 476.466 25.3545C476.959 25.4476 477.476 25.2081 477.791 25.3545C477.791 25.4476 477.791 25.5009 477.716 25.5541C478.334 25.421 479.104 26.2062 479.836 26.0199C479.846 26.0681 479.846 26.118 479.836 26.1663C479.849 25.9361 479.914 25.7126 480.025 25.5142C480.29 25.634 480.631 25.5142 480.605 25.807C480.441 25.7271 480.378 25.807 480.265 25.8868H480.593C480.668 26.4191 480.151 25.8868 480.025 26.153C480.618 26.2861 481.4 26.2328 481.754 26.5522C481.665 27.0047 480.732 26.2328 481.123 26.8583L480.555 26.3925C480.757 27.2709 480.189 26.153 480.328 27.0712C481.123 27.5903 481.363 27.3108 482.145 27.8431C482.435 27.71 482.233 27.4705 482.523 27.3374C483.899 27.5104 483.016 28.8279 484.126 28.6682C484.467 28.4952 484.782 28.0294 485.287 28.6682L484.871 29.0275C485.666 29.4667 485.628 28.5884 486.347 29.3203C486.12 29.4268 485.64 29.1606 485.741 29.3203C486.132 29.9591 486.246 29.2538 486.675 29.4534L486.574 29.9059C487.47 30.2652 488.555 30.4382 489.552 30.8241C489.439 30.9173 489.224 30.9705 489.388 31.2101C490.705 31.6865 491.934 32.3978 493.022 33.3128L493.615 33.1797C493.716 33.1797 493.742 33.4325 493.615 33.4459C494.007 33.8052 493.729 33.2329 494.007 33.193C494.284 33.1531 494.272 33.5656 494.007 33.5922C495.187 33.6516 496.322 34.0879 497.262 34.8432H497.048C497.641 35.309 498.108 34.4706 498.575 35.0961H498.423C499.786 35.9345 501.515 36.4269 502.373 37.4516C502.802 37.0391 503.635 38.3566 504.089 37.6912C504.758 38.4364 504.468 38.4497 505.515 39.2482C505.805 39.4212 506.159 39.022 506.575 39.1284L506.424 39.5011L507.231 39.3148L507.32 39.887L507.711 39.9669C507.585 39.8737 507.484 39.6475 507.559 39.5543C508.19 39.6608 508.821 40.4726 508.733 40.6722L510.184 40.9916C510.083 41.1247 509.843 41.0714 509.629 41.0847C510.499 41.0847 509.629 41.5372 510.386 41.4973C510.386 41.3775 510.525 41.2977 510.575 41.2311C510.993 41.6858 511.528 42.0006 512.115 42.1361L511.9 42.3357C512.847 42.8814 514.008 43.2141 515.105 43.7464C514.765 43.427 515.042 43.0277 515.383 43.1475V43.6C515.698 43.4536 515.105 43.2939 515.661 43.2007C516.052 43.4403 515.749 43.773 515.459 43.7863L516.014 43.8928C516.014 44.0259 515.85 44.0259 515.749 44.1722C516.064 44.0259 516.443 44.9707 516.922 44.6913V44.8243C518.02 45.3567 518.576 45.4631 519.446 45.8757C519.61 45.543 519.926 45.7825 520.317 45.6361C520.945 46.1699 521.622 46.6379 522.336 47.0335C522.967 47.1267 522.626 46.8206 522.967 46.7407C522.879 47.0601 523.674 47.4194 523.169 47.4461C523.982 47.8113 524.828 48.0921 525.693 48.2845C525.617 48.0982 525.491 47.9784 525.617 47.9118C525.743 47.8453 526.059 48.2712 525.958 48.4042C527.497 48.5773 528.671 50.7997 530.021 50.6666H529.958L531.22 50.8663C531.712 51.1723 530.816 50.9461 531.119 51.332C532.532 51.332 532.974 52.3168 534.122 52.4366C534.488 53.7674 536.86 53.6743 537.643 54.7656V54.5127C537.996 54.4328 537.908 54.7922 538.084 54.9386C538.084 54.7522 537.882 54.6059 538.084 54.5659C540.448 55.6365 542.716 56.9281 544.861 58.4253C545.681 58.8778 545.82 57.5337 546.665 58.5584L546.198 58.8112C548.116 59.1573 549.694 60.5014 551.549 60.9006C551.41 60.9006 551.347 61.0603 551.183 60.9805C551.422 61.4463 552.445 61.6193 552.596 61.3797C552.848 61.5394 552.596 61.6326 552.672 61.8322C552.962 62.1649 553.732 61.8322 553.795 62.2581C553.795 62.3246 553.656 62.2581 553.58 62.2581C553.871 62.2581 554.64 62.8037 554.565 62.3645C555.132 62.8303 555.826 62.7904 556.256 63.2296C556.735 63.0033 557.252 63.9216 557.581 63.4425C557.303 63.9615 558.502 64.4007 559.006 64.3341C558.805 64.4406 559.284 64.6668 559.006 64.8265C559.461 65.0395 559.928 65.1326 559.965 64.8265C560.521 65.8779 561.871 65.0927 561.985 66.1574C563.367 66.4794 564.731 66.8792 566.073 67.3551C565.795 67.8741 564.698 66.7695 564.508 67.3551C565.614 67.443 566.697 67.7264 567.713 68.1935C567.978 68.4064 567.448 68.3532 567.297 68.3931C568.559 68.7125 569.518 69.4977 570.666 69.7239C570.666 69.7239 570.502 69.7239 570.389 69.7239C570.591 69.8038 570.818 70.03 570.906 69.7239H570.679C570.502 69.2182 571.802 69.3513 571.941 69.1783C571.297 69.7373 572.875 69.8304 571.941 70.5091C572.092 70.5091 572.307 70.5091 572.345 70.2962C572.534 70.4426 572.547 70.5757 572.269 70.6688C573.051 70.8685 572.9 70.4825 573.531 70.8019C573.531 70.9217 573.329 70.9084 573.203 71.0148C573.432 70.9418 573.674 70.9219 573.911 70.9563C574.148 70.9908 574.376 71.0788 574.578 71.2145C574.515 71.281 574.578 71.4008 574.376 71.3209C575.335 71.7335 576.256 71.4673 577.215 72.186C576.685 72.5586 577.493 72.5187 577.354 72.9978L577.973 73.1308L577.846 72.7981C578.339 73.0377 578.906 72.9179 579.272 73.2639H578.818L579.777 73.6099L579.335 73.1974C579.929 73.1974 579.525 72.5985 580.118 73.0244C579.966 73.0244 580.61 73.2639 580.761 73.6499C580.924 73.621 581.091 73.6299 581.25 73.6758C581.409 73.7218 581.557 73.8038 581.683 73.916C581.683 74.1156 581.392 74.3818 581.418 74.5149C581.821 74.2487 582.616 74.9408 583.083 74.6879C583.02 74.7199 582.966 74.7686 582.926 74.8292C582.886 74.8899 582.862 74.9604 582.856 75.0339L583.184 74.821C583.373 75.0206 583.386 75.0871 583.273 75.2601C583.929 75.6328 583.273 74.5814 584.004 75.2601C583.929 75.2601 583.941 75.2601 583.79 75.2601C584.547 75.7792 585.456 75.8058 586.137 76.3115C586.137 76.8704 585.443 76.1119 585.531 76.6176C586.717 76.8849 587.882 77.2498 589.014 77.7089L588.837 77.5758C589.254 76.9902 589.481 78.2545 590.099 78.2013C589.948 78.2013 589.771 78.4807 589.834 78.4275C590.701 78.836 591.619 79.1094 592.56 79.2393L592.346 79.3458C592.829 79.6777 593.335 79.9713 593.86 80.2241C594.062 80.1309 594.314 80.2241 594.264 79.9579C595.286 81.5549 597.166 80.6899 598.049 82.0606C597.898 82.0606 597.633 82.0606 597.746 82.0606L598.882 82.3933C598.882 82.0739 598.806 82.1538 598.68 81.8344C598.943 81.7226 599.237 81.7226 599.5 81.8344C598.945 81.8344 599.324 82.2869 599.5 82.5397C599.5 82.4333 599.614 82.38 599.627 82.2736C599.98 83.0454 599.955 81.7545 600.573 82.4466L600.472 82.5796C600.797 82.5676 601.122 82.6172 601.431 82.726C601.431 83.112 601.065 82.726 600.926 83.0055C601.368 83.1785 602.037 82.7793 602.302 83.2717C602.075 83.2717 601.81 83.1652 601.595 83.1785C601.86 83.7508 601.948 83.6709 602.251 83.8839L602.92 84.3896L602.781 84.2032C603.665 83.5911 603.942 84.5359 604.901 84.3097C603.98 84.5226 604.662 84.5626 604.46 84.9086C604.598 85.0949 604.838 85.3344 604.712 85.401C605.179 85.2679 605.204 85.9067 605.86 85.6805C605.86 85.8135 606.226 85.8668 606.037 86.1196C606.516 86.2394 606.037 85.8668 606.1 85.7337C606.958 85.6405 607.539 86.9713 608.763 86.8516C609.709 87.0113 610.025 86.6653 610.908 86.8516C611.11 87.1577 610.517 87.1976 610.517 87.1976C610.832 87.5194 611.251 87.7046 611.69 87.7166C611.564 87.7831 611.615 87.9029 611.69 88.0892C612.031 88.209 612.081 87.7565 612.447 88.0892C612.32 88.2778 612.156 88.4363 611.968 88.555C612.41 88.555 612.876 88.555 613.318 88.555C613.318 88.8079 612.952 88.7679 612.763 88.8345C613.255 88.941 614.025 89.1539 614.277 88.8345L614.025 88.5816C614.201 88.5816 614.025 88.9143 613.861 88.9143C613.796 88.9386 613.726 88.9437 613.658 88.9291C613.591 88.9144 613.528 88.8806 613.478 88.8313C613.427 88.782 613.39 88.7191 613.371 88.6493C613.352 88.5795 613.351 88.5055 613.369 88.4352H613.684C613.684 87.6101 612.485 88.0493 611.93 87.7565L612.372 87.3573L611.615 87.517C611.539 87.3307 611.615 87.0113 611.88 87.0645C611.564 86.6253 611.438 87.0645 611.198 86.6519C611.198 86.6519 611.198 86.5721 611.198 86.5588H610.706C610.832 86.4789 610.782 86.1595 610.996 86.3459C610.391 85.7337 609.671 86.2261 609.558 85.7204H609.633C608.561 85.4409 609.381 86.0531 608.46 86.1595L608.321 85.0017L608.081 85.3344C607.98 85.3344 607.791 85.1614 607.879 85.0284C607.4 85.1082 607.879 85.2147 607.564 85.3611C607.198 84.7888 606.125 84.8953 606.302 84.2565C606.012 84.4561 606.693 84.6823 606.087 84.6424C606.188 83.9371 605.431 84.4827 605.091 83.977C605.368 83.7108 605.722 84.0835 605.381 83.5778C604.889 84.0169 604.548 83.0587 604.119 83.0055C603.917 83.4314 603.21 82.8059 602.504 82.6728C602.605 82.5397 601.393 81.8876 600.863 81.4484C600.56 81.8477 599.98 81.4484 599.5 81.3686C599.542 81.2556 599.617 81.1603 599.716 81.0977C599.814 81.035 599.929 81.0086 600.043 81.0226L599.614 80.8363C599.519 80.8819 599.416 80.9055 599.311 80.9055C599.207 80.9055 599.103 80.8819 599.008 80.8363L599.248 80.5568C598.68 80.3173 597.986 80.4237 597.33 79.8781C597.153 80.1709 597.544 81.0093 596.699 80.8629C596.699 80.6766 596.825 80.3838 597.052 80.4104C596.977 80.4104 596.762 80.4104 596.661 80.3039L597.09 80.1576C596.813 79.8781 596.813 80.3173 596.56 80.1576C596.674 79.918 596.447 79.8914 596.56 79.7184C596.674 79.5454 596.749 79.9313 596.888 79.8781C596.604 79.7292 596.383 79.4725 596.27 79.1594C596.264 79.2027 596.25 79.2443 596.228 79.2812C596.206 79.3182 596.176 79.3497 596.142 79.3736C596.107 79.3976 596.068 79.4134 596.027 79.4201C595.986 79.4268 595.944 79.4241 595.904 79.4123C595.336 79.1728 595.828 79.0397 595.551 78.7602C595.349 78.8667 595.059 78.534 594.907 78.88C594.743 78.8134 594.781 78.6271 594.756 78.494C594.402 78.494 593.38 77.9218 593.557 78.494H593.62C592.522 78.4142 591.727 77.3895 590.718 77.1632V77.0434C590.141 76.8144 589.539 76.6668 588.926 76.6043C588.762 76.6043 588.636 76.205 588.762 76.0986C588.347 76.0925 587.951 75.9213 587.651 75.6195C588.169 75.6195 587.576 75.3533 588.156 75.6195C587.639 75.2601 587.601 75.0073 586.894 75.0605C587.235 74.8476 586.642 74.475 586.339 74.4484L586.642 74.8476C586.355 74.7537 586.079 74.6242 585.822 74.4617L586.137 74.1156C585.191 73.0909 583.727 73.9959 583.197 72.7848C582.78 72.9179 583.739 73.2639 583.323 73.4769C582.831 73.1708 582.528 72.3457 582.364 72.2658C581.733 71.7069 581.443 72.5453 580.749 72.0396C580.749 72.2259 580.749 72.6517 580.093 72.532C579.436 72.4122 579.701 71.627 580.093 71.6536C580.231 71.6536 580.269 71.7867 580.244 71.8266C580.433 71.8266 580.686 71.8932 580.547 71.6403L580.421 71.7601C580.219 71.4806 579.487 71.1612 579.752 71.0015C579.298 71.0015 579.487 71.1612 579.752 71.3742C579.171 70.8551 578.705 70.8818 578.074 70.4027C578.149 70.5357 578.175 70.762 578.074 70.7088C577.14 70.0433 577.518 70.7088 576.812 70.5091C576.521 70.0966 577.178 70.0433 576.408 69.9103C576.042 69.5643 576.484 69.4844 576.698 69.4445C575.941 69.4445 575.6 68.6992 575.26 68.4863H575.638C575.444 68.4585 575.256 68.3955 575.083 68.3V68.6859C574.919 68.5395 574.742 68.4597 574.805 68.3399C574.515 68.4331 574.805 68.8988 574.25 68.9654C574.048 68.6992 573.392 68.7524 573.455 68.3266C574.225 68.8323 573.531 67.9007 574.25 68.1669C574.071 68.1256 573.904 68.0438 573.758 67.9273C573.758 67.9273 573.758 67.9273 573.884 67.9273C573.241 67.2087 573.341 68.1935 572.534 67.7943C572.723 67.6346 572.534 67.3019 572.37 67.2886C572.698 67.4482 572.37 67.7144 572.004 67.741C571.55 67.3285 571.386 67.5946 571.121 67.4482L571.398 67.6745C571.196 67.8475 570.957 67.6745 570.565 67.5946C570.565 67.4083 570.944 67.5946 570.843 67.4882C570.275 67.6878 570.098 66.6764 569.43 66.6631C569.228 66.3969 569.568 66.2505 569.43 66.0376C568.673 66.0376 568.874 65.4254 568.168 65.3456C568.243 65.7182 568.307 65.665 567.713 65.7315L568.887 66.0376L568.016 66.1307C568.344 66.2904 568.786 66.2771 568.963 66.4235C568.521 66.5034 568.597 66.4235 568.647 66.7562C568.382 66.1174 567.65 66.5965 567.259 66.0509L567.575 65.3456C566.931 64.6535 566.035 65.0528 565.051 64.3874L565.316 64.6668C565.064 64.8931 564.685 64.414 564.306 64.3741C564.433 64.1478 564.306 63.9615 564.193 63.7486C564.13 63.9349 563.461 63.3893 563.158 63.7486L562.754 63.2695C561.997 62.7638 561.492 63.509 560.786 63.0565C561.126 62.9102 560.786 62.5775 561.455 62.6307C561.19 62.5109 560.975 62.3512 560.899 62.5242C560.811 62.298 560.029 62.5242 559.89 62.1516C559.726 62.1516 559.587 62.4444 559.297 62.2847C559.303 62.2377 559.325 62.1949 559.36 62.1649C559.297 62.2847 558.83 62.1649 558.969 62.4976C558.476 61.3664 556.685 61.4729 556.256 60.5014C555.65 60.3151 554.931 60.0622 554.401 59.836C554.464 59.7694 554.401 59.7162 554.539 59.836C553.921 59.277 553.807 60.3151 553.101 59.6763C552.848 59.0907 553.618 59.6763 553.429 59.3968C553.643 58.5584 552.394 59.0375 552.041 58.3188H552.192C551.889 57.8531 551.044 58.1325 550.388 57.7466C550.388 57.7466 550.451 57.7466 550.388 57.6401C549.613 57.7138 548.833 57.6047 548.104 57.3207C548.432 57.1078 548.47 57.3207 548.482 56.9215C548.167 56.8283 548.343 57.4671 547.725 57.2808C547.599 57.0146 547.233 56.6686 547.321 56.3093L547.889 56.5489C547.788 55.9899 547.157 56.2295 546.905 56.0032L547.019 55.8435C546.148 55.4975 545.921 55.9633 545.025 55.4975V55.6838C544.318 55.9101 544.709 55.218 544.066 55.3245V54.7789C543.399 54.7411 542.737 54.6476 542.085 54.4994C542.674 54.3992 543.275 54.3992 543.864 54.4994C543.536 54.3397 542.728 53.9937 542.463 54.1534C542.615 54.1534 542.829 54.1534 542.93 54.2732C542.369 54.3739 541.792 54.2607 541.302 53.9538C541.807 53.0887 539.7 52.9157 539.536 51.9708C538.274 51.7579 537.315 50.7199 535.939 50.1343C536.116 51.0792 535.548 49.9613 535.308 50.7465C534.967 50.64 534.854 50.5735 534.854 50.5069L534.097 49.6153C533.958 49.2959 534.463 49.6153 534.501 49.4157C533.844 49.0297 534.349 48.9632 533.983 48.5506C533.983 48.8567 533.579 48.8168 533.239 48.5506L533.643 49.1628C532.507 49.0963 533.075 48.1381 531.939 48.0715L532.355 47.9784C531.8 47.8852 530.526 47.1 529.832 47.4594C529.832 47.3396 529.756 47.0734 529.996 47.1267C528.847 46.4746 527.093 46.5012 526.324 45.6894L526.5 45.543C526.248 45.543 525.97 45.7027 525.768 45.3833C525.768 45.3833 525.932 45.2502 525.831 45.197C525.73 45.1437 525.112 45.197 524.872 44.984L525.2 44.8909C524.153 44.1057 523.219 44.5449 522.197 44.1989C522.437 43.6665 521.604 43.0544 521.188 42.7483V42.6817C519.967 42.1866 518.697 41.8383 517.402 41.6437C516.872 40.6855 514.878 40.1399 513.793 39.2083C513.932 39.4079 513.578 39.6208 513.339 39.5676C513.086 39.3148 512.367 39.5676 512.632 39.0752L512.72 39.1418C512.72 38.5562 512.064 38.3832 511.597 38.1569L511.244 38.7558C510.424 37.2387 507.9 37.5448 507.585 36.4003C507.231 36.4003 506.865 36.2273 506.499 36.2539L506.663 35.9212C505.973 35.4525 505.231 35.0727 504.455 34.79L504.758 34.6436C504.203 34.3508 503.61 35.2824 503.08 35.0561L503.143 34.4573C502.146 33.9915 501.338 33.0599 500.152 33.0466C500.183 32.9899 500.23 32.945 500.287 32.9187C500.344 32.8923 500.407 32.8859 500.468 32.9002C500.001 32.6607 498.814 31.6759 498.676 32.4611C498.865 31.9953 497.666 31.9154 497.048 31.8622L497.275 31.5694C497.064 31.689 496.832 31.7624 496.594 31.7853C496.355 31.8081 496.115 31.78 495.887 31.7025C495.761 31.5827 495.887 31.3698 496.038 31.5561C495.609 31.1302 495.508 31.6759 494.978 31.2101L495.294 31.1036C494.789 30.8241 494.789 30.9705 494.398 31.1036C494.007 31.2367 493.451 30.5447 493.514 30.212C493.399 30.3069 493.257 30.3585 493.111 30.3585C492.964 30.3585 492.822 30.3069 492.707 30.212C492.707 30.0789 492.858 30.0523 492.934 30.0523C492.164 29.4002 491.483 29.826 491.041 29.2005C491.069 29.1235 491.069 29.0381 491.041 28.961C491.437 29.1356 491.821 29.3402 492.189 29.5732C492.328 29.2671 491.798 28.9477 492.429 28.7348C491.887 28.7348 490.902 28.8945 490.435 28.4819C490.428 28.4379 490.428 28.3929 490.435 28.3488H490.499C490.399 28.2642 490.273 28.2215 490.145 28.229C490.025 28.1069 489.889 28.0038 489.741 27.923C489.741 27.6435 489.161 27.4838 488.896 27.3374C488.77 27.6834 488.442 27.4572 488.656 27.8963C488.656 27.8963 488.656 27.8963 488.909 27.9629C489.161 28.0294 489.01 27.9629 489.047 27.9629L489.741 28.269C489.602 28.3312 489.447 28.3427 489.301 28.3017C489.155 28.2608 489.026 28.1696 488.934 28.0427L488.316 28.4021C488.139 27.7366 487.533 27.1378 487.558 26.7918C486.637 26.5788 485.527 25.9667 484.719 26.3393C484.442 26.3393 484.53 26.0332 484.479 25.8868C484.643 25.8868 484.807 25.98 484.921 25.8868C484.378 25.8203 483.482 25.2746 483.167 25.6606C482.662 25.1682 483.684 25.421 482.826 25.0883L483.003 25.0085C481.741 23.5046 479.861 24.8621 478.46 23.0655C478.561 23.1853 478.612 23.2385 478.612 23.3316C476.731 21.9343 474.208 21.6548 472.466 20.0312C471.949 19.6187 471.76 19.8715 471.318 19.9114V19.4856L470.536 19.6187C469.551 19.5122 469.45 18.0084 468.125 18.0616V18.381C467.759 18.1415 466.863 17.9285 467.027 17.6757C466.964 17.6757 466.788 17.862 466.687 17.6757L466.762 17.476L465.665 17.343C464.996 16.8506 466.119 16.6376 465.059 16.0121C464.63 15.8924 463.671 16.0121 463.797 16.2118C463.923 16.4114 464.15 16.5312 464.087 16.7308L463.671 16.6509C463.355 17.1833 462.825 17.6224 463.545 18.4475H464.327L464.415 18.8069L463.873 18.5673C464.062 18.9799 464.352 18.8468 464.63 18.7936C464.621 18.8699 464.628 18.9473 464.65 19.0207C464.672 19.0941 464.708 19.1618 464.756 19.2194L465.589 19.0863C465.589 19.3392 465.122 19.3924 465.475 19.7118C465.879 19.6054 465.412 19.0863 465.967 19.1529C466.157 19.5521 465.967 19.7118 466.422 19.6719C466.422 19.8449 466.296 19.8981 466.132 19.8981C466.51 19.8981 466.99 20.2175 467.28 20.0046C467.457 20.4704 468.378 20.4305 468.113 20.9495C468.446 20.8471 468.801 20.8471 469.135 20.9495C468.34 21.3221 470.195 21.5084 469.766 22.1206C470.397 21.7347 471.28 22.5465 472.1 22.5731C472.1 22.5731 471.924 22.6529 471.886 22.5731C472.252 22.7993 472.29 23.0256 472.491 23.2651C472.744 22.8126 473.387 22.9989 473.842 22.8659C474.119 23.5446 473.312 23.2784 473.274 23.7841C473.413 23.3982 474.271 23.7841 474.245 23.4115C474.485 23.864 474.498 23.7043 474.51 24.1834C474.839 23.6244 474.889 24.1834 475.356 24.0237C475.747 24.5826 475.242 24.6492 475.899 24.7556C476.05 25.0617 475.444 25.0218 475.444 25.0218ZM489.628 30.6644L489.338 30.5447L489.628 30.6644ZM490.789 31.2234C490.625 31.1288 490.457 31.0444 490.284 30.9705C490.284 30.8375 490.398 30.731 490.511 30.7975C490.41 30.8375 490.65 31.0371 490.827 31.2234H490.789ZM489.363 27.6834C489.577 27.6834 489.603 27.8165 489.603 27.9097L489.262 27.7899C489.29 27.7489 489.324 27.7129 489.363 27.6834Z" fill="#202020" stroke="black"/>
<path d="M599.513 82.646C599.499 82.6893 599.499 82.736 599.513 82.7793C599.519 82.7351 599.519 82.6902 599.513 82.646Z" fill="#202020"/>
<path d="M602.264 83.9902L602.605 84.2835C602.503 84.1707 602.389 84.0722 602.264 83.9902Z" fill="#202020"/>
<path d="M604.397 85.1216C604.435 85.0812 604.469 85.0365 604.498 84.9883L604.397 85.1216Z" fill="#202020"/>
<path d="M570.326 69.8301H570.237C569.997 69.7903 570.136 69.8168 570.326 69.8301Z" fill="#202020"/>
<path d="M580.698 73.7559C580.568 73.769 580.437 73.769 580.307 73.7559C580.421 73.9159 580.61 73.9159 580.698 73.7559Z" fill="#202020"/>
<path d="M558.918 64.9457L558.93 64.9326L558.855 64.9062L558.918 64.9457Z" fill="#202020"/>
<path d="M579.84 73.543C579.966 73.6736 580.131 73.7537 580.307 73.7695C580.17 73.6569 580.01 73.5794 579.84 73.543Z" fill="#202020"/>
<path d="M613.583 89.3799L613.671 89.4459L613.583 89.3799Z" fill="#202020"/>
<path d="M613.71 89.3932H613.848C613.785 89.3799 613.747 89.3531 613.71 89.3932Z" fill="#202020"/>
<path d="M614.113 89.4199H613.848C613.924 89.4332 614.025 89.4995 614.113 89.4199Z" fill="#202020"/>
<path d="M610.782 87.9824L610.706 88.1023C610.74 88.0693 610.766 88.0282 610.782 87.9824Z" fill="#202020"/>
<path d="M609.911 87.6496C610.1 87.7696 610.315 88.1427 610.643 88.1827L610.706 88.1027C610.491 88.2227 610.189 87.5164 609.911 87.6496Z" fill="#202020"/>
<path d="M606.92 84.5629L607.602 84.9893C607.539 84.8027 607.438 84.5495 607.778 84.6562C607.034 83.7899 607.854 84.976 606.92 84.5629Z" fill="#202020"/>
<path d="M604.775 83.2986C605.179 83.4186 604.838 83.112 604.889 83.0454C604.598 83.0587 604.523 83.0587 604.775 83.2986Z" fill="#202020"/>
<path d="M588.674 75.9258L588.838 75.6326C588.522 75.5393 588.787 75.7525 588.674 75.9258Z" fill="#202020"/>
<path d="M584.926 76.1113L585.14 76.4312L585.393 76.2179L584.926 76.1113Z" fill="#202020"/>
<path d="M584.043 73.0377L584.194 73.0643L583.651 72.9443L584.043 73.0377Z" fill="#202020"/>
<path d="M557.089 60.4609L557.013 60.8873C557.24 60.914 557.467 60.5009 557.089 60.4609Z" fill="#202020"/>
<path d="M459.784 80.2373C459.784 80.2373 459.758 80.2502 459.784 80.2373V80.2373Z" fill="#202020"/>
<path d="M453.879 80.5705C453.884 80.504 453.884 80.4371 453.879 80.3706V80.5705Z" fill="#202020"/>
<path d="M471.633 75.4064C471.522 75.3485 471.423 75.2668 471.343 75.1665C471.482 75.3931 470.939 75.6996 471.633 75.4064Z" fill="#202020"/>
<path d="M499.66 64.3472L499.534 64.4538C499.562 64.4504 499.589 64.4386 499.611 64.4198C499.634 64.4009 499.651 64.3757 499.66 64.3472Z" fill="#202020"/>
<path d="M467.532 77.6022C468.125 77.376 467.646 77.0433 467.684 76.7239C468.34 76.3113 468.125 76.9368 468.453 77.0832C468.857 76.7771 469.047 76.2315 469.375 76.1117C469.375 76.1783 469.501 76.1916 469.463 76.3113C469.804 75.7657 470.838 75.7524 471.23 75.0737C471.23 75.0737 471.318 75.0737 471.331 75.1668C471.187 74.9947 471.083 74.7897 471.028 74.568C471.293 74.4482 471.419 74.0756 471.621 74.3417C471.457 74.3417 471.495 74.5147 471.444 74.6478L471.684 74.4083C472.088 74.741 471.356 74.701 471.469 75.0204C471.961 74.6744 472.466 74.0622 472.921 74.0223C473.16 74.4083 471.999 74.5413 472.693 74.701L471.987 74.7942C472.719 75.2733 471.583 74.9007 472.29 75.4463C473.173 75.2334 473.16 74.8607 474.044 74.6478C474.157 74.3417 473.854 74.3284 473.968 74.009C475.015 73.1174 475.293 74.7143 475.974 73.7961C476.101 73.4235 475.974 72.8512 476.731 72.8911V73.4501C477.564 73.1839 476.959 72.585 477.93 72.5717C477.842 72.8113 477.337 72.9843 477.489 72.9843C478.183 73.144 477.779 72.5584 478.208 72.3987L478.448 72.7847C479.306 72.3721 480.151 71.6934 481.098 71.2409C481.098 71.3873 480.971 71.5869 481.236 71.6268C482.457 70.998 483.772 70.5972 485.123 70.4424L485.451 69.8968C485.552 69.8968 485.703 69.9899 485.615 70.1097C486.12 70.1097 485.552 69.8702 485.716 69.6306C485.88 69.3911 486.145 69.7105 486.019 69.8835C486.861 69.0535 487.929 68.523 489.073 68.3663L488.947 68.5393C489.666 68.4329 489.426 67.5013 490.208 67.5945L490.107 67.7142C491.609 67.3017 493.085 66.3834 494.373 66.4633C494.373 65.8644 495.887 66.1439 495.723 65.372C496.386 65.5038 497.066 65.5038 497.729 65.372C498.045 65.2921 498.019 64.7332 498.385 64.507L498.524 64.8929L498.903 64.2807L499.344 64.64L499.66 64.4005C499.509 64.4005 499.294 64.4005 499.281 64.2275C499.508 64.0714 499.77 63.9817 500.041 63.9677C500.311 63.9536 500.581 64.0157 500.821 64.1476L502.083 63.2959C502.083 63.4689 501.906 63.602 501.767 63.775C502.335 63.1096 502.045 64.1343 502.562 63.5222C502.449 63.5222 502.562 63.2693 502.562 63.1894C503.148 63.2075 503.725 63.0357 504.215 62.697V63.0031C505.225 62.6837 506.247 62.0583 507.357 61.6723C507.277 61.7006 507.189 61.694 507.114 61.654C507.038 61.6141 506.98 61.5441 506.954 61.4594C506.927 61.3747 506.933 61.2822 506.971 61.2024C507.009 61.1225 507.075 61.0618 507.156 61.0335L507.421 61.3928C507.547 61.0601 507.029 61.3928 507.357 60.9004C507.786 60.7807 507.799 61.2465 507.61 61.4727L508.051 61.14C508.127 61.2465 508.051 61.3529 508.051 61.5259C508.178 61.1932 509.061 61.5259 509.212 61.0335V61.1533C510.323 60.7141 510.777 60.3814 511.66 60.0088C511.56 59.6495 511.938 59.5962 512.102 59.2103C512.891 59.1288 513.669 58.9593 514.424 58.7046C514.916 58.3053 514.424 58.3453 514.651 58.0392C514.815 58.3453 515.598 58.0392 515.269 58.3852C516.079 58.024 516.853 57.5781 517.579 57.0544C517.402 56.9745 517.238 56.9745 517.276 56.8281C517.314 56.6817 517.819 56.8281 517.844 56.9346C519.03 55.9232 521.301 56.6418 522.147 55.6038L523.144 54.8186C523.686 54.6722 522.929 55.1912 523.371 55.2311C524.393 54.233 525.314 54.5657 526.185 53.8205C527.283 54.4593 528.885 52.676 530.135 52.8756L530.008 52.676C530.198 52.3566 530.374 52.676 530.589 52.676C530.5 52.5163 530.223 52.5961 530.349 52.4098C532.532 51.2387 535.157 50.8927 537.567 50.174C538.438 49.8946 537.643 48.8432 538.905 48.9497L538.753 49.482C540.293 48.3109 542.274 48.1512 543.801 47.0333C543.738 47.1664 543.801 47.2862 543.611 47.3527C544.066 47.5124 544.936 46.8603 544.873 46.6074C545.151 46.5276 545.012 46.8071 545.227 46.8603C545.643 46.8603 545.984 46.1283 546.274 46.3546C546.274 46.3546 546.211 46.4877 546.148 46.5409C546.337 46.3013 547.246 46.155 546.905 45.8888C547.599 45.8089 548.066 45.2633 548.634 45.2766C548.836 44.7576 549.782 45.0371 549.706 44.4515C549.858 45.0238 550.968 44.4515 551.271 44.0523C551.208 44.2652 551.688 44.0523 551.612 44.385C552.066 44.1986 552.445 43.9325 552.268 43.6663C553.341 44.0123 553.77 42.4686 554.539 43.1473C555.705 42.3647 556.91 41.6495 558.148 41.0047C558.3 41.5769 556.887 41.5902 557.076 42.1625C558.161 41.4705 558.653 40.7252 559.852 40.4191C560.18 40.4191 559.764 40.7252 559.701 40.8583C560.773 40.1796 561.959 40.0332 562.881 39.3278C562.881 39.3278 562.805 39.4742 562.716 39.5674C562.906 39.4609 563.209 39.4609 563.095 39.2081L562.931 39.3545C562.477 39.1149 563.461 38.2632 563.423 38.0236C563.335 38.8887 564.508 37.8107 564.281 38.9419C564.407 38.8488 564.521 38.6624 564.433 38.5027C564.647 38.5027 564.748 38.5027 564.622 38.8221C565.291 38.3963 564.937 38.2233 565.606 37.9704C565.606 38.1035 565.53 38.1967 565.505 38.3697C565.618 38.1513 565.774 37.9618 565.964 37.8146C566.154 37.6674 566.372 37.5661 566.603 37.5179C566.603 37.5978 566.691 37.6776 566.527 37.7309C567.461 37.3183 567.928 36.4 569.051 36.2803C568.938 36.9324 569.48 36.2803 569.695 36.7594L570.212 36.4L569.897 36.267C570.401 36.0806 570.717 35.5616 571.159 35.5483L570.856 35.881L571.752 35.4419H571.159C571.575 35.0027 570.906 34.8696 571.6 34.7365C571.487 34.843 572.105 34.5502 572.458 34.7365C572.541 34.5878 572.657 34.462 572.795 34.3695C572.933 34.2769 573.09 34.2203 573.253 34.2042C573.392 34.3107 573.354 34.7498 573.455 34.8297C573.556 34.3373 574.566 34.2574 574.717 33.7251C574.692 33.7958 574.685 33.8722 574.696 33.9468C574.707 34.0213 574.736 34.0917 574.78 34.151L574.868 33.7517C575.133 33.7517 575.184 33.7517 575.222 34.0179C575.928 33.8049 574.793 33.5122 575.689 33.4456C575.689 33.4456 575.689 33.5255 575.575 33.6319C576.433 33.4323 577.089 32.8068 577.897 32.6604C578.276 33.0464 577.279 33.0331 577.67 33.3392C578.667 32.6623 579.718 32.079 580.812 31.5958H580.421C580.332 30.8771 581.317 31.5958 581.683 31.1034C581.569 31.1965 581.683 31.5426 581.683 31.4494C582.546 31.1292 583.362 30.6811 584.105 30.1186L584.03 30.3315C584.586 30.2229 585.135 30.0716 585.67 29.879C585.746 29.6661 586.011 29.5862 585.771 29.3999C587.525 29.8125 588.295 27.8296 589.822 28.1357C589.67 28.1357 589.519 28.4284 589.633 28.3885L590.642 27.8163C590.465 27.5501 590.44 27.6965 590.137 27.5501C590.256 27.2846 590.469 27.0791 590.73 26.9778C590.327 27.3505 590.907 27.4303 591.172 27.5102C591.096 27.4436 591.172 27.3105 591.084 27.2307C591.828 27.5235 590.983 26.6185 591.866 26.6584V26.8314C592.118 26.6451 592.308 26.339 592.636 26.2592C592.876 26.5387 592.383 26.5387 592.459 26.8181C592.888 26.6318 593.09 25.8466 593.595 26.033C593.443 26.1927 593.191 26.2991 593.04 26.4721C593.183 26.5373 593.338 26.5709 593.494 26.5709C593.65 26.5709 593.805 26.5373 593.948 26.4721L594.743 26.3657H594.529C594.756 25.2877 595.563 25.7801 596.093 24.9284C595.576 25.7402 596.093 25.2877 596.169 25.6869C596.384 25.6869 596.712 25.6869 596.674 25.86C596.901 25.4208 597.33 25.86 597.658 25.2345C597.721 25.3542 598.024 25.1014 598.062 25.4474C598.478 25.1679 597.885 25.2744 597.86 25.1014C598.403 24.4227 599.665 24.9683 600.447 24.0101C601.229 23.4512 601.242 22.9721 601.961 22.4531C602.289 22.5462 601.898 22.9854 601.898 22.9854C602.11 22.9949 602.322 22.9598 602.522 22.8821C602.721 22.8044 602.904 22.6857 603.059 22.5329C603.059 22.6793 603.135 22.7325 603.299 22.8257C603.614 22.666 603.362 22.2934 603.867 22.3067C603.849 22.5197 603.793 22.7273 603.703 22.9188C604.056 22.6527 604.359 22.28 604.712 22.0139C604.889 22.1869 604.586 22.4264 604.498 22.6261C604.914 22.3599 605.583 21.974 605.608 21.588H605.28C605.431 21.5082 605.457 21.8542 605.368 21.9606C605.333 22.0212 605.284 22.0713 605.226 22.1061C605.167 22.1409 605.101 22.1591 605.034 22.1591C604.967 22.1591 604.901 22.1409 604.842 22.1061C604.783 22.0713 604.734 22.0212 604.699 21.9606L604.964 21.7743C604.422 21.1755 603.867 22.3333 603.274 22.5063L603.337 21.8941L602.895 22.5595C602.718 22.4797 602.542 22.2135 602.794 22.0272C602.289 21.934 602.491 22.3599 602.037 22.2135C602.037 22.2135 602.037 22.147 602.037 22.107L601.696 22.4264C601.696 22.28 601.494 22.0804 601.772 22.0671C600.939 22.0671 600.75 22.9055 600.333 22.6128C599.4 23.185 600.333 23.0386 599.778 23.7706L598.945 23.0253V23.4512C598.844 23.4512 598.63 23.531 598.617 23.358C598.327 23.7706 598.731 23.5044 598.617 23.8371C597.999 23.6774 597.355 24.5291 596.977 23.9702C596.901 24.3295 597.532 23.9702 597.078 24.4094C596.699 23.8238 596.497 24.7687 595.942 24.6489C595.942 24.2497 596.459 24.263 595.942 24.1432C595.866 24.8219 595.008 24.3561 594.68 24.6223C594.819 25.0748 593.923 25.128 593.33 25.5406C593.33 25.3675 592.068 25.7535 591.387 25.82V25.7402C591.387 26.2459 590.794 26.4056 590.377 26.6718C590.334 26.561 590.327 26.4385 590.357 26.3231C590.386 26.2077 590.451 26.1058 590.541 26.033L590.125 26.206C590.09 26.3081 590.037 26.4019 589.967 26.4819C589.898 26.5619 589.814 26.6265 589.721 26.6718V26.2858C589.178 26.5254 588.737 27.1375 587.942 27.1908C588.017 27.5235 588.825 27.8562 588.144 28.3619C588.055 28.2022 587.916 27.9227 588.144 27.763C588.144 27.763 587.967 28.0026 587.803 27.976L588.005 27.5767C587.639 27.5767 587.916 27.8828 587.651 27.9626C587.563 27.7098 587.399 27.8562 587.361 27.6432C587.323 27.4303 587.626 27.6433 587.689 27.5235C587.391 27.6138 587.072 27.5854 586.793 27.4436C586.821 27.4775 586.84 27.5176 586.851 27.5607C586.861 27.6039 586.862 27.649 586.854 27.6926C586.845 27.7363 586.828 27.7773 586.802 27.8125C586.776 27.8478 586.743 27.8764 586.705 27.8961C586.15 28.1357 586.402 27.6699 586.036 27.6832C585.96 27.8961 585.544 27.8695 585.658 28.2421C585.494 28.2421 585.405 28.1357 585.304 28.0691C585.077 28.3353 583.967 28.6414 584.434 28.9075H584.522C583.702 29.6528 582.465 29.4665 581.582 29.9988V29.879C581.064 30.2383 580.32 30.4513 580.055 30.8771C579.891 30.8771 579.575 30.7973 579.601 30.6243C579.197 30.8904 579.209 31.0368 578.515 31.0768C578.869 30.7041 578.301 30.957 578.894 30.7574C578.301 30.8638 578.112 30.7574 577.632 31.2897C577.72 30.8904 577.064 31.0501 576.837 31.2897L577.304 31.3695C577.041 31.5127 576.761 31.6158 576.471 31.6756V31.3296C575.209 31.3296 574.717 32.9931 573.543 32.4874C573.354 32.9 574.238 32.4874 574.086 32.9C573.543 33.0464 572.824 32.6604 572.622 32.727C571.827 32.727 572.168 33.6053 571.36 33.7384C571.499 33.8449 571.739 34.2042 571.222 34.5635C570.704 34.9228 570.351 34.2042 570.641 33.9513C570.931 33.6985 570.843 33.9513 570.856 33.9513C570.868 33.9513 571.209 33.6852 570.944 33.6053V33.7783C570.628 33.7783 569.909 34.0312 569.998 33.7118C569.644 34.0179 569.909 34.0312 570.225 33.9913C569.48 33.9913 569.177 34.3905 568.433 34.5236C568.572 34.5236 568.736 34.6966 568.622 34.7365C567.537 34.9494 568.269 35.189 567.6 35.5217C567.133 35.4552 567.6 34.9361 566.931 35.3886C566.452 35.3886 566.704 35.0426 566.83 34.8563C566.288 35.3886 565.568 35.1225 565.202 35.2156L565.493 34.9628C565.34 35.0839 565.169 35.1783 564.988 35.2422L565.278 35.4685C565.064 35.4685 564.9 35.5483 564.862 35.4685C564.723 35.7346 565.19 35.8943 564.862 36.3202C564.559 36.3202 564.13 36.7993 563.903 36.44C564.773 36.2537 563.676 36.0806 564.344 35.7346C564.205 35.8535 564.031 35.9191 563.852 35.9209C563.852 35.9209 563.852 35.8411 563.852 35.7879C562.944 35.7879 563.65 36.3734 562.83 36.6928C562.83 36.4267 562.502 36.3468 562.376 36.44C562.704 36.3202 562.666 36.7461 562.376 37.0388C561.795 37.0388 561.858 37.3849 561.568 37.478H561.909C561.909 37.7309 561.619 37.8107 561.278 38.0236C561.19 37.8639 561.568 37.7708 561.404 37.7442C561.139 38.2898 560.357 37.7442 559.877 38.1833C559.574 38.1833 559.713 37.7841 559.448 37.7708C558.918 38.3031 558.653 37.7708 558.073 38.2233C558.376 38.4495 558.376 38.3697 558.01 38.8354L559.032 38.1967L558.489 38.902C558.817 38.7822 559.107 38.4495 559.322 38.4229C559.082 38.7955 559.082 38.7024 559.322 38.8887C558.716 38.6225 558.514 39.5009 557.896 39.4077L557.644 38.6624C556.748 38.6624 556.382 39.5807 555.309 39.7936H555.675C555.675 40.1396 555.069 40.0864 554.779 40.3393C554.779 40.0731 554.489 40.0598 554.287 39.9666C554.375 40.1396 553.543 40.2461 553.618 40.7651L553.05 40.6187C552.192 40.8184 552.369 41.6967 551.549 41.9496C551.688 41.5902 551.271 41.5503 551.738 41.1511C551.473 41.2575 551.221 41.2975 551.271 41.4705C551.069 41.3773 550.653 42.096 550.337 41.9496C550.262 42.1093 550.337 42.3754 550.009 42.4686C550 42.45 549.996 42.4295 549.996 42.4087C549.996 42.3879 550 42.3674 550.009 42.3488C550.009 42.4686 549.605 42.6948 550.009 42.8678C548.924 42.4153 547.763 43.8127 546.817 43.4268C546.26 43.7519 545.687 44.0451 545.101 44.3051C545.101 44.2253 545.101 44.1853 545.164 44.172C544.356 44.172 544.974 45.0504 544.066 45.1169C543.498 44.8774 544.419 44.731 544.066 44.6777C543.675 43.9192 543.119 45.1835 542.4 44.9306L542.514 44.8241C541.996 44.7177 541.592 45.5295 540.886 45.7424C540.895 45.7238 540.899 45.7033 540.899 45.6825C540.899 45.6617 540.895 45.6412 540.886 45.6226C540.405 46.2479 539.791 46.7449 539.094 47.0732C539.195 46.6873 539.334 46.7937 539.094 46.5276C538.816 46.6873 539.372 47.0067 538.804 47.3261C538.551 47.2329 538.072 47.2462 537.895 46.9268L538.45 46.6873C538.009 46.3546 537.731 46.9801 537.403 47.02V46.8071C536.57 47.2063 536.734 47.712 535.8 48.0314L535.939 48.1379C535.611 48.8299 535.422 48.0314 535.056 48.5904L534.728 48.1645C534.24 48.6264 533.717 49.0448 533.163 49.4155C533.519 48.9082 533.944 48.4597 534.425 48.0846C534.097 48.2177 533.314 48.5637 533.239 48.8698C533.352 48.7767 533.479 48.5904 533.63 48.617C533.327 49.1837 532.831 49.6073 532.242 49.8014C532.015 48.8033 530.45 50.2273 529.718 49.6816C528.683 50.4801 527.371 50.4269 526.033 51.0124C526.778 51.5714 525.655 51.1855 526.033 51.9174C525.731 52.0904 525.604 52.1303 525.554 52.0904L524.443 52.0106C524.141 51.8775 524.683 51.7178 524.595 51.5581C523.888 51.771 524.191 51.3451 523.661 51.3318C523.85 51.5581 523.56 51.8109 523.131 51.8642L523.812 51.9973C522.992 52.7824 522.753 51.6779 521.92 52.463L522.147 52.1037C521.693 52.4364 520.304 52.8224 520.039 53.6209C519.913 53.6209 519.724 53.4079 519.926 53.2615C518.664 53.6475 517.503 54.9517 516.443 54.9384V54.7254C516.241 54.8585 516.178 55.2178 515.837 55.138C515.837 55.0581 515.837 54.9251 515.762 54.9517C515.686 54.9783 515.282 55.5106 514.954 55.5106L515.131 55.2045C513.869 55.4175 513.528 56.4156 512.607 56.9213C512.418 56.3757 511.446 56.562 510.954 56.6418V56.562C509.78 57.1118 508.67 57.8041 507.648 58.6247C506.651 58.332 504.922 59.4099 503.559 59.5563C503.774 59.5563 503.673 59.9955 503.471 60.1419C503.269 60.2883 502.789 60.8472 502.663 60.3149H502.777C502.373 59.9023 501.818 60.3149 501.351 60.448L501.502 61.14C499.938 60.6609 498.398 62.7503 497.426 62.1514C497.187 62.4309 496.821 62.5773 496.581 62.8567L496.467 62.4974C495.687 62.686 494.929 62.9673 494.209 63.3358L494.322 63.0031C493.742 63.2028 493.956 64.334 493.439 64.5336L493.086 64.0678C492.089 64.467 490.915 64.4005 490.095 65.2655C490.073 65.2035 490.074 65.135 490.097 65.0734C490.12 65.0119 490.164 64.9618 490.221 64.9328C489.741 65.1058 488.265 65.2921 488.694 65.9442C488.517 65.4785 487.647 66.3036 487.18 66.7161V66.3435C486.877 66.969 486.902 67.0888 486.309 67.4614C486.145 67.4614 486.082 67.2351 486.309 67.2485C485.741 67.2485 486.044 67.7275 485.363 67.7808L485.514 67.4747C484.984 67.6477 485.073 67.7542 484.871 68.1268C484.669 68.4994 483.861 68.4196 483.672 68.1268C483.664 68.2778 483.608 68.4215 483.511 68.5331C483.414 68.6448 483.284 68.7176 483.142 68.739C483.053 68.6325 483.142 68.5127 483.142 68.4595C482.183 68.566 481.993 69.3645 481.274 69.258C481.259 69.2184 481.235 69.1832 481.204 69.1554C481.174 69.1276 481.137 69.108 481.098 69.0983C481.509 68.9288 481.931 68.7866 482.359 68.6724C482.246 68.353 481.678 68.526 481.956 67.9006C481.602 68.3264 481.022 69.1382 480.429 69.2314C480.388 69.2095 480.35 69.1827 480.315 69.1515C480.19 69.1748 480.075 69.2402 479.987 69.3378C479.825 69.3494 479.665 69.3761 479.508 69.4177C479.344 69.1781 478.814 69.5242 478.536 69.6306C478.687 69.9633 478.296 70.0565 478.738 70.2029C478.738 70.2029 478.738 70.2029 478.952 70.0565L479.066 69.9766L479.747 69.6838C479.596 69.95 479.419 70.1896 479.041 70.1097C478.978 70.3892 478.902 70.682 478.851 70.8284C478.296 70.4823 477.476 70.509 477.274 70.2428C476.492 70.7751 475.331 71.1611 475.028 72.0261C474.813 72.1991 474.687 71.9462 474.561 71.8797C474.675 71.7599 474.839 71.7067 474.876 71.5736C474.46 71.9329 473.476 72.1991 473.526 72.7048C472.845 72.7048 473.716 72.1459 472.908 72.5451L472.971 72.3721C471.078 72.2656 470.725 74.5813 468.58 74.355C468.731 74.355 468.794 74.355 468.845 74.4349C466.636 74.8208 464.718 76.4843 462.447 76.6307C461.816 76.7239 461.866 77.0433 461.589 77.4026L461.324 77.0832L460.87 77.7486C460.125 78.4007 459.065 77.4159 458.182 78.4406L458.409 78.6403C458.005 78.7467 457.235 79.2658 457.147 78.9597C457.147 78.9597 457.147 79.2658 456.907 79.1992L456.831 78.9996L455.986 79.7182C455.191 79.8646 455.822 78.8931 454.724 79.2791C454.346 79.5053 453.778 80.3038 453.98 80.3703C454.181 80.4369 454.434 80.3703 454.522 80.53L454.181 80.7696C454.32 81.3818 454.245 82.1004 455.305 82.1004L455.809 81.4882L456.112 81.7011L455.582 81.9141C455.973 82.0738 456.087 81.7544 456.238 81.5148C456.284 81.575 456.341 81.6241 456.407 81.6585C456.472 81.693 456.544 81.7121 456.617 81.7145L457.046 80.916C457.197 81.1156 456.92 81.4882 457.387 81.4483C457.576 81.0757 456.92 81.0491 457.387 80.6897C457.778 80.8361 457.765 81.0757 458.043 80.6897C458.144 80.8228 458.106 80.9426 457.98 81.0624C458.232 80.7696 458.787 80.6631 458.85 80.2905C459.28 80.4901 459.885 79.7848 460.049 80.357C460.2 80.0314 460.436 79.7587 460.731 79.5718C460.428 80.4369 461.829 79.1726 461.993 79.9445C462.169 79.1992 463.254 79.1194 463.885 78.5205C463.885 78.587 463.822 78.7068 463.747 78.7068C464.038 78.6437 464.339 78.6437 464.63 78.7068C464.504 78.2011 465.072 77.8418 465.299 77.376C465.942 77.6555 465.21 78.068 465.513 78.454C465.349 78.068 466.207 77.7353 465.93 77.4691C466.397 77.6155 466.296 77.4691 466.624 77.8152C466.472 77.1897 466.927 77.5889 467.103 77.0832C467.734 77.1897 467.444 77.6155 467.961 77.1897C467.974 77.1764 467.532 77.6022 467.532 77.6022ZM481.009 71.1211L480.732 71.2542L481.009 71.1211ZM482.17 70.6553C481.994 70.7056 481.821 70.7678 481.653 70.8417C481.577 70.7352 481.577 70.5888 481.653 70.5489C481.729 70.509 481.994 70.6154 482.17 70.6553ZM478.851 69.1914C479.015 69.0717 479.104 69.1116 479.154 69.1914L478.839 69.3511C478.831 69.2976 478.835 69.2428 478.851 69.1914Z" fill="#202020" stroke="black"/>
<path d="M478.675 69.7773C478.675 69.7773 478.675 69.7773 478.612 69.7773H478.75C478.756 69.7331 478.756 69.6883 478.75 69.644L478.675 69.7773Z" fill="#202020"/>
<path d="M498.474 65.0262L498.436 64.9463L498.36 65.0661L498.474 65.0262Z" fill="#202020"/>
<path d="M500.455 60.6742L500.632 60.4478L500.24 60.7275L500.455 60.6742Z" fill="#202020"/>
<path d="M693.057 107.492C693.006 107.439 692.981 107.439 693.057 107.492V107.492Z" fill="#202020"/>
<path d="M682.634 97.7373L682.785 97.8573C682.785 97.8573 682.886 97.8573 682.911 97.7773L682.634 97.7373Z" fill="#202020"/>
<path d="M861.898 116.848C863.033 117.101 860.055 117.155 861.759 117.448C861.607 117.341 863.311 117.021 861.898 116.848Z" fill="#202020"/>
<path d="M935.869 102.648C935.95 102.696 936.041 102.724 936.134 102.728C936.134 102.728 936.058 102.675 935.869 102.648Z" fill="#202020"/>
<path d="M926.178 104.697C925.946 104.711 925.717 104.756 925.496 104.831H925.61C925.791 104.752 925.983 104.707 926.178 104.697Z" fill="#202020"/>
<path d="M916.222 107.306H916.424L916.727 107.2L916.222 107.306Z" fill="#202020"/>
<path d="M723.014 116.902C722.849 116.836 722.695 116.741 722.56 116.622C722.711 116.835 721.184 116.782 723.014 116.902Z" fill="#202020"/>
<path d="M926.178 106.96L924.6 107.267L926.178 106.96Z" fill="#202020"/>
<path d="M794.941 105.403H794.576C794.697 105.419 794.82 105.419 794.941 105.403Z" fill="#202020"/>
<path d="M920.008 108.517C919.701 108.485 919.393 108.485 919.087 108.517L918.922 108.637L920.008 108.517Z" fill="#202020"/>
<path d="M711.758 115.544C713.297 115.903 712.553 115.357 712.919 115.224C714.761 115.517 713.714 115.677 714.307 115.983C715.48 116.143 716.414 115.983 717.272 116.103C717.272 116.103 717.487 116.222 717.272 116.262C718.534 116.169 720.907 116.741 722.32 116.502L722.497 116.608C722.282 116.409 722.257 116.222 722.32 116.089C723.014 116.089 723.582 115.97 723.872 116.222C723.639 116.188 723.401 116.229 723.191 116.342H723.935C724.566 116.741 722.926 116.342 722.913 116.635C724.339 116.635 726.017 116.449 727.09 116.635C727.317 117.008 724.566 116.635 725.979 117.008L724.301 116.781C725.563 117.394 723.279 116.662 724.427 117.327C726.661 117.553 726.951 117.327 729.159 117.447C729.664 117.274 728.995 117.167 729.5 116.994C732.642 116.675 732.024 117.859 734.295 117.38C735.044 116.876 735.947 116.695 736.819 116.875L736.264 117.274C738.422 117.274 737.526 116.662 739.734 116.795C739.343 116.968 738.056 117.021 738.384 117.048C739.847 117.26 739.406 116.768 740.516 116.702L740.769 117.034C741.917 116.954 743.116 116.768 744.34 116.555C745.564 116.342 746.864 116.196 748.125 115.956C747.999 116.076 747.583 116.249 748.125 116.262C751.293 115.677 754.914 115.238 757.981 114.652C758.347 114.479 758.713 114.279 759.079 114.08C759.445 113.88 759.596 114.08 759.318 114.2C760.58 113.987 759.318 114 759.874 113.734C760.429 113.468 760.795 113.654 760.391 113.854C762.954 112.751 765.58 111.818 768.253 111.059L767.874 111.285C769.552 110.806 769.54 110.047 771.142 109.768L770.865 109.928C774.436 108.757 778.322 107.266 781.174 107.12C781.629 106.587 784.796 106.561 784.96 105.988C787.093 105.988 786.499 106.095 789.477 105.988C790.272 105.988 790.626 105.483 791.61 105.363V105.669L792.872 105.283L793.604 105.629L794.512 105.509C794.146 105.509 793.73 105.403 793.781 105.31C794.972 105.118 796.188 105.213 797.339 105.589L800.746 105.443C800.389 105.577 800.014 105.648 799.636 105.656C801.465 105.403 799.951 105.988 801.617 105.762C801.402 105.682 801.756 105.576 801.794 105.536C803.132 105.862 804.497 106.049 805.869 106.095L805.567 106.281C806.828 106.468 808.09 106.747 809.453 106.96C810.816 107.173 812.154 107.572 813.516 107.918C812.57 107.559 812.873 107.266 813.693 107.452L813.933 107.838C814.501 107.838 813.125 107.492 814.248 107.559C815.258 107.931 814.841 108.144 814.248 108.051L815.51 108.344C815.51 108.464 815.258 108.411 815.144 108.504C815.712 108.504 817.176 109.502 817.996 109.435V109.555C820.684 110.54 821.933 110.886 824.129 111.764C824.268 111.525 825.101 111.924 825.832 111.964C827.564 112.829 829.337 113.597 831.145 114.266C832.584 114.639 831.625 114.186 832.306 114.266C832.306 114.546 834.338 115.158 833.252 114.998C835.335 115.663 837.46 116.165 839.612 116.502C839.297 116.316 838.931 116.169 839.145 116.129C839.713 116.236 840.407 116.568 840.281 116.675H840.13C842.052 116.988 843.953 117.432 845.821 118.006C847.533 118.466 849.291 118.711 851.058 118.738H850.894C851.878 118.738 852.862 118.738 853.846 118.738C855.197 118.871 853.026 118.871 854.023 119.097C855.361 119.036 856.701 119.058 858.036 119.164C859.237 119.256 860.443 119.256 861.645 119.164C863.689 120.015 868.825 118.977 871.563 119.243L871.399 119.07C872.093 118.857 872.257 119.07 872.775 119.07C872.686 118.937 872.005 118.964 872.434 118.831C878.365 118.152 884.7 117.846 890.782 116.968C893.003 116.635 891.892 115.863 894.732 115.757L894 116.236C898.366 114.905 903.098 114.399 907.3 112.536C907.121 112.717 906.905 112.854 906.669 112.935C907.815 112.736 908.907 112.282 909.874 111.605C910.53 111.378 910.089 111.711 910.505 111.605C911.426 111.418 912.612 110.527 913.142 110.593C913.243 110.593 912.928 110.753 912.764 110.819C913.307 110.513 915.439 109.954 914.808 109.874C916.411 109.489 917.774 108.81 919.073 108.544C919.818 107.998 921.812 107.945 921.976 107.452C921.976 107.918 924.84 107.106 925.761 106.681C925.458 106.893 926.67 106.681 926.317 106.907C927.465 106.641 928.5 106.361 928.26 106.175C930.481 106.295 932.512 104.977 933.825 105.483C937.059 104.753 940.328 104.207 943.617 103.846C943.529 104.285 940.147 104.192 940.324 104.658C942.813 104.088 945.348 103.776 947.895 103.726C948.665 103.726 947.466 103.939 947.213 104.019C950.179 103.766 952.955 104.125 955.618 104.099C955.43 104.16 955.234 104.187 955.037 104.179C955.567 104.179 956.299 104.338 956.211 104.179H955.693C955.29 103.992 955.82 103.872 956.463 103.793C956.955 103.78 957.445 103.722 957.927 103.62C956.98 104.099 960.539 104.072 959.05 104.644C959.391 104.644 959.832 104.644 959.769 104.458C960.274 104.551 960.425 104.658 959.895 104.751C960.872 104.723 961.85 104.759 962.823 104.857C962.823 104.95 962.457 104.937 962.268 105.03C963.327 104.91 964.399 104.982 965.435 105.243C965.347 105.243 965.435 105.39 965.069 105.243C967.384 105.433 969.686 105.78 971.959 106.281C971.088 106.534 972.83 106.614 972.905 107.027L974.357 107.239L973.814 106.933C974.981 107.091 976.139 107.313 977.284 107.599L976.325 107.519L978.685 108.025L977.423 107.559C978.685 107.679 977.423 107.066 979.026 107.559C979.656 107.748 980.275 107.974 980.881 108.238C981.635 108.256 982.384 108.391 983.102 108.637C983.316 108.81 982.811 108.996 982.95 109.103C983.632 108.956 985.903 109.755 986.736 109.622C986.458 109.622 986.408 109.821 986.483 109.874L987.051 109.755C987.619 109.981 987.695 110.034 987.556 110.167C989.297 110.633 987.102 109.568 989.133 110.274C988.986 110.285 988.839 110.285 988.692 110.274C990.761 110.886 992.755 111.072 994.66 111.605C995.153 112.097 992.957 111.312 993.55 111.764C996.339 112.336 999.392 112.536 1002.09 113.095L1001.6 112.962C1002.04 112.523 1003.58 113.548 1005 113.481C1004.65 113.481 1004.53 113.707 1004.62 113.667C1006.85 113.957 1009.1 114.068 1011.34 114L1010.98 114.106C1012.09 114.293 1013.92 114.213 1015.12 114.306C1015.47 114.16 1016.16 114.186 1015.73 113.987C1016.64 114.134 1017.56 114.17 1018.47 114.093C1019.35 114.048 1020.22 113.928 1021.07 113.734C1022.71 113.32 1024.37 113.04 1026.04 112.895C1025.67 112.989 1025.15 113.228 1025.46 113.162C1026.37 112.895 1027.28 112.656 1028.18 112.376C1027.91 112.23 1027.79 112.376 1027.17 112.297C1027.72 112.003 1028.29 111.762 1028.88 111.578C1027.72 112.097 1028.98 111.937 1029.54 111.897C1029.44 111.897 1029.54 111.724 1029.54 111.671C1031.05 111.671 1029.65 111.165 1031.62 110.819V110.979C1032.29 110.616 1032.97 110.301 1033.68 110.034C1034.08 110.181 1032.97 110.42 1032.98 110.646C1033.94 110.105 1034.94 109.659 1035.97 109.316C1035.55 109.555 1034.9 109.835 1034.47 110.061C1035.17 110.009 1035.86 109.843 1036.5 109.568H1036.43L1038.26 108.996L1037.78 109.089C1038.85 107.918 1040.4 107.865 1042.02 106.72C1040.44 107.825 1041.82 107.08 1041.79 107.412C1042.27 107.306 1043.05 107.12 1042.83 107.266C1043.57 106.707 1044.28 106.88 1045.35 106.082C1045.43 106.082 1046.25 105.749 1046.13 106.082C1047.21 105.589 1045.83 106.015 1045.88 105.869C1046.81 105.385 1047.79 105.023 1048.8 104.791C1050 104.529 1051.17 104.113 1052.28 103.553C1054.36 102.781 1054.68 102.329 1056.64 101.65C1057.36 101.65 1056.16 102.103 1056.16 102.129C1057.17 102.025 1058.17 101.806 1059.13 101.477C1058.93 101.61 1059.13 101.623 1059.5 101.663C1060.32 101.464 1059.99 101.184 1061.11 101.118C1060.87 101.326 1060.61 101.509 1060.34 101.663C1061.3 101.344 1062.26 101.078 1063.27 100.812C1063.56 100.931 1062.69 101.158 1062.34 101.331C1063.46 101.167 1064.57 100.849 1065.62 100.386H1064.86C1065.28 100.306 1065.11 100.572 1064.86 100.679C1063.9 101.038 1063.42 100.798 1063.36 100.679L1064.08 100.506C1063.26 100.08 1061.14 100.971 1059.7 101.317L1060.23 100.772L1058.8 101.437C1058.46 101.437 1058.2 101.224 1058.92 101.011C1057.82 101.011 1058.02 101.357 1057.07 101.331C1056.96 101.331 1057 101.331 1057.07 101.251C1056.75 101.371 1056.4 101.464 1056.09 101.61C1056.27 101.464 1055.85 101.357 1056.49 101.264C1054.61 101.517 1053.63 102.382 1052.87 102.262H1053.01C1050.49 103.127 1052.85 102.608 1051.08 103.593L1049.62 103.287L1049.46 103.66C1049.2 103.739 1048.69 103.886 1048.74 103.739C1047.86 104.258 1048.95 103.739 1048.45 104.179C1047.19 104.365 1045.15 105.509 1044.67 105.217C1044.3 105.603 1045.93 104.937 1044.67 105.589C1044.13 105.243 1043.22 106.268 1042.03 106.494C1042.28 106.108 1043.37 105.815 1042.18 106.042C1041.68 106.734 1040.01 106.827 1039.12 107.293C1039.21 107.652 1037.16 108.264 1035.65 108.983C1035.65 108.863 1032.63 109.914 1031.14 110.314C1030.95 110.739 1029.41 111.139 1028.31 111.551C1028.31 111.325 1028.48 111.192 1029.06 110.912L1028.01 111.232C1027.63 111.495 1027.2 111.672 1026.75 111.751L1026.95 111.432C1025.45 111.971 1023.89 112.332 1022.31 112.509C1022.31 112.776 1023.9 112.989 1021.96 113.454C1021.85 113.335 1021.75 113.108 1022.26 112.975C1021.96 113.08 1021.65 113.147 1021.34 113.175L1022.08 112.829C1021.22 112.829 1021.66 113.082 1021 113.162C1021 112.975 1020.48 113.162 1020.55 112.935C1020.84 112.918 1021.12 112.873 1021.4 112.802C1021.02 112.802 1020.59 112.802 1020.23 112.882C1019.94 112.874 1019.66 112.83 1019.39 112.749C1019.47 112.855 1019.39 113.015 1018.86 113.082C1017.42 113.201 1018.36 112.882 1017.51 112.829C1017.17 113.002 1016.25 112.922 1016.25 113.215C1016.01 113.241 1015.77 113.17 1015.58 113.015C1014.84 113.135 1012.09 113.015 1012.93 113.348H1013C1011.73 113.479 1010.46 113.43 1009.21 113.201C1007.95 113.015 1006.69 112.895 1005.42 112.776V112.669C1003.96 112.589 1002.19 112.297 1001.15 112.31C1000.72 112.23 1000.16 111.951 1000.36 111.871C999.408 111.841 998.461 111.671 997.55 111.365C998.686 111.365 997.197 111.139 998.698 111.471C997.647 111.082 996.544 110.867 995.43 110.833C995.998 110.7 994.421 110.274 993.727 110.194L994.686 110.593C993.928 110.46 993.272 110.287 992.604 110.114L993.033 109.874C990.219 108.823 987.657 109.316 985.6 108.104C984.78 108.104 987.14 108.65 986.395 108.743C985.07 108.371 983.783 107.572 983.367 107.412C981.575 106.774 981.562 107.412 979.669 106.867C979.896 107.04 980.06 107.399 978.597 107.173C977.133 106.947 977.07 106.281 977.928 106.401C978.256 106.401 978.395 106.534 978.369 106.574C978.811 106.574 979.392 106.72 978.887 106.468L978.698 106.547C978.054 106.268 976.174 105.829 976.679 105.749C975.644 105.616 976.212 105.829 976.943 106.068C975.265 105.496 974.256 105.443 972.514 104.924C972.779 105.057 973.006 105.243 972.729 105.19C970.205 104.485 971.543 105.19 969.763 104.831C968.792 104.445 970.205 104.485 968.388 104.258C967.315 103.939 968.211 103.912 968.665 103.899C967.317 103.737 965.989 103.425 964.703 102.968H965.586C965.056 102.968 964.64 102.848 964.198 102.781L964.665 103.087C964.161 102.968 963.732 102.901 963.757 102.808C963.202 102.874 964.098 103.26 963.025 103.314C962.369 103.087 960.955 103.114 960.754 102.768C962.873 103.207 960.564 102.422 962.369 102.648C961.943 102.622 961.521 102.555 961.107 102.449C961.031 102.449 961.182 102.449 961.321 102.449C959.315 101.876 960.337 102.675 958.217 102.449C958.507 102.302 957.75 102.063 957.397 102.063C958.268 102.156 957.788 102.395 956.98 102.449C956.251 102.32 955.509 102.289 954.772 102.355L955.592 102.475C954.953 102.58 954.301 102.58 953.662 102.475C953.662 102.329 954.532 102.475 954.204 102.355C953.608 102.436 953.002 102.386 952.425 102.209C951.736 102.062 951.031 102.018 950.33 102.076C949.649 101.943 950.267 101.743 949.674 101.65C948.008 101.823 947.857 101.397 946.103 101.65C946.62 101.876 946.696 101.81 945.485 102.089L948.349 101.823L946.519 102.222C947.377 102.222 948.336 101.996 948.854 102.063C947.983 102.236 948.072 102.209 948.488 102.395C947.302 102.063 946.153 102.675 944.778 102.475V101.863C942.696 101.703 941.156 102.409 938.469 102.555H939.327C938.499 102.772 937.654 102.91 936.803 102.968C936.803 102.768 936.311 102.768 935.932 102.688C935.995 102.834 934.001 102.941 933.812 103.38L932.55 103.3C930.405 103.54 930.203 104.245 928.172 104.551C928.739 104.232 927.793 104.258 929.131 103.859C928.462 103.979 927.869 104.059 927.869 104.192C927.44 104.192 926.026 104.844 925.345 104.791C925.038 105.072 924.662 105.256 924.26 105.323C924.171 105.323 924.26 105.23 924.26 105.23C924.26 105.23 923.111 105.629 923.805 105.696C921.61 105.563 918.064 107.213 916.171 107.266L911.729 108.876C911.805 108.796 911.729 108.783 911.956 108.717C910.114 109.182 911.035 109.635 908.953 110.194C907.817 110.274 909.963 109.622 909.294 109.755C908.802 109.222 906.871 110.793 905.432 110.873L905.735 110.726C904.675 110.873 903.3 111.778 901.558 112.177C901.558 112.177 901.558 112.097 901.558 112.084C899.933 112.829 898.243 113.404 896.511 113.8C896.99 113.441 897.255 113.494 896.889 113.321C896.132 113.508 897.192 113.681 895.627 114.067C895.11 114.067 894 114.067 893.798 113.88L895.224 113.587C894.429 113.374 893.381 113.973 892.624 114.04L892.687 113.867C890.517 114.319 890.542 114.705 888.17 115.065L888.435 115.144C887.173 115.743 887.312 115.144 886.062 115.584L885.621 115.251C884.788 115.477 882.668 116.049 881.141 116.316C882.359 115.877 883.597 115.504 884.851 115.198C883.736 115.316 882.633 115.543 881.557 115.876C881.914 115.755 882.282 115.679 882.655 115.65C881.35 116.169 879.982 116.491 878.592 116.608C878.819 115.823 874.15 116.888 872.876 116.382C869.742 116.742 866.589 116.884 863.437 116.808C864.699 117.407 862.415 116.808 862.642 117.42C862.244 117.477 861.841 117.477 861.443 117.42L858.919 117.048C858.339 116.861 859.702 116.914 859.626 116.768C857.847 116.768 858.881 116.515 857.708 116.342C857.947 116.555 857.077 116.675 856.08 116.502C856.547 116.608 857.014 116.768 857.493 116.848C854.969 117.061 855.373 116.209 852.862 116.369L853.67 116.236C853.026 116.236 851.84 116.236 850.666 116.103C849.669 115.967 848.66 115.967 847.663 116.103C847.449 115.996 847.171 115.797 847.739 115.823L843.297 115.171C841.851 115.037 840.426 114.71 839.057 114.2L839.309 114.12C838.734 114.112 838.163 114.009 837.619 113.814C837.619 113.814 837.884 113.721 837.619 113.654C836.856 113.592 836.104 113.422 835.385 113.148H836.054C833.24 112.084 831.549 112.084 829.126 111.312C829.277 110.899 827.107 109.888 826.022 109.395C823.107 108.265 820.127 107.332 817.1 106.601C815.296 105.443 810.463 104.378 807.22 103.593C807.712 103.779 807.081 103.926 806.5 103.859C805.92 103.793 804.343 103.859 804.507 103.526H804.784C803.708 103.061 802.552 102.839 801.39 102.874L801.15 103.393C800.259 103.173 799.351 103.044 798.437 103.007C797.45 102.921 796.458 102.921 795.471 103.007C793.948 103.23 792.402 103.23 790.878 103.007C790.108 103.22 789.137 103.314 788.354 103.526V103.234C787.269 103.234 786.449 103.393 785.578 103.513C784.708 103.633 783.761 103.753 782.449 104.085L782.954 103.766C781.452 104.072 781.212 104.924 779.862 105.27L779.357 104.964C776.759 105.435 774.22 106.211 771.786 107.279C771.786 107.2 771.786 107.066 772.24 106.907C771.054 107.306 767.634 108.238 768.24 108.637C768.101 108.304 765.716 109.515 764.454 110.127L764.58 109.795C763.808 110.429 762.931 110.908 761.994 111.205C761.615 111.285 761.615 111.099 762.132 111.006C760.871 111.272 761.224 111.565 759.609 111.857L760.139 111.525C759.475 111.697 758.861 112.035 758.347 112.509C757.47 112.838 756.532 112.948 755.608 112.829C755.146 113.213 754.581 113.437 753.993 113.468C753.88 113.388 754.145 113.281 754.283 113.228C752.05 113.454 751.066 114.186 749.488 114.12C749.488 114.027 749.337 114 749.211 113.987C750.977 113.76 752.378 113.494 752.252 113.534C752.252 113.281 750.801 113.534 751.861 112.949C750.448 113.528 748.973 113.921 747.469 114.12H747.28H747.419C747.125 114.149 746.834 114.202 746.548 114.279C746.094 114.279 745.816 114.279 745.387 114.279C744.6 114.197 743.805 114.233 743.027 114.386C743.116 114.665 742.169 114.705 743.027 114.852C742.914 114.852 743.154 114.852 743.633 114.745H743.936L745.715 114.546C745.097 114.797 744.433 114.902 743.772 114.852C743.431 115.065 743.04 115.291 742.813 115.397C741.803 115.105 739.898 114.985 739.633 114.759C737.442 114.902 735.262 115.2 733.109 115.65C732.945 115.68 732.777 115.676 732.614 115.637C732.452 115.598 732.298 115.526 732.163 115.424C732.483 115.362 732.799 115.277 733.109 115.171C731.847 115.344 729.412 115.171 729.109 115.584C727.544 115.371 730.005 115.278 727.847 115.264L728.137 115.171C723.96 114.413 721.172 115.757 716.603 114.253C716.792 114.287 716.972 114.359 717.134 114.466C711.909 113.308 706.231 112.31 701.537 109.648C700.75 109.216 699.894 108.94 699.013 108.836L698.836 108.424L697.284 108.011C695.177 107.16 694.205 105.483 691.605 104.325L691.807 104.711C690.962 104.112 689.069 102.941 689.284 102.848C689.159 102.836 689.038 102.798 688.928 102.736C688.817 102.674 688.72 102.59 688.64 102.488V102.342C687.908 101.916 687.201 101.464 686.482 101.011C685.044 99.6804 687.075 100.718 684.93 98.842C684.097 98.2032 682.406 97.1386 682.633 97.5112C682.861 97.8838 683.378 98.3496 683.302 98.4827L682.533 97.8705C682.116 98.0968 681.271 97.8705 682.835 99.8401L684.287 100.758L684.564 101.291L683.479 100.359C683.866 100.89 684.386 101.296 684.981 101.53C685.061 101.776 685.2 101.997 685.384 102.169C685.914 102.409 686.432 102.648 686.949 102.861C686.949 103.141 686.154 102.688 686.949 103.46C687.694 103.766 686.583 102.688 687.681 103.353C688.224 104.006 687.933 104.019 688.804 104.418C688.804 104.604 688.64 104.551 688.312 104.418C689.056 104.941 689.846 105.387 690.672 105.749C691.24 106.441 693.107 107.226 692.83 107.559C693.558 107.766 694.268 108.042 694.95 108.384C693.473 108.171 697.473 109.808 696.918 110.114C698.041 110.194 700.414 111.605 702.231 112.044C702.07 112.056 701.909 112.024 701.764 111.951C702.374 112.253 702.968 112.591 703.543 112.962C703.795 112.643 705.335 113.135 706.231 113.162C707.329 113.933 705.373 113.361 705.638 113.827C705.638 113.508 707.833 114.226 707.493 113.827C708.363 114.333 708.262 114.186 708.666 114.639C708.944 114.226 709.562 114.812 710.408 114.719C711.67 115.317 710.66 115.264 712.187 115.477C713.133 115.69 711.758 115.544 711.758 115.544ZM748.075 115.77L747.33 115.89L748.075 115.77ZM751.104 115.331L749.842 115.517C749.728 115.437 749.842 115.317 750.132 115.278C749.917 115.371 750.637 115.317 751.104 115.331ZM744.466 114.213C744.697 114.142 744.942 114.142 745.173 114.213L744.34 114.333C744.376 114.286 744.418 114.246 744.466 114.213Z" fill="#202020"/>
<path d="M743.696 114.666H743.507H743.785L743.949 114.559L743.696 114.666Z" fill="#202020"/>
<path d="M791.673 105.669V105.603L791.408 105.669H791.673Z" fill="#202020"/>
<path d="M917.912 106.547L918.215 106.774C918.72 106.587 918.733 106.201 917.912 106.547Z" fill="#202020"/>
<path d="M888.738 114.892C888.167 114.778 887.577 114.834 887.034 115.052C887.715 114.972 888.409 114.985 888.738 114.892Z" fill="#202020"/>
<path d="M799.686 103.034L800.317 102.954L799.144 103.007L799.686 103.034Z" fill="#202020"/>
<path d="M9.41675 13.1509H39.9544C57.9742 13.1509 70.2397 21.6415 70.2397 38.6095V38.8091C70.2397 56.1097 57.7344 65.2924 39.4118 65.2924H32.0929V84.709H9.41675V13.1509ZM38.2004 48.218C44.0177 48.218 47.9043 45.4632 47.9043 40.3395V40.1399C47.9043 34.9231 44.3079 32.2748 38.3013 32.2748H32.0929V48.2446L38.2004 48.218Z" stroke="black" stroke-miterlimit="10"/>
<path d="M74.5428 28.894H96.5502V40.1395C99.5535 32.5804 104.399 27.6697 113.131 28.0822V52.7157H110.797C101.497 52.7157 96.5502 58.1322 96.5502 70.4955V84.7086H74.5428V28.894Z" stroke="black" stroke-miterlimit="10"/>
<path d="M114.785 57.0011V56.8015C114.785 41.0579 127.189 27.5234 144.641 27.5234C162.093 27.5234 174.295 40.8316 174.295 56.5619V56.7616C174.295 72.5052 161.891 86.0396 144.439 86.0396C126.987 86.0396 114.785 72.7447 114.785 57.0011ZM153.171 57.0011V56.8015C153.219 55.5449 153.03 54.2909 152.616 53.1116C152.202 51.9322 151.571 50.8508 150.76 49.9294C149.948 49.008 148.972 48.2649 147.887 47.7427C146.803 47.2206 145.631 46.9297 144.439 46.8869C139.505 46.8869 135.909 51.2786 135.909 56.6019V56.8015C135.861 58.058 136.05 59.312 136.464 60.4914C136.878 61.6708 137.509 62.7522 138.32 63.6736C139.132 64.595 140.108 65.3381 141.193 65.8602C142.277 66.3824 143.449 66.6732 144.641 66.7161C149.575 66.7161 153.159 62.3244 153.159 57.0011H153.171Z" stroke="black" stroke-miterlimit="10"/>
<path d="M178.055 94.3172L184.844 80.317C190.678 83.7695 197.247 85.6012 203.936 85.6403C212.177 85.6403 216.555 81.1421 216.555 73.3702V71.7333C214.682 74.106 212.341 76.0206 209.696 77.3442C207.05 78.6679 204.164 79.3689 201.236 79.3988C187.57 79.3988 177.689 69.1781 177.689 53.7406V53.5277C177.689 37.8906 187.784 27.5634 199.974 27.5634C203.013 27.4503 206.038 28.0424 208.835 29.298C211.633 30.5536 214.135 32.442 216.164 34.8297V28.8943H238.172V70.6021C238.172 80.9292 236.14 87.9825 231.282 93.0929C226.423 98.2032 219.268 101.264 207.445 101.264C197.259 101.495 187.173 99.1105 178.055 94.3172V94.3172ZM216.644 53.6342V53.4345C216.644 48.6303 213.148 44.7443 207.81 44.7443C202.473 44.7443 198.977 48.7367 198.977 53.6342V53.8338C198.977 58.638 202.46 62.4309 207.81 62.4309C213.161 62.4309 216.644 58.5449 216.644 53.6342V53.6342Z" stroke="black" stroke-miterlimit="10"/>
<path d="M244.759 28.894H266.754V40.1395C269.769 32.5804 274.615 27.6697 283.335 28.0822V52.7157H281.013C271.7 52.7157 266.754 58.1322 266.754 70.4955V84.7086H244.759V28.894Z" stroke="black" stroke-miterlimit="10"/>
<path d="M284.963 57.1075V56.9079C284.963 40.246 296.32 27.6299 312.207 27.6299C331.009 27.6299 339.728 41.4305 339.728 58.3984C339.728 59.6361 339.728 61.06 339.64 62.2844H305.569C306.2 64.5303 307.529 66.4874 309.341 67.8414C311.154 69.1954 313.345 69.8677 315.563 69.7503C319.538 69.7503 322.832 67.8073 326.315 64.0278L338.138 73.9157C332.914 81.0755 325.444 86.0794 314.011 86.0794C296.698 86.0395 284.963 74.488 284.963 57.1075ZM319.664 51.9972C319.185 46.6739 316.182 43.613 312.295 43.613C308.623 43.613 305.986 46.8868 305.317 51.9972H319.664Z" stroke="black" stroke-miterlimit="10"/>
<path d="M340.788 77.9085L348.233 64.7733C354.101 68.6848 360.866 70.8421 367.805 71.0149C369.938 71.0149 371.01 70.4959 371.01 69.1783V68.9654C371.01 67.8475 370.039 67.1289 364.701 65.6916C351.363 62.2182 343.186 58.4386 343.186 46.8871V46.6875C343.186 34.4174 352.486 27.5636 366.253 27.5636C374.548 27.4659 382.719 29.6835 389.939 33.9915L382.961 47.7921C377.333 44.5183 370.544 42.5753 366.089 42.5753C363.957 42.5753 362.985 43.2008 362.985 44.3187V44.5183C362.985 45.6495 364.158 46.3681 369.484 47.7921C382.86 51.2655 390.936 55.1515 390.936 66.6099V66.8095C390.936 78.9732 382.304 86.0265 367.957 86.0265C358.337 86.2291 348.878 83.4028 340.788 77.9085Z" stroke="black" stroke-miterlimit="10"/>
<path d="M390.709 77.9084L398.166 64.72C404.039 68.6313 410.807 70.7885 417.751 70.9615C419.883 70.9615 420.943 70.4425 420.943 69.125V68.9121C420.943 67.7942 419.984 67.0755 414.634 65.6383C401.233 62.2181 393.03 58.4385 393.03 46.887V46.6874C393.03 34.4173 402.343 27.5636 416.098 27.5636C424.414 27.4521 432.609 29.6702 439.846 33.9914L432.868 47.792C427.253 44.5182 420.464 42.5752 416.009 42.5752C413.877 42.5752 412.905 43.2007 412.905 44.3186V44.5182C412.905 45.6494 414.066 46.368 419.404 47.792C432.78 51.2654 440.856 55.1514 440.856 66.6098V66.8094C440.856 78.9731 432.237 86.0264 417.89 86.0264C408.265 86.2333 398.801 83.4067 390.709 77.9084V77.9084Z" stroke="black" stroke-miterlimit="10"/>
<path d="M445.954 13.1509H467.179L491.319 44.7445V13.1509H513.806V84.709H493.616L468.378 51.6914V84.709H445.954V13.1509Z" stroke="black" stroke-miterlimit="10"/>
<path d="M519.321 57.0011V56.8015C519.321 41.0579 531.725 27.5234 549.177 27.5234C566.629 27.5234 578.831 40.8316 578.831 56.5619V56.7616C578.831 72.5052 566.427 86.0396 548.988 86.0396C531.548 86.0396 519.321 72.7447 519.321 57.0011ZM557.707 57.0011V56.8015C557.756 55.5456 557.569 54.2919 557.157 53.1126C556.744 51.9333 556.115 50.8517 555.304 49.9302C554.494 49.0086 553.518 48.2653 552.434 47.743C551.35 47.2206 550.179 46.9297 548.988 46.8869C544.041 46.8869 540.457 51.2786 540.457 56.6019V56.8015C540.408 58.0574 540.595 59.3111 541.008 60.4904C541.42 61.6697 542.05 62.7512 542.86 63.6728C543.671 64.5944 544.646 65.3377 545.73 65.86C546.814 66.3823 547.986 66.6733 549.177 66.7161C554.123 66.7161 557.707 62.3244 557.707 57.0011Z" stroke="black" stroke-miterlimit="10"/>
<path d="M586.882 65.9975V46.7805H580.673V28.8943H586.882V14.894H608.876V28.8943H621.091V46.7805H608.876V60.8871C608.876 65.0792 610.719 66.623 614.214 66.623C616.534 66.5393 618.812 65.9455 620.902 64.8796V82.7658C616.504 84.9278 611.695 85.9977 606.845 85.8932C593.86 85.8932 586.882 79.5985 586.882 65.9975Z" stroke="black" stroke-miterlimit="10"/>
<path d="M626.618 13.1509H657.143C675.176 13.1509 687.492 21.6415 687.492 38.6095V38.8091C687.492 56.1097 674.987 65.2924 656.664 65.2924H649.294V84.709H626.58L626.618 13.1509ZM655.402 48.218C661.219 48.218 665.093 45.4632 665.093 40.3395V40.1399C665.093 34.9231 661.51 32.2748 655.503 32.2748H649.294V48.2446L655.402 48.218Z" stroke="black" stroke-miterlimit="10"/>
<path d="M689.612 57.1075V56.9079C689.612 40.246 700.969 27.6299 716.856 27.6299C735.658 27.6299 744.378 41.4305 744.378 58.3984C744.378 59.6361 744.378 61.06 744.277 62.2844H710.206C710.837 64.5303 712.166 66.4874 713.978 67.8414C715.791 69.1954 717.982 69.8677 720.2 69.7503C724.163 69.7503 727.469 67.8073 730.951 64.0278L742.826 73.9157C737.589 81.0755 730.131 86.0794 718.699 86.0794C701.348 86.0395 689.612 74.488 689.612 57.1075ZM724.276 51.9972C723.797 46.6739 720.793 43.613 716.907 43.613C713.222 43.613 710.597 46.8868 709.928 51.9972H724.276Z" stroke="black" stroke-miterlimit="10"/>
<path d="M749.223 28.894H771.218V40.1395C774.234 32.5804 779.08 27.6697 787.799 28.0822V52.7157H785.477C776.165 52.7157 771.218 58.1322 771.218 70.4955V84.7086H749.223V28.894Z" stroke="black" stroke-miterlimit="10"/>
<path d="M795.648 46.7804H789.44V28.8942H795.648C795.749 22.9721 797.1 18.1678 800.393 14.6811C803.977 10.9016 808.633 9.35782 815.902 9.35782C820.44 9.19239 824.978 9.70768 829.379 10.8883V25.4208C827.057 24.8613 824.681 24.5889 822.299 24.609C818.905 24.609 817.164 26.033 817.164 29.1072V29.5064H829.379V46.807H817.656V84.7354H795.648V46.7804Z" stroke="black" stroke-miterlimit="10"/>
<path d="M830.275 57.1075V56.9079C830.275 40.246 841.632 27.6299 857.506 27.6299C876.308 27.6299 885.041 41.4305 885.041 58.3984C885.041 59.636 885.041 61.06 884.94 62.2843H850.869C851.499 64.528 852.826 66.4834 854.636 67.8371C856.445 69.1909 858.634 69.8646 860.85 69.7502C864.825 69.7502 868.119 67.8072 871.614 64.0277L883.463 73.9157C878.226 81.0356 870.769 86.0394 859.298 86.0394C841.972 86.0394 830.275 74.4879 830.275 57.1075ZM864.976 51.9971C864.484 46.6739 861.481 43.613 857.607 43.613C853.922 43.613 851.298 46.8868 850.629 51.9971H864.976Z" stroke="black" stroke-miterlimit="10"/>
<path d="M888.208 57.1075V56.9078C888.208 41.2707 899.842 27.6299 917.092 27.6299C928.727 27.6299 936.967 33.9646 941.068 43.0673L925.269 52.4762C923.427 48.8963 921.105 46.8469 917.521 46.8469C912.865 46.8469 909.37 51.1454 909.37 56.655V56.8679C909.37 62.6969 912.865 66.889 917.231 66.889C921.105 66.889 923.339 64.8395 925.471 61.2596L941.459 70.8681C936.715 80.1838 928.664 86.1059 916.07 86.1059C912.427 86.1624 908.81 85.4538 905.429 84.0213C902.049 82.5888 898.972 80.4611 896.379 77.7622C893.786 75.0633 891.728 71.8471 890.325 68.301C888.922 64.7549 888.202 60.9498 888.208 57.1075V57.1075Z" stroke="black" stroke-miterlimit="10"/>
<path d="M948.892 65.9974V46.7804H942.684V28.8942H948.892V14.894H970.899V28.8942H983.102V46.7804H970.899V60.8871C970.899 65.0792 972.729 66.6229 976.224 66.6229C978.545 66.5408 980.823 65.9469 982.912 64.8795V82.7657C978.512 84.9311 973.698 86.0011 968.842 85.8931C955.858 85.8931 948.892 79.5984 948.892 65.9974Z" stroke="black" stroke-miterlimit="10"/>
<path d="M987.846 10.0366H1010.56V24.9152H987.846V10.0366ZM988.225 28.8411H1010.23V84.7089H988.225V28.8411Z" stroke="black" stroke-miterlimit="10"/>
<path d="M1015.37 57.0011V56.8015C1015.37 41.0579 1027.77 27.5234 1045.22 27.5234C1062.68 27.5234 1074.88 40.8316 1074.88 56.5619V56.7616C1074.88 72.5052 1062.47 86.0396 1045.02 86.0396C1027.57 86.0396 1015.37 72.7447 1015.37 57.0011ZM1053.75 57.0011V56.8015C1053.8 55.5449 1053.61 54.2909 1053.2 53.1116C1052.79 51.9322 1052.15 50.8508 1051.34 49.9294C1050.53 49.008 1049.56 48.2649 1048.47 47.7427C1047.39 47.2206 1046.21 46.9297 1045.02 46.8869C1040.09 46.8869 1036.49 51.2786 1036.49 56.6019V56.8015C1036.44 58.058 1036.63 59.312 1037.05 60.4914C1037.46 61.6708 1038.09 62.7522 1038.9 63.6736C1039.72 64.595 1040.69 65.3381 1041.78 65.8602C1042.86 66.3824 1044.03 66.6732 1045.22 66.7161C1050.16 66.7161 1053.75 62.3244 1053.75 57.0011V57.0011Z" stroke="black" stroke-miterlimit="10"/>
<path d="M1079.81 28.8939H1101.82V36.6526C1105.21 32.048 1110.54 27.5498 1118.01 27.5498C1129.15 27.5498 1136.13 35.3218 1136.13 47.898V84.7085H1114.2V55.4305C1114.2 50.6262 1111.49 47.8581 1108.18 47.8581C1104.87 47.8581 1101.87 50.6262 1101.87 55.4305V84.7085H1079.81V28.8939Z" stroke="black" stroke-miterlimit="10"/>
</g>
<defs>
<filter id="filter0_f_7_2403" x="2.00012" y="8.36719" width="1132.71" height="97.9517" filterUnits="userSpaceOnUse" color-interpolation-filters="sRGB">
<feFlood flood-opacity="0" result="BackgroundImageFix"/>
<feBlend mode="normal" in="SourceGraphic" in2="BackgroundImageFix" result="shape"/>
<feGaussianBlur stdDeviation="1.5" result="effect1_foregroundBlur_7_2403"/>
</filter>
<linearGradient id="paint0_linear_7_2403" x1="4964.51" y1="1389.82" x2="20207.1" y2="7067.93" gradientUnits="userSpaceOnUse">
<stop stop-color="#748BEF" stop-opacity="0.94"/>
<stop offset="0.44" stop-color="#2766D2"/>
<stop offset="0.51" stop-color="#4C98EA"/>
<stop offset="0.59" stop-color="#51ACEC"/>
<stop offset="0.68" stop-color="#54B8ED"/>
<stop offset="0.76" stop-color="#55BCED"/>
<stop offset="0.85" stop-color="#54BDEB"/>
<stop offset="0.9" stop-color="#4FC2E3"/>
<stop offset="0.94" stop-color="#47CAD5"/>
<stop offset="0.98" stop-color="#3CD5C2"/>
<stop offset="1" stop-color="#31E0AF"/>
</linearGradient>
<linearGradient id="paint1_linear_7_2403" x1="3216.64" y1="1118.35" x2="13328" y2="4136.91" gradientUnits="userSpaceOnUse">
<stop stop-color="#748BEF" stop-opacity="0.94"/>
<stop offset="0.44" stop-color="#2766D2"/>
<stop offset="0.51" stop-color="#4C98EA"/>
<stop offset="0.59" stop-color="#51ACEC"/>
<stop offset="0.68" stop-color="#54B8ED"/>
<stop offset="0.76" stop-color="#55BCED"/>
<stop offset="0.85" stop-color="#54BDEB"/>
<stop offset="0.9" stop-color="#4FC2E3"/>
<stop offset="0.94" stop-color="#47CAD5"/>
<stop offset="0.98" stop-color="#3CD5C2"/>
<stop offset="1" stop-color="#31E0AF"/>
</linearGradient>
<linearGradient id="paint2_linear_7_2403" x1="4962.86" y1="1153.66" x2="19131.4" y2="7468.75" gradientUnits="userSpaceOnUse">
<stop stop-color="#748BEF" stop-opacity="0.94"/>
<stop offset="0.44" stop-color="#2766D2"/>
<stop offset="0.51" stop-color="#4C98EA"/>
<stop offset="0.59" stop-color="#51ACEC"/>
<stop offset="0.68" stop-color="#54B8ED"/>
<stop offset="0.76" stop-color="#55BCED"/>
<stop offset="0.85" stop-color="#54BDEB"/>
<stop offset="0.9" stop-color="#4FC2E3"/>
<stop offset="0.94" stop-color="#47CAD5"/>
<stop offset="0.98" stop-color="#3CD5C2"/>
<stop offset="1" stop-color="#31E0AF"/>
</linearGradient>
<linearGradient id="paint3_linear_7_2403" x1="5104.99" y1="1445.93" x2="20389.9" y2="6941.14" gradientUnits="userSpaceOnUse">
<stop stop-color="#748BEF" stop-opacity="0.94"/>
<stop offset="0.44" stop-color="#2766D2"/>
<stop offset="0.51" stop-color="#4C98EA"/>
<stop offset="0.59" stop-color="#51ACEC"/>
<stop offset="0.68" stop-color="#54B8ED"/>
<stop offset="0.76" stop-color="#55BCED"/>
<stop offset="0.85" stop-color="#54BDEB"/>
<stop offset="0.9" stop-color="#4FC2E3"/>
<stop offset="0.94" stop-color="#47CAD5"/>
<stop offset="0.98" stop-color="#3CD5C2"/>
<stop offset="1" stop-color="#31E0AF"/>
</linearGradient>
<linearGradient id="paint4_linear_7_2403" x1="3385.82" y1="1118.35" x2="13494.4" y2="4135.09" gradientUnits="userSpaceOnUse">
<stop stop-color="#748BEF" stop-opacity="0.94"/>
<stop offset="0.44" stop-color="#2766D2"/>
<stop offset="0.51" stop-color="#4C98EA"/>
<stop offset="0.59" stop-color="#51ACEC"/>
<stop offset="0.68" stop-color="#54B8ED"/>
<stop offset="0.76" stop-color="#55BCED"/>
<stop offset="0.85" stop-color="#54BDEB"/>
<stop offset="0.9" stop-color="#4FC2E3"/>
<stop offset="0.94" stop-color="#47CAD5"/>
<stop offset="0.98" stop-color="#3CD5C2"/>
<stop offset="1" stop-color="#31E0AF"/>
</linearGradient>
<linearGradient id="paint5_linear_7_2403" x1="4746.16" y1="1152.48" x2="18120.2" y2="6644.42" gradientUnits="userSpaceOnUse">
<stop stop-color="#748BEF" stop-opacity="0.94"/>
<stop offset="0.44" stop-color="#2766D2"/>
<stop offset="0.51" stop-color="#4C98EA"/>
<stop offset="0.59" stop-color="#51ACEC"/>
<stop offset="0.68" stop-color="#54B8ED"/>
<stop offset="0.76" stop-color="#55BCED"/>
<stop offset="0.85" stop-color="#54BDEB"/>
<stop offset="0.9" stop-color="#4FC2E3"/>
<stop offset="0.94" stop-color="#47CAD5"/>
<stop offset="0.98" stop-color="#3CD5C2"/>
<stop offset="1" stop-color="#31E0AF"/>
</linearGradient>
<linearGradient id="paint6_linear_7_2403" x1="4425.39" y1="1152.93" x2="16965.2" y2="5865.92" gradientUnits="userSpaceOnUse">
<stop stop-color="#748BEF" stop-opacity="0.94"/>
<stop offset="0.44" stop-color="#2766D2"/>
<stop offset="0.51" stop-color="#4C98EA"/>
<stop offset="0.59" stop-color="#51ACEC"/>
<stop offset="0.68" stop-color="#54B8ED"/>
<stop offset="0.76" stop-color="#55BCED"/>
<stop offset="0.85" stop-color="#54BDEB"/>
<stop offset="0.9" stop-color="#4FC2E3"/>
<stop offset="0.94" stop-color="#47CAD5"/>
<stop offset="0.98" stop-color="#3CD5C2"/>
<stop offset="1" stop-color="#31E0AF"/>
</linearGradient>
<linearGradient id="paint7_linear_7_2403" x1="4475.31" y1="1152.95" x2="17015.2" y2="5865.86" gradientUnits="userSpaceOnUse">
<stop stop-color="#748BEF" stop-opacity="0.94"/>
<stop offset="0.44" stop-color="#2766D2"/>
<stop offset="0.51" stop-color="#4C98EA"/>
<stop offset="0.59" stop-color="#51ACEC"/>
<stop offset="0.68" stop-color="#54B8ED"/>
<stop offset="0.76" stop-color="#55BCED"/>
<stop offset="0.85" stop-color="#54BDEB"/>
<stop offset="0.9" stop-color="#4FC2E3"/>
<stop offset="0.94" stop-color="#47CAD5"/>
<stop offset="0.98" stop-color="#3CD5C2"/>
<stop offset="1" stop-color="#31E0AF"/>
</linearGradient>
<linearGradient id="paint8_linear_7_2403" x1="5974.16" y1="1389.82" x2="22486.3" y2="8251.65" gradientUnits="userSpaceOnUse">
<stop stop-color="#748BEF" stop-opacity="0.94"/>
<stop offset="0.44" stop-color="#2766D2"/>
<stop offset="0.51" stop-color="#4C98EA"/>
<stop offset="0.59" stop-color="#51ACEC"/>
<stop offset="0.68" stop-color="#54B8ED"/>
<stop offset="0.76" stop-color="#55BCED"/>
<stop offset="0.85" stop-color="#54BDEB"/>
<stop offset="0.9" stop-color="#4FC2E3"/>
<stop offset="0.94" stop-color="#47CAD5"/>
<stop offset="0.98" stop-color="#3CD5C2"/>
<stop offset="1" stop-color="#31E0AF"/>
</linearGradient>
<linearGradient id="paint9_linear_7_2403" x1="5367.4" y1="1153.66" x2="19536" y2="7468.75" gradientUnits="userSpaceOnUse">
<stop stop-color="#748BEF" stop-opacity="0.94"/>
<stop offset="0.44" stop-color="#2766D2"/>
<stop offset="0.51" stop-color="#4C98EA"/>
<stop offset="0.59" stop-color="#51ACEC"/>
<stop offset="0.68" stop-color="#54B8ED"/>
<stop offset="0.76" stop-color="#55BCED"/>
<stop offset="0.85" stop-color="#54BDEB"/>
<stop offset="0.9" stop-color="#4FC2E3"/>
<stop offset="0.94" stop-color="#47CAD5"/>
<stop offset="0.98" stop-color="#3CD5C2"/>
<stop offset="1" stop-color="#31E0AF"/>
</linearGradient>
<linearGradient id="paint10_linear_7_2403" x1="3871.96" y1="1380.96" x2="14730.8" y2="4089.91" gradientUnits="userSpaceOnUse">
<stop stop-color="#748BEF" stop-opacity="0.94"/>
<stop offset="0.44" stop-color="#2766D2"/>
<stop offset="0.51" stop-color="#4C98EA"/>
<stop offset="0.59" stop-color="#51ACEC"/>
<stop offset="0.68" stop-color="#54B8ED"/>
<stop offset="0.76" stop-color="#55BCED"/>
<stop offset="0.85" stop-color="#54BDEB"/>
<stop offset="0.9" stop-color="#4FC2E3"/>
<stop offset="0.94" stop-color="#47CAD5"/>
<stop offset="0.98" stop-color="#3CD5C2"/>
<stop offset="1" stop-color="#31E0AF"/>
</linearGradient>
<linearGradient id="paint11_linear_7_2403" x1="5588.87" y1="1389.82" x2="20848.2" y2="7082.4" gradientUnits="userSpaceOnUse">
<stop stop-color="#748BEF" stop-opacity="0.94"/>
<stop offset="0.44" stop-color="#2766D2"/>
<stop offset="0.51" stop-color="#4C98EA"/>
<stop offset="0.59" stop-color="#51ACEC"/>
<stop offset="0.68" stop-color="#54B8ED"/>
<stop offset="0.76" stop-color="#55BCED"/>
<stop offset="0.85" stop-color="#54BDEB"/>
<stop offset="0.9" stop-color="#4FC2E3"/>
<stop offset="0.94" stop-color="#47CAD5"/>
<stop offset="0.98" stop-color="#3CD5C2"/>
<stop offset="1" stop-color="#31E0AF"/>
</linearGradient>
<linearGradient id="paint12_linear_7_2403" x1="5150.79" y1="1152.48" x2="18524.8" y2="6644.39" gradientUnits="userSpaceOnUse">
<stop stop-color="#748BEF" stop-opacity="0.94"/>
<stop offset="0.44" stop-color="#2766D2"/>
<stop offset="0.51" stop-color="#4C98EA"/>
<stop offset="0.59" stop-color="#51ACEC"/>
<stop offset="0.68" stop-color="#54B8ED"/>
<stop offset="0.76" stop-color="#55BCED"/>
<stop offset="0.85" stop-color="#54BDEB"/>
<stop offset="0.9" stop-color="#4FC2E3"/>
<stop offset="0.94" stop-color="#47CAD5"/>
<stop offset="0.98" stop-color="#3CD5C2"/>
<stop offset="1" stop-color="#31E0AF"/>
</linearGradient>
<linearGradient id="paint13_linear_7_2403" x1="3890.29" y1="1118.35" x2="13998.9" y2="4135.1" gradientUnits="userSpaceOnUse">
<stop stop-color="#748BEF" stop-opacity="0.94"/>
<stop offset="0.44" stop-color="#2766D2"/>
<stop offset="0.51" stop-color="#4C98EA"/>
<stop offset="0.59" stop-color="#51ACEC"/>
<stop offset="0.68" stop-color="#54B8ED"/>
<stop offset="0.76" stop-color="#55BCED"/>
<stop offset="0.85" stop-color="#54BDEB"/>
<stop offset="0.9" stop-color="#4FC2E3"/>
<stop offset="0.94" stop-color="#47CAD5"/>
<stop offset="0.98" stop-color="#3CD5C2"/>
<stop offset="1" stop-color="#31E0AF"/>
</linearGradient>
<linearGradient id="paint14_linear_7_2403" x1="4041.63" y1="1459.95" x2="14856.7" y2="3970.35" gradientUnits="userSpaceOnUse">
<stop stop-color="#748BEF" stop-opacity="0.94"/>
<stop offset="0.44" stop-color="#2766D2"/>
<stop offset="0.51" stop-color="#4C98EA"/>
<stop offset="0.59" stop-color="#51ACEC"/>
<stop offset="0.68" stop-color="#54B8ED"/>
<stop offset="0.76" stop-color="#55BCED"/>
<stop offset="0.85" stop-color="#54BDEB"/>
<stop offset="0.9" stop-color="#4FC2E3"/>
<stop offset="0.94" stop-color="#47CAD5"/>
<stop offset="0.98" stop-color="#3CD5C2"/>
<stop offset="1" stop-color="#31E0AF"/>
</linearGradient>
<linearGradient id="paint15_linear_7_2403" x1="5291.47" y1="1151.72" x2="18662.8" y2="6646.32" gradientUnits="userSpaceOnUse">
<stop stop-color="#748BEF" stop-opacity="0.94"/>
<stop offset="0.44" stop-color="#2766D2"/>
<stop offset="0.51" stop-color="#4C98EA"/>
<stop offset="0.59" stop-color="#51ACEC"/>
<stop offset="0.68" stop-color="#54B8ED"/>
<stop offset="0.76" stop-color="#55BCED"/>
<stop offset="0.85" stop-color="#54BDEB"/>
<stop offset="0.9" stop-color="#4FC2E3"/>
<stop offset="0.94" stop-color="#47CAD5"/>
<stop offset="0.98" stop-color="#3CD5C2"/>
<stop offset="1" stop-color="#31E0AF"/>
</linearGradient>
<linearGradient id="paint16_linear_7_2403" x1="5225.93" y1="1153.06" x2="18335.1" y2="6384.73" gradientUnits="userSpaceOnUse">
<stop stop-color="#748BEF" stop-opacity="0.94"/>
<stop offset="0.44" stop-color="#2766D2"/>
<stop offset="0.51" stop-color="#4C98EA"/>
<stop offset="0.59" stop-color="#51ACEC"/>
<stop offset="0.68" stop-color="#54B8ED"/>
<stop offset="0.76" stop-color="#55BCED"/>
<stop offset="0.85" stop-color="#54BDEB"/>
<stop offset="0.9" stop-color="#4FC2E3"/>
<stop offset="0.94" stop-color="#47CAD5"/>
<stop offset="0.98" stop-color="#3CD5C2"/>
<stop offset="1" stop-color="#31E0AF"/>
</linearGradient>
<linearGradient id="paint17_linear_7_2403" x1="4233.97" y1="1380.97" x2="15092.8" y2="4089.9" gradientUnits="userSpaceOnUse">
<stop stop-color="#748BEF" stop-opacity="0.94"/>
<stop offset="0.44" stop-color="#2766D2"/>
<stop offset="0.51" stop-color="#4C98EA"/>
<stop offset="0.59" stop-color="#51ACEC"/>
<stop offset="0.68" stop-color="#54B8ED"/>
<stop offset="0.76" stop-color="#55BCED"/>
<stop offset="0.85" stop-color="#54BDEB"/>
<stop offset="0.9" stop-color="#4FC2E3"/>
<stop offset="0.94" stop-color="#47CAD5"/>
<stop offset="0.98" stop-color="#3CD5C2"/>
<stop offset="1" stop-color="#31E0AF"/>
</linearGradient>
<linearGradient id="paint18_linear_7_2403" x1="2835.53" y1="1446.53" x2="9204.51" y2="2295.59" gradientUnits="userSpaceOnUse">
<stop stop-color="#748BEF" stop-opacity="0.94"/>
<stop offset="0.44" stop-color="#2766D2"/>
<stop offset="0.51" stop-color="#4C98EA"/>
<stop offset="0.59" stop-color="#51ACEC"/>
<stop offset="0.68" stop-color="#54B8ED"/>
<stop offset="0.76" stop-color="#55BCED"/>
<stop offset="0.85" stop-color="#54BDEB"/>
<stop offset="0.9" stop-color="#4FC2E3"/>
<stop offset="0.94" stop-color="#47CAD5"/>
<stop offset="0.98" stop-color="#3CD5C2"/>
<stop offset="1" stop-color="#31E0AF"/>
</linearGradient>
<linearGradient id="paint19_linear_7_2403" x1="5863.46" y1="1153.66" x2="20032.1" y2="7468.77" gradientUnits="userSpaceOnUse">
<stop stop-color="#748BEF" stop-opacity="0.94"/>
<stop offset="0.44" stop-color="#2766D2"/>
<stop offset="0.51" stop-color="#4C98EA"/>
<stop offset="0.59" stop-color="#51ACEC"/>
<stop offset="0.68" stop-color="#54B8ED"/>
<stop offset="0.76" stop-color="#55BCED"/>
<stop offset="0.85" stop-color="#54BDEB"/>
<stop offset="0.9" stop-color="#4FC2E3"/>
<stop offset="0.94" stop-color="#47CAD5"/>
<stop offset="0.98" stop-color="#3CD5C2"/>
<stop offset="1" stop-color="#31E0AF"/>
</linearGradient>
<linearGradient id="paint20_linear_7_2403" x1="5667.57" y1="1127.61" x2="19213.8" y2="6977.11" gradientUnits="userSpaceOnUse">
<stop stop-color="#748BEF" stop-opacity="0.94"/>
<stop offset="0.44" stop-color="#2766D2"/>
<stop offset="0.51" stop-color="#4C98EA"/>
<stop offset="0.59" stop-color="#51ACEC"/>
<stop offset="0.68" stop-color="#54B8ED"/>
<stop offset="0.76" stop-color="#55BCED"/>
<stop offset="0.85" stop-color="#54BDEB"/>
<stop offset="0.9" stop-color="#4FC2E3"/>
<stop offset="0.94" stop-color="#47CAD5"/>
<stop offset="0.98" stop-color="#3CD5C2"/>
<stop offset="1" stop-color="#31E0AF"/>
</linearGradient>
</defs>
</svg>
