<svg width="56" height="17" viewBox="0 0 56 17" fill="none" xmlns="http://www.w3.org/2000/svg">
<path d="M55.8872 2.22935L55.9009 2.09759L55.7078 1.97098L55.5107 1.90405L55.1308 1.82264L54.4534 1.72407L52.8786 1.5863L50.6888 1.45783L47.0425 1.30236L43.7154 1.19614L38.8875 1.07779L29.6087 0.939378L24.2971 0.912247L19.2279 0.917974L11.5632 1.00167L7.9747 1.07296L2.79331 1.22484L0.589355 1.31615L0.383458 1.33899L0.0670812 1.45715L0.0507261 1.64409L0.359306 1.82539L1.00807 1.93977L1.52005 1.92705L1.85071 1.80385L1.85239 1.78472L1.89687 1.77879L4.17403 1.5879L7.64312 1.41721L10.8452 1.31144L14.7354 1.23265L19.3105 1.18261L24.3695 1.17603L24.3736 1.17604L29.6724 1.20824L38.9384 1.35794L47.0777 1.58925L50.707 1.74606L52.8706 1.87339L54.3908 2.0066L55.028 2.10765L54.9682 2.13588L54.7625 2.18314L53.0482 2.41188L50.1775 2.69437L42.5132 3.34156L32.7371 4.23549L27.0316 4.83624L21.4808 5.48461L16.7763 6.12514L12.8885 6.75225L11.3875 7.03923L10.1554 7.31292L9.19846 7.57319L8.45654 7.84778L8.11522 8.07996L8.07225 8.25035L8.26746 8.46364L8.58079 8.61464L9.20737 8.78604L9.73366 8.88947L10.2062 8.96244L11.3595 9.08851L13.5074 9.24824L16.8961 9.43315L28.9684 9.85825L33.1624 10.0564L35.2028 10.1925L36.2354 10.2946L37.158 10.4394L37.4992 10.5425L37.5792 10.6305L37.4308 10.7495L37.0799 10.8823L36.0723 11.1528L34.7434 11.4431L28.7892 12.5215L27.0319 12.8643L26.0471 13.0964L24.7562 13.457L23.9798 13.7233L23.4637 13.9475L23.1768 14.1603L23.0951 14.4089L23.2567 14.7606L23.5146 14.9679L23.9395 15.1754L24.7463 15.4865L25.6043 15.7332L27.1533 16.1179L27.576 16.0504L27.4427 15.8804L25.3567 15.3314L24.4835 15.0028L24.1832 14.8609L24.0488 14.7396L23.9083 14.4393L23.965 14.3069L24.2139 14.1225L24.6661 13.9254L25.2929 13.7129L27.0293 13.2433L28.6604 12.9041L35.7344 11.6105L37.3126 11.2281L38.1789 10.9275L38.3994 10.7461L38.3937 10.5979L38.2209 10.456L37.8538 10.2973L37.1262 10.1352L36.3018 10.0141L34.5837 9.85918L29.8686 9.60667L18.8398 9.22334L18.8358 9.22319L15.9542 9.10316L12.754 8.91188L10.7953 8.74564L10.2902 8.68446L9.59828 8.56707L9.33462 8.50353L8.98554 8.37693L8.89164 8.26897L8.90524 8.22706L9.19777 8.02789L9.73935 7.82794L10.6674 7.57573L11.8791 7.30655L13.3627 7.02281L17.2328 6.39876L20.6792 5.91918L26.0196 5.27446L33.1543 4.51385L42.9197 3.62091L50.5885 2.97305L54.0284 2.62818L55.2503 2.45388L55.7711 2.30315L55.8872 2.22935Z" fill="#231F20"/>
</svg>
